SplineFontDB: 3.0
FontName: Fresca-Regular
FullName: Fresca Regular
FamilyName: Fresca
Weight: Regular
Copyright: Copyright (c) 2011 Fontstage (info@fontstage.com), with Reserved Font Name "Fresca"
Version: 001.001
ItalicAngle: 0
UnderlinePosition: -50
UnderlineWidth: 50
Ascent: 800
Descent: 200
sfntRevision: 0x00010042
LayerCount: 2
Layer: 0 1 "Back"  1
Layer: 1 1 "Fore"  0
NeedsXUIDChange: 1
XUID: [1021 288 713564382 2654683]
FSType: 0
OS2Version: 2
OS2_WeightWidthSlopeOnly: 0
OS2_UseTypoMetrics: 1
CreationTime: 1323102325
ModificationTime: 1323135544
PfmFamily: 17
TTFWeight: 400
TTFWidth: 5
LineGap: 0
VLineGap: 0
Panose: 2 0 5 6 0 0 0 2 0 3
OS2TypoAscent: 69
OS2TypoAOffset: 1
OS2TypoDescent: -85
OS2TypoDOffset: 1
OS2TypoLinegap: 0
OS2WinAscent: 0
OS2WinAOffset: 1
OS2WinDescent: 0
OS2WinDOffset: 1
HheadAscent: 0
HheadAOffset: 1
HheadDescent: 0
HheadDOffset: 1
OS2SubXSize: 700
OS2SubYSize: 650
OS2SubXOff: 0
OS2SubYOff: 140
OS2SupXSize: 700
OS2SupYSize: 650
OS2SupXOff: 0
OS2SupYOff: 477
OS2StrikeYSize: 50
OS2StrikeYPos: 250
OS2Vendor: 'PYRS'
OS2CodePages: 20000001.00000000
OS2UnicodeRanges: 800000ef.4000204b.00000000.00000000
MarkAttachClasses: 1
DEI: 91125
TtTable: prep
PUSHW_1
 511
SCANCTRL
PUSHB_1
 4
SCANTYPE
EndTTInstrs
LangName: 1033 "" "" "" "Fontstage: Fresca: 2011" "Fresca-Regular" "Version 1.001" "" "Fresca is a trademark of Fontstage." "Fontstage" "Iv+AOEA-n Moreno" "" "www.fontstage.com" "www.fontstage.com" "This Font Software is licensed under the SIL Open Font License, Version 1.1. This license is available with a FAQ at: http://scripts.sil.org/OFL" "http://scripts.sil.org/OFL" 
GaspTable: 1 65535 15
Encoding: UnicodeBmp
UnicodeInterp: none
NameList: Adobe Glyph List
DisplaySize: -36
AntiAlias: 1
FitToEm: 1
WinInfo: 34 34 12
BeginPrivate: 6
BlueValues 23 [-13 0 484 484 661 661]
OtherBlues 11 [-229 -229]
StdHW 4 [78]
StdVW 4 [85]
StemSnapH 7 [70 78]
StemSnapV 10 [79 85 98]
EndPrivate
BeginChars: 65568 304

StartChar: .notdef
Encoding: 65536 -1 0
Width: 546
Flags: HMW
HStem: 0 21G<50 50> 4 63 592 59 633 20G<496 496>
VStem: 50 68<132 132 132 650> 426 68
LayerCount: 2
Fore
SplineSet
496 653 m 1,0,-1
 493 8 l 1,1,-1
 50 0 l 1,2,-1
 50 650 l 1,3,-1
 496 653 l 1,0,-1
275 378 m 1,4,-1
 279 378 l 1,5,-1
 417 595 l 1,6,-1
 132 590 l 1,7,-1
 275 378 l 1,4,-1
271 276 m 1,8,-1
 144 68 l 1,9,-1
 420 66 l 1,10,-1
 275 276 l 1,11,-1
 271 276 l 1,8,-1
237 332 m 1,12,-1
 119 509 l 1,13,-1
 118 132 l 1,14,-1
 237 332 l 1,12,-1
315 331 m 1,15,-1
 426 165 l 1,16,-1
 427 508 l 1,17,-1
 315 331 l 1,15,-1
EndSplineSet
EndChar

StartChar: A
Encoding: 65 65 1
Width: 474
Flags: HMW
HStem: -13 21G<96 96 375 375> 173 61 628 20G<254 254>
LayerCount: 2
Fore
SplineSet
321 171 m 1,0,-1
 138 175 l 1,1,-1
 96 -13 l 1,2,-1
 10 0 l 1,3,-1
 175 642 l 1,4,-1
 254 648 l 1,5,-1
 462 0 l 1,6,-1
 375 -13 l 1,7,-1
 321 171 l 1,0,-1
152 236 m 1,8,-1
 303 232 l 1,9,-1
 217 528 l 1,10,-1
 152 236 l 1,8,-1
EndSplineSet
EndChar

StartChar: B
Encoding: 66 66 2
Width: 445
Flags: HMW
HStem: -4 75<193.5 196.5> 305 47 584 67<187.5 227.5>
VStem: 58 83 304 85<468 514> 341 48 341 84<147.5 231>
LayerCount: 2
Fore
SplineSet
55 630 m 1,0,1
 118 651 118 651 205 651 c 128,-1,2
 292 651 292 651 340.5 605.5 c 128,-1,3
 389 560 389 560 389 495 c 0,4,5
 389 454 389 454 368 415 c 128,-1,6
 347 376 347 376 310 354 c 1,7,8
 351 346 351 346 388 306.5 c 128,-1,9
 425 267 425 267 425 192 c 0,10,11
 425 141 425 141 407.5 104 c 128,-1,12
 390 67 390 67 363.5 46.5 c 128,-1,13
 337 26 337 26 293.5 14 c 128,-1,14
 250 2 250 2 210.5 -1 c 128,-1,15
 171 -4 171 -4 129 -4 c 128,-1,16
 87 -4 87 -4 62 0 c 1,17,-1
 55 630 l 1,0,1
143 296 m 1,18,-1
 145 77 l 1,19,20
 171 71 171 71 203 71 c 0,21,22
 260 71 260 71 300.5 101 c 128,-1,23
 341 131 341 131 341 189.5 c 128,-1,24
 341 248 341 248 304.5 276.5 c 128,-1,25
 268 305 268 305 221 305 c 128,-1,26
 174 305 174 305 143 296 c 1,18,-1
140 576 m 1,27,-1
 142 352 l 1,28,29
 228 357 228 357 266 386.5 c 128,-1,30
 304 416 304 416 304 473 c 128,-1,31
 304 530 304 530 274.5 557 c 128,-1,32
 245 584 245 584 196 584 c 0,33,34
 170 584 170 584 140 576 c 1,27,-1
EndSplineSet
EndChar

StartChar: C
Encoding: 67 67 3
Width: 482
Flags: HMW
HStem: -13 81<228 320 228 340.5> 570 81<224 303>
VStem: 30 89<269 389 269 405.5>
LayerCount: 2
Fore
SplineSet
378 524 m 1,0,1
 346 570 346 570 285 570 c 0,2,3
 241 570 241 570 208 548.5 c 128,-1,4
 175 527 175 527 156 492 c 0,5,6
 119 423.842105263 119 423.842105263 119 322.921052632 c 128,-1,7
 119 222 119 222 161 145 c 128,-1,8
 203 68 203 68 293 68 c 0,9,10
 361 68 361 68 390 131 c 1,11,-1
 462 108 l 1,12,13
 440 55 440 55 400.5 21 c 128,-1,14
 361 -13 361 -13 281 -13 c 0,15,16
 30 -13 30 -13 30 319 c 0,17,18
 30 456.915254237 30 456.915254237 87.5 549.5 c 0,19,20
 117 597 117 597 169.5 624 c 128,-1,21
 222 651 222 651 293 651 c 0,22,23
 395 651 395 651 446 586 c 1,24,-1
 378 524 l 1,0,1
EndSplineSet
EndChar

StartChar: D
Encoding: 68 68 4
Width: 537
Flags: HMW
HStem: -1 68<180 216 147 287> 583 64<142 227.5>
VStem: 57 87 414 93<226.5 422>
LayerCount: 2
Fore
SplineSet
192 -1 m 0,0,1
 102 -1 102 -1 63 5 c 1,2,-1
 51 645 l 1,3,4
 68 647 68 647 158 647 c 128,-1,5
 248 647 248 647 305 631 c 128,-1,6
 362 615 362 615 409 580 c 0,7,8
 507 507.021276596 507 507.021276596 507 332 c 0,9,10
 507 176 507 176 421.5 87.5 c 128,-1,11
 336 -1 336 -1 192 -1 c 0,0,1
346 524.5 m 128,-1,13
 278 583 278 583 142 583 c 1,14,-1
 147 67 l 1,15,16
 257.545454545 67 257.545454545 67 332 119.5 c 0,17,18
 414 177.320512821 414 177.320512821 414 321.66025641 c 128,-1,12
 414 466 414 466 346 524.5 c 128,-1,13
EndSplineSet
EndChar

StartChar: E
Encoding: 69 69 5
Width: 384
Flags: HMW
HStem: -3 21G<354 354> -1 86 293 84 567 81 636 20G<345 345>
VStem: 48 90
LayerCount: 2
Fore
SplineSet
42 640 m 1,0,-1
 345 656 l 1,1,-1
 349 567 l 1,2,-1
 131 568 l 1,3,-1
 135 376 l 1,4,-1
 310 379 l 1,5,-1
 309 291 l 1,6,-1
 138 295 l 1,7,-1
 138 82 l 1,8,-1
 354 88 l 1,9,-1
 354 -3 l 1,10,-1
 54 1 l 1,11,-1
 42 640 l 1,0,-1
EndSplineSet
EndChar

StartChar: F
Encoding: 70 70 6
Width: 347
Flags: HMW
HStem: 2 21G<42 42> 289 84 569 75 629 20G<349 349>
VStem: 46 85
LayerCount: 2
Fore
SplineSet
130 3 m 1,0,-1
 42 2 l 1,1,-1
 50 640 l 1,2,-1
 349 649 l 1,3,-1
 349 566 l 1,4,-1
 136 572 l 1,5,-1
 136 370 l 1,6,-1
 307 377 l 1,7,-1
 303 288 l 1,8,-1
 133 290 l 1,9,-1
 130 3 l 1,0,-1
EndSplineSet
EndChar

StartChar: G
Encoding: 71 71 7
Width: 490
Flags: HMW
HStem: -7 76<209 297 209 347> 254 69 571 80<224 301.5>
VStem: 25 86<273 380.5 273 406.5> 276 184<255 263 199.5 326 199.5 326> 379 81<254 254>
LayerCount: 2
Fore
SplineSet
276 326 m 1,0,-1
 457 321 l 1,1,2
 460 285 460 285 460 247.5 c 128,-1,3
 460 210 460 210 450.5 167 c 128,-1,4
 441 124 441 124 421 83.5 c 128,-1,5
 401 43 401 43 364.5 18 c 128,-1,6
 328 -7 328 -7 269 -7 c 128,-1,7
 210 -7 210 -7 159 18.5 c 128,-1,8
 108 44 108 44 79.5 91 c 0,9,10
 25 180.877192982 25 180.877192982 25 322 c 0,11,12
 25 455.046875 25 455.046875 90 549.5 c 0,13,14
 122 596 122 596 174 623.5 c 128,-1,15
 226 651 226 651 284.5 651 c 128,-1,16
 343 651 343 651 378.5 631.5 c 128,-1,17
 414 612 414 612 447 567 c 1,18,-1
 376 518 l 1,19,20
 333 571 333 571 280 571 c 0,21,22
 200 571 200 571 155.5 495.5 c 128,-1,23
 111 420 111 420 111 316 c 0,24,25
 111 241 111 241 145 161 c 0,26,27
 162 121 162 121 194 95 c 128,-1,28
 226 69 226 69 270.5 69 c 128,-1,29
 315 69 315 69 347.123287671 117.424657534 c 128,-1,30
 379.246575342 165.849315068 379.246575342 165.849315068 379.246575342 240.418089698 c 0,31,32
 379.246575342 247.095890411 379.246575342 247.095890411 379 254 c 1,33,-1
 276 255 l 1,34,-1
 276 326 l 1,0,-1
EndSplineSet
EndChar

StartChar: H
Encoding: 72 72 8
Width: 525
Flags: HMW
HStem: -6 21G<72 152 72 72> 271 84<152 384 151 385 152 152> 632 20G<49 141 141 141 380 380>
VStem: 60 86 382 92
LayerCount: 2
Fore
SplineSet
380 652 m 1,0,-1
 466 649 l 1,1,-1
 483 1 l 1,2,-1
 390 1 l 1,3,-1
 385 271 l 1,4,-1
 152 271 l 1,5,-1
 152 -6 l 1,6,-1
 72 -6 l 1,7,-1
 49 652 l 1,8,-1
 141 652 l 1,9,-1
 151 355 l 1,10,-1
 384 355 l 1,11,-1
 380 652 l 1,0,-1
EndSplineSet
EndChar

StartChar: I
Encoding: 73 73 9
Width: 208
Flags: HMW
HStem: 0 21G<63 63> 632 20G<155 155>
VStem: 60 89
LayerCount: 2
Fore
SplineSet
57 647 m 1,0,-1
 155 652 l 1,1,-1
 144 3 l 1,2,-1
 63 0 l 1,3,-1
 57 647 l 1,0,-1
EndSplineSet
EndChar

StartChar: J
Encoding: 74 74 10
Width: 474
Flags: HMW
HStem: -1 90<198 280 198 303> 635 20G<421 421>
VStem: 341 82<267.5 340>
LayerCount: 2
Fore
SplineSet
341 297 m 1,0,-1
 331 648 l 1,1,-1
 421 655 l 1,2,3
 423 411 423 411 423 354 c 128,-1,4
 423 297 423 297 418.5 250.5 c 128,-1,5
 414 204 414 204 400.5 155 c 128,-1,6
 387 106 387 106 364.5 73.5 c 128,-1,7
 342 41 342 41 303.5 20 c 128,-1,8
 265 -1 265 -1 210.5 -1 c 128,-1,9
 156 -1 156 -1 111 24 c 128,-1,10
 66 49 66 49 10 100 c 1,11,-1
 59 175 l 1,12,13
 94 142 94 142 140.5 115.5 c 128,-1,14
 187 89 187 89 226 89 c 128,-1,15
 265 89 265 89 289 108 c 128,-1,16
 313 127 313 127 323.5 161 c 0,17,18
 341 217.666666667 341 217.666666667 341 297 c 1,0,-1
EndSplineSet
EndChar

StartChar: K
Encoding: 75 75 11
Width: 499
Flags: HMW
HStem: -14 21G<418 418> 641 20G<365 365>
VStem: 52 89
LayerCount: 2
Fore
SplineSet
144 268 m 1,0,-1
 148 3 l 1,1,-1
 57 -7 l 1,2,-1
 48 647 l 1,3,-1
 144 653 l 1,4,-1
 138 349 l 1,5,-1
 365 661 l 1,6,-1
 448 628 l 1,7,-1
 206 324 l 1,8,-1
 487 44 l 1,9,-1
 418 -14 l 1,10,-1
 144 268 l 1,0,-1
EndSplineSet
EndChar

StartChar: L
Encoding: 76 76 12
Width: 447
Flags: HMW
HStem: -9 21G<421 421> -3 78 634 20G<142 142>
VStem: 54 92
LayerCount: 2
Fore
SplineSet
60 3 m 1,0,-1
 48 646 l 1,1,-1
 142 654 l 1,2,-1
 151 72 l 1,3,-1
 425 78 l 1,4,-1
 421 -9 l 1,5,-1
 60 3 l 1,0,-1
EndSplineSet
EndChar

StartChar: M
Encoding: 77 77 13
Width: 642
Flags: HMW
HStem: -10 21G<136 136> 637 20G<75 75>
VStem: 58 80 513 75
LayerCount: 2
Fore
SplineSet
600 3 m 1,0,-1
 522 -5 l 1,1,-1
 504 436 l 1,2,-1
 367 2 l 1,3,-1
 300 0 l 1,4,-1
 141 443 l 1,5,-1
 136 -10 l 1,6,-1
 42 -5 l 1,7,-1
 75 657 l 1,8,-1
 146 654 l 1,9,-1
 332 119 l 1,10,-1
 490 655 l 1,11,-1
 577 653 l 1,12,-1
 600 3 l 1,0,-1
EndSplineSet
EndChar

StartChar: N
Encoding: 78 78 14
Width: 528
Flags: HMW
HStem: -12 21G<460 460> 637 20G<379 379>
VStem: 58 84 382 86
LayerCount: 2
Fore
SplineSet
153 -10 m 1,0,-1
 65 -6 l 1,1,-1
 51 641 l 1,2,-1
 146 646 l 1,3,-1
 386 192 l 1,4,-1
 379 657 l 1,5,-1
 477 650 l 1,6,-1
 460 -12 l 1,7,-1
 399 -10 l 1,8,-1
 132 476 l 1,9,-1
 153 -10 l 1,0,-1
EndSplineSet
EndChar

StartChar: O
Encoding: 79 79 15
Width: 548
Flags: HMW
HStem: -9 78<237.5 323.5 237.5 363.5> 573 75<227.5 306.5>
VStem: 35 88<249 404.5 249 431.5> 424 89<254 424.5>
LayerCount: 2
Fore
SplineSet
35 327 m 0,0,1
 35 475 35 475 107 561.5 c 128,-1,2
 179 648 179 648 275.5 648 c 128,-1,3
 372 648 372 648 442.5 568 c 128,-1,4
 513 488 513 488 513 340 c 0,5,6
 513 203.037735849 513 203.037735849 460.5 102 c 0,7,8
 434 51 434 51 386.5 21 c 128,-1,9
 339 -9 339 -9 269.5 -9 c 128,-1,10
 200 -9 200 -9 143.5 41 c 0,11,12
 35 137.017699115 35 137.017699115 35 327 c 0,0,1
165 505 m 128,-1,14
 123 437 123 437 123 325 c 128,-1,15
 123 213 123 213 168.5 141 c 128,-1,16
 214 69 214 69 280 69 c 0,17,18
 424 69 424 69 424 354 c 0,19,20
 424 457 424 457 378 515 c 128,-1,21
 332 573 332 573 261 573 c 0,22,13
 207 573 207 573 165 505 c 128,-1,14
EndSplineSet
EndChar

StartChar: P
Encoding: 80 80 16
Width: 419
Flags: HMW
HStem: -5 21G<131 131> 579 71<160 187.5>
VStem: 43 84 317 83<373 482.5>
LayerCount: 2
Fore
SplineSet
131 212 m 1,0,-1
 131 -5 l 1,1,-1
 42 2 l 1,2,-1
 44 619 l 1,3,4
 134 650 134 650 181 650 c 0,5,6
 283 650 283 650 341.5 586 c 128,-1,7
 400 522 400 522 400 432.5 c 128,-1,8
 400 343 400 343 328.5 277.5 c 128,-1,9
 257 212 257 212 158 212 c 2,10,-1
 131 212 l 1,0,-1
301 354.5 m 0,11,12
 317 383 317 383 317 424 c 128,-1,13
 317 465 317 465 301.5 497 c 128,-1,14
 286 529 286 529 260.5 546 c 0,15,16
 211 579 211 579 154 579 c 0,17,18
 140 579 140 579 125 576 c 1,19,-1
 129 279 l 1,20,21
 266.533174224 293.105966587 266.533174224 293.105966587 301 354.5 c 0,11,12
EndSplineSet
EndChar

StartChar: Q
Encoding: 81 81 17
Width: 558
Flags: HMW
HStem: -70 21G<438 438> 0 78<281 291.5 242.5 298> 582 75<232.5 311.5>
VStem: 40 88<258 413.5 258 440.5> 429 89<307 433.5>
LayerCount: 2
Fore
SplineSet
40 336 m 0,0,1
 40 484 40 484 112 570.5 c 128,-1,2
 184 657 184 657 280.5 657 c 128,-1,3
 377 657 377 657 447.5 577 c 128,-1,4
 518 497 518 497 518 349 c 0,5,6
 518 164 518 164 436 69 c 1,7,-1
 511 -14 l 1,8,-1
 438 -70 l 1,9,-1
 371 19 l 1,10,11
 330 0 330 0 281 0 c 0,12,13
 204 0 204 0 147.5 50 c 0,14,15
 40 145.132743363 40 145.132743363 40 336 c 0,0,1
170 514 m 128,-1,17
 128 446 128 446 128 334 c 128,-1,18
 128 222 128 222 173.5 150 c 128,-1,19
 219 78 219 78 285 78 c 0,20,21
 305 78 305 78 323 84 c 1,22,-1
 279 144 l 1,23,-1
 333 186 l 1,24,-1
 382 131 l 1,25,26
 429 201 429 201 429 363 c 0,27,28
 429 466 429 466 383 524 c 128,-1,29
 337 582 337 582 266 582 c 0,30,16
 212 582 212 582 170 514 c 128,-1,17
EndSplineSet
EndChar

StartChar: R
Encoding: 82 82 18
Width: 449
Flags: HMW
HStem: -14 21G<348 348> 257 75<165.5 223> 583 68<191 238>
VStem: 47 73 47 88 343 79<421 495.5>
LayerCount: 2
Fore
SplineSet
178 651 m 0,0,1
 300 651 300 651 361 595 c 128,-1,2
 422 539 422 539 422 460 c 0,3,4
 422 341 422 341 301 277 c 1,5,-1
 437 18 l 1,6,-1
 348 -14 l 1,7,-1
 223 257 l 1,8,-1
 132 258 l 1,9,-1
 139 3 l 1,10,-1
 53 -3 l 1,11,-1
 42 636 l 1,12,13
 149 651 149 651 178 651 c 0,0,1
120 571 m 1,14,-1
 120 334 l 1,15,16
 140 332 140 332 171 332 c 0,17,18
 231 332 231 332 287 365.5 c 128,-1,19
 343 399 343 399 343 456 c 0,20,21
 343 513 343 513 300.5 548 c 128,-1,22
 258 583 258 583 206 583 c 0,23,24
 154 583 154 583 120 571 c 1,14,-1
EndSplineSet
EndChar

StartChar: S
Encoding: 83 83 19
Width: 376
Flags: HMW
HStem: -12 78<44 140.5> 582 77<213.5 263 178.5 268>
VStem: 26 81<393 510.5 393 522.5> 272 80<123.5 233.5>
LayerCount: 2
Fore
SplineSet
257 115 m 128,-1,1
 272 138 272 138 272 172 c 128,-1,2
 272 206 272 206 246.5 229 c 128,-1,3
 221 252 221 252 185 268.5 c 128,-1,4
 149 285 149 285 113 305.5 c 128,-1,5
 77 326 77 326 51.5 366 c 128,-1,6
 26 406 26 406 26 464 c 0,7,8
 26 554 26 554 85 606.5 c 128,-1,9
 144 659 144 659 253 659 c 0,10,11
 279 659 279 659 317 654 c 1,12,-1
 334 573 l 1,13,14
 293 582 293 582 256 582 c 0,15,16
 107 582 107 582 107 467 c 0,17,18
 107 396.138888889 107 396.138888889 193 361.5 c 0,19,20
 229 347 229 347 265.5 330.5 c 128,-1,21
 302 314 302 314 327 279 c 128,-1,22
 352 244 352 244 352 192 c 128,-1,23
 352 140 352 140 333.5 103 c 128,-1,24
 315 66 315 66 287 44.5 c 128,-1,25
 259 23 259 23 216.5 10 c 0,26,27
 144.576923077 -12 144.576923077 -12 44 -12 c 1,28,-1
 26 72 l 1,29,30
 62 66 62 66 100 66 c 128,-1,31
 138 66 138 66 162 69 c 128,-1,32
 186 72 186 72 214 82 c 128,-1,0
 242 92 242 92 257 115 c 128,-1,1
EndSplineSet
EndChar

StartChar: T
Encoding: 84 84 20
Width: 459
Flags: HMW
HStem: 0 21G<278 278> 566 79 627 20G<12 12>
VStem: 183 91
LayerCount: 2
Fore
SplineSet
12 647 m 1,0,-1
 447 643 l 1,1,-1
 439 568 l 1,2,-1
 270 567 l 1,3,-1
 278 0 l 1,4,-1
 182 1 l 1,5,-1
 184 567 l 1,6,-1
 14 566 l 1,7,-1
 12 647 l 1,0,-1
EndSplineSet
EndChar

StartChar: U
Encoding: 85 85 21
Width: 524
Flags: HMW
HStem: -6 86<201.5 301.5 201.5 342.5> 637 20G<475 475>
VStem: 40 90<438 502.5 362.5 641> 393 91<295 435.5 286 442>
LayerCount: 2
Fore
SplineSet
475 657 m 1,0,-1
 484 386 l 1,1,2
 484 165.264150943 484 165.264150943 415.5 73.5 c 0,3,4
 389 38 389 38 343.5 16 c 128,-1,5
 298 -6 298 -6 245.5 -6 c 128,-1,6
 193 -6 193 -6 160 10 c 128,-1,7
 127 26 127 26 106 59 c 128,-1,8
 85 92 85 92 71 129.5 c 128,-1,9
 57 167 57 167 50.5 222 c 0,10,11
 40 310.846153846 40 310.846153846 40 438 c 2,12,-1
 40 641 l 1,13,-1
 132 652 l 1,14,15
 130 534 130 534 130 458 c 128,-1,16
 130 382 130 382 134.5 317 c 128,-1,17
 139 252 139 252 152 194.5 c 0,18,19
 177.886956522 80 177.886956522 80 255 80 c 0,20,21
 325 80 325 80 359 159.5 c 128,-1,22
 393 239 393 239 393 408 c 0,23,24
 393 508 393 508 382 649 c 1,25,-1
 475 657 l 1,0,-1
EndSplineSet
EndChar

StartChar: V
Encoding: 86 86 22
Width: 539
Flags: HMW
HStem: -5 21G<253 253> 634 20G<115 115 427 427>
LayerCount: 2
Fore
SplineSet
253 -5 m 1,0,-1
 20 636 l 1,1,-1
 115 654 l 1,2,-1
 284 141 l 1,3,-1
 427 654 l 1,4,-1
 521 649 l 1,5,-1
 319 -3 l 1,6,-1
 253 -5 l 1,0,-1
EndSplineSet
EndChar

StartChar: W
Encoding: 87 87 23
Width: 812
Flags: HMW
HStem: -5 21G<289 289 617 617> 639 20G<694 694>
LayerCount: 2
Fore
SplineSet
454 501 m 1,0,-1
 577 135 l 1,1,-1
 694 659 l 1,2,-1
 792 640 l 1,3,-1
 617 -5 l 1,4,-1
 542 -3 l 1,5,-1
 398 413 l 1,6,-1
 289 -5 l 1,7,-1
 201 -3 l 1,8,-1
 12 649 l 1,9,-1
 115 654 l 1,10,-1
 247 135 l 1,11,-1
 352 510 l 1,12,-1
 454 501 l 1,0,-1
EndSplineSet
EndChar

StartChar: X
Encoding: 88 88 24
Width: 567
Flags: HMW
HStem: -18 21G<122 122> 643 20G<452 452>
LayerCount: 2
Fore
SplineSet
31 622 m 1,0,-1
 119 656 l 1,1,-1
 283 384 l 1,2,-1
 293 384 l 1,3,-1
 452 663 l 1,4,-1
 534 622 l 1,5,-1
 340 321 l 1,6,-1
 554 15 l 1,7,-1
 469 -17 l 1,8,-1
 284 247 l 1,9,-1
 277 248 l 1,10,-1
 122 -18 l 1,11,-1
 40 15 l 1,12,-1
 227 327 l 1,13,-1
 31 622 l 1,0,-1
EndSplineSet
EndChar

StartChar: Y
Encoding: 89 89 25
Width: 563
Flags: HMW
HStem: 0 21G<247 350 247 247> 650 20G<469 469>
VStem: 251 93
LayerCount: 2
Fore
SplineSet
339 266 m 1,0,-1
 350 0 l 1,1,-1
 247 0 l 1,2,-1
 256 266 l 1,3,-1
 17 609 l 1,4,-1
 91 663 l 1,5,-1
 304 343 l 1,6,-1
 469 670 l 1,7,-1
 546 635 l 1,8,-1
 339 266 l 1,0,-1
EndSplineSet
EndChar

StartChar: Z
Encoding: 90 90 26
Width: 498
Flags: HMW
HStem: -7 21G<34 34> -4 88 566 78<353 353>
LayerCount: 2
Fore
SplineSet
146 80 m 1,0,-1
 468 89 l 1,1,-1
 464 -1 l 1,2,-1
 34 -7 l 1,3,-1
 30 54 l 1,4,-1
 353 566 l 1,5,6
 190 564 190 564 55 555 c 1,7,-1
 56 644 l 1,8,-1
 463 644 l 1,9,-1
 463 583 l 1,10,-1
 146 80 l 1,0,-1
EndSplineSet
EndChar

StartChar: Eth
Encoding: 208 208 27
Width: 573
Flags: HMW
HStem: -1 68<216 252 183 323> 282 74 583 64<178 263.5>
VStem: 89 90 450 93<226.5 422>
LayerCount: 2
Fore
SplineSet
3 280 m 1,0,-1
 15 356 l 1,1,2
 63 354 63 354 92 354 c 1,3,-1
 87 645 l 1,4,5
 104 647 104 647 194 647 c 128,-1,6
 284 647 284 647 341 631 c 128,-1,7
 398 615 398 615 445 580 c 0,8,9
 543 507.021276596 543 507.021276596 543 332 c 0,10,11
 543 176 543 176 457.5 87.5 c 128,-1,12
 372 -1 372 -1 228 -1 c 0,13,14
 138 -1 138 -1 99 5 c 1,15,-1
 94 282 l 1,16,-1
 3 280 l 1,0,-1
263 279 m 2,17,-1
 181 281 l 1,18,-1
 183 67 l 1,19,20
 293.545454545 67 293.545454545 67 368 119.5 c 0,21,22
 450 177.320512821 450 177.320512821 450 321.66025641 c 128,-1,23
 450 466 450 466 382 524.5 c 128,-1,24
 314 583 314 583 178 583 c 1,25,-1
 180 354 l 1,26,-1
 294 356 l 1,27,28
 267 279 267 279 263 279 c 2,17,-1
EndSplineSet
EndChar

StartChar: Thorn
Encoding: 222 222 28
Width: 432
Flags: HMW
HStem: 0 21G<58 58> 478 71<186.5 200.5> 639 20G<150 150>
VStem: 55 89 330 83<272 381.5>
LayerCount: 2
Fore
SplineSet
171 111 m 2,0,-1
 139 111 l 1,1,-1
 139 3 l 1,2,-1
 58 0 l 1,3,-1
 52 654 l 1,4,-1
 150 659 l 1,5,-1
 148 544 l 1,6,7
 175 549 175 549 194 549 c 0,8,9
 296 549 296 549 354.5 485 c 128,-1,10
 413 421 413 421 413 331.5 c 128,-1,11
 413 242 413 242 341.5 176.5 c 128,-1,12
 270 111 270 111 171 111 c 2,0,-1
314 253.5 m 0,13,14
 330 282 330 282 330 323 c 128,-1,15
 330 364 330 364 314.5 396 c 128,-1,16
 299 428 299 428 273.5 445 c 0,17,18
 224 478 224 478 167 478 c 0,19,20
 154 478 154 478 147 477 c 1,21,-1
 142 178 l 1,22,23
 279.533174224 192.105966587 279.533174224 192.105966587 314 253.5 c 0,13,14
EndSplineSet
EndChar

StartChar: AE
Encoding: 198 198 29
Width: 714
Flags: HMW
HStem: -12 21G<67 67> -2 80 565 81 632 20G<673 673>
VStem: 376 86
LayerCount: 2
Fore
SplineSet
383 3 m 1,0,-1
 380 208 l 1,1,-1
 171 183 l 1,2,-1
 67 -12 l 1,3,-1
 -12 11 l 1,4,-1
 340 640 l 1,5,-1
 673 652 l 1,6,-1
 677 566 l 1,7,-1
 459 565 l 1,8,-1
 465 294 l 1,9,-1
 627 314 l 1,10,-1
 629 241 l 1,11,-1
 464 223 l 1,12,-1
 466 79 l 1,13,-1
 684 77 l 1,14,-1
 684 -8 l 1,15,-1
 383 3 l 1,0,-1
373 561 m 1,16,-1
 207 256 l 1,17,-1
 379 276 l 1,18,-1
 373 561 l 1,16,-1
EndSplineSet
EndChar

StartChar: OE
Encoding: 338 338 30
Width: 763
Flags: HMW
HStem: -9 78 293 84 567 81 636 20G<724 724>
VStem: 36 88<249 404.5 249 431.5> 425 92<253 295 82 424.5>
LayerCount: 2
Fore
SplineSet
421 640 m 1,0,-1
 724 656 l 1,1,-1
 728 567 l 1,2,-1
 510 568 l 1,3,-1
 514 376 l 1,4,-1
 689 379 l 1,5,-1
 688 291 l 1,6,-1
 517 295 l 1,7,-1
 517 82 l 1,8,-1
 733 88 l 1,9,-1
 733 -3 l 1,10,-1
 433 1 l 1,11,-1
 432 60 l 1,12,13
 372 -8 372 -8 277 -9 c 0,14,15
 200 -9 200 -9 143.5 41 c 0,16,17
 36 136.132743363 36 136.132743363 36 327 c 0,18,19
 36 475 36 475 108 561.5 c 128,-1,20
 180 648 180 648 270 648 c 128,-1,21
 360 648 360 648 422 590 c 1,22,-1
 421 640 l 1,0,-1
166 505 m 128,-1,24
 124 437 124 437 124 325 c 128,-1,25
 124 213 124 213 169.5 141 c 128,-1,26
 215 69 215 69 281 69 c 0,27,28
 425 69 425 69 425 354 c 0,29,30
 425 457 425 457 379 515 c 128,-1,31
 333 573 333 573 262 573 c 0,32,23
 208 573 208 573 166 505 c 128,-1,24
EndSplineSet
EndChar

StartChar: Agrave
Encoding: 192 192 31
Width: 472
Flags: HMW
HStem: -18 21G<374 374> 173 61 842 20G<176 176>
LayerCount: 2
Fore
SplineSet
319 171 m 1,0,-1
 136 175 l 1,1,-1
 95 -10 l 1,2,-1
 10 7 l 1,3,-1
 173 642 l 1,4,-1
 252 648 l 1,5,-1
 460 1 l 1,6,-1
 374 -18 l 1,7,-1
 319 171 l 1,0,-1
150 236 m 1,8,-1
 301 232 l 1,9,-1
 215 528 l 1,10,-1
 150 236 l 1,8,-1
176 862 m 1,11,-1
 277 720 l 1,12,-1
 222 685 l 1,13,-1
 94 827 l 1,14,-1
 176 862 l 1,11,-1
EndSplineSet
EndChar

StartChar: Acircumflex
Encoding: 194 194 32
Width: 472
Flags: HMW
HStem: -18 21G<374 374> 173 61 842 20G<211 233 233 233>
LayerCount: 2
Fore
SplineSet
319 171 m 1,0,-1
 136 175 l 1,1,-1
 95 -10 l 1,2,-1
 10 7 l 1,3,-1
 173 642 l 1,4,-1
 252 648 l 1,5,-1
 460 1 l 1,6,-1
 374 -18 l 1,7,-1
 319 171 l 1,0,-1
281 685 m 1,8,-1
 222 789 l 1,9,-1
 162 685 l 1,10,-1
 80 720 l 1,11,-1
 211 862 l 1,12,-1
 233 862 l 1,13,-1
 363 720 l 1,14,-1
 281 685 l 1,8,-1
150 236 m 1,15,-1
 301 232 l 1,16,-1
 215 528 l 1,17,-1
 150 236 l 1,15,-1
EndSplineSet
EndChar

StartChar: Aacute
Encoding: 193 193 33
Width: 472
Flags: HMW
HStem: -18 21G<374 374> 173 61 843 20G<261 261>
LayerCount: 2
Fore
SplineSet
319 171 m 1,0,-1
 136 175 l 1,1,-1
 95 -10 l 1,2,-1
 10 7 l 1,3,-1
 173 642 l 1,4,-1
 252 648 l 1,5,-1
 460 1 l 1,6,-1
 374 -18 l 1,7,-1
 319 171 l 1,0,-1
150 236 m 1,8,-1
 301 232 l 1,9,-1
 215 528 l 1,10,-1
 150 236 l 1,8,-1
160 721 m 1,11,-1
 261 863 l 1,12,-1
 343 828 l 1,13,-1
 215 686 l 1,14,-1
 160 721 l 1,11,-1
EndSplineSet
EndChar

StartChar: Adieresis
Encoding: 196 196 34
Width: 472
Flags: HMW
HStem: -18 21G<374 374> 173 61 703 110<124 138 297 311.5>
VStem: 82 98<748.5 773.5> 253 98<748.5 773.5>
LayerCount: 2
Fore
SplineSet
319 171 m 1,0,-1
 136 175 l 1,1,-1
 95 -10 l 1,2,-1
 10 7 l 1,3,-1
 173 642 l 1,4,-1
 252 648 l 1,5,-1
 460 1 l 1,6,-1
 374 -18 l 1,7,-1
 319 171 l 1,0,-1
150 236 m 1,8,-1
 301 232 l 1,9,-1
 215 528 l 1,10,-1
 150 236 l 1,8,-1
265 718 m 128,-1,12
 253 733 253 733 253 757.5 c 128,-1,13
 253 782 253 782 270.5 797.5 c 128,-1,14
 288 813 288 813 309 813 c 128,-1,15
 330 813 330 813 340.5 800 c 128,-1,16
 351 787 351 787 351 763 c 128,-1,17
 351 739 351 739 335.5 721 c 128,-1,18
 320 703 320 703 298.5 703 c 128,-1,11
 277 703 277 703 265 718 c 128,-1,12
93.5 717.5 m 128,-1,20
 82 732 82 732 82 757.5 c 128,-1,21
 82 783 82 783 98 798 c 128,-1,22
 114 813 114 813 136.5 813 c 0,23,24
 180 813 180 813 180 767 c 0,25,26
 180 740 180 740 163 721.5 c 128,-1,27
 146 703 146 703 125.5 703 c 128,-1,19
 105 703 105 703 93.5 717.5 c 128,-1,20
EndSplineSet
EndChar

StartChar: Atilde
Encoding: 195 195 35
Width: 472
Flags: HMW
HStem: -18 21G<374 374> 173 61 684 77<276.5 283 257 315.5> 729 32 729 66<151.5 176.5 136 182.5> 782 20G<323 323>
LayerCount: 2
Fore
SplineSet
319 171 m 1,0,-1
 136 175 l 1,1,-1
 95 -10 l 1,2,-1
 10 7 l 1,3,-1
 173 642 l 1,4,-1
 252 648 l 1,5,-1
 460 1 l 1,6,-1
 374 -18 l 1,7,-1
 319 171 l 1,0,-1
108 683 m 1,8,-1
 42 713 l 1,9,10
 92 795 92 795 153 795 c 0,11,12
 178 795 178 795 218.5 778 c 128,-1,13
 259 761 259 761 274 761 c 0,14,15
 304 761 304 761 323 802 c 1,16,-1
 386 767 l 1,17,18
 353 684 353 684 300 684 c 0,19,20
 276 684 276 684 229 706.5 c 128,-1,21
 182 729 182 729 162 729 c 0,22,23
 127 729 127 729 108 683 c 1,8,-1
150 236 m 1,24,-1
 301 232 l 1,25,-1
 215 528 l 1,26,-1
 150 236 l 1,24,-1
EndSplineSet
EndChar

StartChar: Aring
Encoding: 197 197 36
Width: 472
Flags: HMW
HStem: -18 21G<374 374> 173 61 780 55<203.5 236.5>
VStem: 117 55<722 745 722 756> 256 56<723.5 742>
LayerCount: 2
Fore
SplineSet
144.5 803.5 m 128,-1,1
 172 835 172 835 219 835 c 128,-1,2
 266 835 266 835 289 808.5 c 128,-1,3
 312 782 312 782 312 746.5 c 128,-1,4
 312 711 312 711 297 682.5 c 128,-1,5
 282 654 282 654 254 642 c 1,6,-1
 460 1 l 1,7,-1
 374 -18 l 1,8,-1
 319 171 l 1,9,-1
 136 175 l 1,10,-1
 95 -10 l 1,11,-1
 10 7 l 1,12,-1
 173 642 l 1,13,14
 147 653 147 653 132 677 c 128,-1,15
 117 701 117 701 117 736.5 c 128,-1,0
 117 772 117 772 144.5 803.5 c 128,-1,1
150 236 m 1,16,-1
 301 232 l 1,17,-1
 215 528 l 1,18,-1
 150 236 l 1,16,-1
212 688 m 0,19,20
 256 688 256 688 256 734 c 128,-1,21
 256 780 256 780 220 780 c 0,22,23
 197 780 197 780 184.5 766.5 c 128,-1,24
 172 753 172 753 172 734 c 128,-1,25
 172 715 172 715 183 701.5 c 128,-1,26
 194 688 194 688 212 688 c 0,19,20
EndSplineSet
EndChar

StartChar: Ccedilla
Encoding: 199 199 37
Width: 482
Flags: HMW
HStem: -234 51<243 269 243 285> -91 38<248.5 317.5> -13 81<293 293> 570 81<224 303>
VStem: 30 89<269 389 269 405.5> 307 77<-153.5 -117>
LayerCount: 2
Fore
SplineSet
223 -86 m 1,0,-1
 235 -10 l 1,1,2
 30 19 30 19 30 319 c 0,3,4
 30 456.915254237 30 456.915254237 87.5 549.5 c 0,5,6
 117 597 117 597 169.5 624 c 128,-1,7
 222 651 222 651 293 651 c 0,8,9
 395 651 395 651 446 586 c 1,10,-1
 378 524 l 1,11,12
 346 570 346 570 285 570 c 0,13,14
 241 570 241 570 208 548.5 c 128,-1,15
 175 527 175 527 156 492 c 0,16,17
 119 423.842105263 119 423.842105263 119 322.921052632 c 128,-1,18
 119 222 119 222 161 145 c 128,-1,19
 203 68 203 68 293 68 c 0,20,21
 361 68 361 68 390 131 c 1,22,-1
 462 108 l 1,23,24
 429.411167513 24.717428088 429.411167513 24.717428088 362 0 c 0,25,26
 332 -11 332 -11 293 -13 c 1,27,-1
 284 -54 l 1,28,29
 288 -53 288 -53 296 -53 c 0,30,31
 330 -53 330 -53 357 -76.5 c 128,-1,32
 384 -100 384 -100 384 -137 c 0,33,34
 384 -188 384 -188 346 -211 c 128,-1,35
 308 -234 308 -234 259 -234 c 128,-1,36
 210 -234 210 -234 172 -219 c 1,37,-1
 193 -159 l 1,38,39
 215 -183 215 -183 255 -183 c 0,40,41
 307 -183 307 -183 307 -136 c 0,42,43
 307 -91 307 -91 252 -91 c 0,44,45
 241.5 -91 241.5 -91 231 -94 c 1,46,-1
 223 -86 l 1,0,-1
EndSplineSet
EndChar

StartChar: Egrave
Encoding: 200 200 38
Width: 384
Flags: HMW
HStem: -3 21G<354 354> -1 86 293 84 567 81 842 20G<127 127>
VStem: 48 90
LayerCount: 2
Fore
SplineSet
42 640 m 1,0,-1
 345 656 l 1,1,-1
 349 567 l 1,2,-1
 131 568 l 1,3,-1
 135 376 l 1,4,-1
 310 379 l 1,5,-1
 309 291 l 1,6,-1
 138 295 l 1,7,-1
 138 82 l 1,8,-1
 354 88 l 1,9,-1
 354 -3 l 1,10,-1
 54 1 l 1,11,-1
 42 640 l 1,0,-1
127 862 m 1,12,-1
 228 720 l 1,13,-1
 173 685 l 1,14,-1
 45 827 l 1,15,-1
 127 862 l 1,12,-1
EndSplineSet
EndChar

StartChar: Ecircumflex
Encoding: 202 202 39
Width: 384
Flags: HMW
HStem: -3 21G<354 354> -1 86 293 84 567 81 842 20G<200 222 222 222>
VStem: 48 90
LayerCount: 2
Fore
SplineSet
42 640 m 1,0,-1
 345 656 l 1,1,-1
 349 567 l 1,2,-1
 131 568 l 1,3,-1
 135 376 l 1,4,-1
 310 379 l 1,5,-1
 309 291 l 1,6,-1
 138 295 l 1,7,-1
 138 82 l 1,8,-1
 354 88 l 1,9,-1
 354 -3 l 1,10,-1
 54 1 l 1,11,-1
 42 640 l 1,0,-1
270 685 m 1,12,-1
 211 789 l 1,13,-1
 151 685 l 1,14,-1
 69 720 l 1,15,-1
 200 862 l 1,16,-1
 222 862 l 1,17,-1
 352 720 l 1,18,-1
 270 685 l 1,12,-1
EndSplineSet
EndChar

StartChar: Eacute
Encoding: 201 201 40
Width: 384
Flags: HMW
HStem: -3 21G<354 354> -1 86 293 84 567 81 843 20G<249 249>
VStem: 48 90
LayerCount: 2
Fore
SplineSet
42 640 m 1,0,-1
 345 656 l 1,1,-1
 349 567 l 1,2,-1
 131 568 l 1,3,-1
 135 376 l 1,4,-1
 310 379 l 1,5,-1
 309 291 l 1,6,-1
 138 295 l 1,7,-1
 138 82 l 1,8,-1
 354 88 l 1,9,-1
 354 -3 l 1,10,-1
 54 1 l 1,11,-1
 42 640 l 1,0,-1
148 721 m 1,12,-1
 249 863 l 1,13,-1
 331 828 l 1,14,-1
 203 686 l 1,15,-1
 148 721 l 1,12,-1
EndSplineSet
EndChar

StartChar: Edieresis
Encoding: 203 203 41
Width: 384
Flags: HMW
HStem: -3 21G<354 354> -1 86 293 84 567 81 702 110<118 132 291 305.5>
VStem: 48 90 76 98<747.5 772.5> 247 107
LayerCount: 2
Fore
SplineSet
42 640 m 1,0,-1
 345 656 l 1,1,-1
 349 567 l 1,2,-1
 131 568 l 1,3,-1
 135 376 l 1,4,-1
 310 379 l 1,5,-1
 309 291 l 1,6,-1
 138 295 l 1,7,-1
 138 82 l 1,8,-1
 354 88 l 1,9,-1
 354 -3 l 1,10,-1
 54 1 l 1,11,-1
 42 640 l 1,0,-1
259 717 m 128,-1,13
 247 732 247 732 247 756.5 c 128,-1,14
 247 781 247 781 264.5 796.5 c 128,-1,15
 282 812 282 812 303 812 c 128,-1,16
 324 812 324 812 334.5 799 c 128,-1,17
 345 786 345 786 345 762 c 128,-1,18
 345 738 345 738 329.5 720 c 128,-1,19
 314 702 314 702 292.5 702 c 128,-1,12
 271 702 271 702 259 717 c 128,-1,13
87.5 716.5 m 128,-1,21
 76 731 76 731 76 756.5 c 128,-1,22
 76 782 76 782 92 797 c 128,-1,23
 108 812 108 812 130.5 812 c 0,24,25
 174 812 174 812 174 766 c 0,26,27
 174 739 174 739 157 720.5 c 128,-1,28
 140 702 140 702 119.5 702 c 128,-1,20
 99 702 99 702 87.5 716.5 c 128,-1,21
EndSplineSet
EndChar

StartChar: Igrave
Encoding: 204 204 42
Width: 208
Flags: HMW
HStem: 0 21G<63 63> 842 20G<50 50>
VStem: 60 89
LayerCount: 2
Fore
SplineSet
57 647 m 1,0,-1
 155 652 l 1,1,-1
 144 3 l 1,2,-1
 63 0 l 1,3,-1
 57 647 l 1,0,-1
50 862 m 1,4,-1
 151 720 l 1,5,-1
 96 685 l 1,6,-1
 -32 827 l 1,7,-1
 50 862 l 1,4,-1
EndSplineSet
EndChar

StartChar: Icircumflex
Encoding: 206 206 43
Width: 208
Flags: HMW
HStem: 0 21G<63 63> 842 20G<103 125 125 125>
VStem: 60 89
LayerCount: 2
Fore
SplineSet
57 647 m 1,0,-1
 155 652 l 1,1,-1
 144 3 l 1,2,-1
 63 0 l 1,3,-1
 57 647 l 1,0,-1
173 685 m 1,4,-1
 114 789 l 1,5,-1
 54 685 l 1,6,-1
 -28 720 l 1,7,-1
 103 862 l 1,8,-1
 125 862 l 1,9,-1
 255 720 l 1,10,-1
 173 685 l 1,4,-1
EndSplineSet
EndChar

StartChar: Iacute
Encoding: 205 205 44
Width: 208
Flags: HMW
HStem: 0 21G<63 63> 843 20G<147 147>
VStem: 60 89
LayerCount: 2
Fore
SplineSet
57 647 m 1,0,-1
 155 652 l 1,1,-1
 144 3 l 1,2,-1
 63 0 l 1,3,-1
 57 647 l 1,0,-1
46 721 m 1,4,-1
 147 863 l 1,5,-1
 229 828 l 1,6,-1
 101 686 l 1,7,-1
 46 721 l 1,4,-1
EndSplineSet
EndChar

StartChar: Idieresis
Encoding: 207 207 45
Width: 208
Flags: HMW
HStem: 0 21G<63 63> 702 110<21 35 194 208.5>
VStem: -21 98<747.5 772.5> 60 89 150 98<747.5 772.5>
LayerCount: 2
Fore
SplineSet
57 647 m 1,0,-1
 155 652 l 1,1,-1
 144 3 l 1,2,-1
 63 0 l 1,3,-1
 57 647 l 1,0,-1
162 717 m 128,-1,5
 150 732 150 732 150 756.5 c 128,-1,6
 150 781 150 781 167.5 796.5 c 128,-1,7
 185 812 185 812 206 812 c 128,-1,8
 227 812 227 812 237.5 799 c 128,-1,9
 248 786 248 786 248 762 c 128,-1,10
 248 738 248 738 232.5 720 c 128,-1,11
 217 702 217 702 195.5 702 c 128,-1,4
 174 702 174 702 162 717 c 128,-1,5
-9.5 716.5 m 128,-1,13
 -21 731 -21 731 -21 756.5 c 128,-1,14
 -21 782 -21 782 -5 797 c 128,-1,15
 11 812 11 812 33.5 812 c 0,16,17
 77 812 77 812 77 766 c 0,18,19
 77 739 77 739 60 720.5 c 128,-1,20
 43 702 43 702 22.5 702 c 128,-1,12
 2 702 2 702 -9.5 716.5 c 128,-1,13
EndSplineSet
EndChar

StartChar: Itilde
Encoding: 296 296 46
Width: 208
Flags: HMW
HStem: 0 21G<63 63> 693 77<166.5 173 147 205.5> 738 32 738 66<41.5 66.5 26 72.5> 791 20G<213 213>
VStem: 60 89
LayerCount: 2
Fore
SplineSet
57 647 m 1,0,-1
 155 652 l 1,1,-1
 144 3 l 1,2,-1
 63 0 l 1,3,-1
 57 647 l 1,0,-1
-2 692 m 1,4,-1
 -68 722 l 1,5,6
 -18 804 -18 804 43 804 c 0,7,8
 68 804 68 804 108.5 787 c 128,-1,9
 149 770 149 770 164 770 c 0,10,11
 194 770 194 770 213 811 c 1,12,-1
 276 776 l 1,13,14
 243 693 243 693 190 693 c 0,15,16
 166 693 166 693 119 715.5 c 128,-1,17
 72 738 72 738 52 738 c 0,18,19
 17 738 17 738 -2 692 c 1,4,-1
EndSplineSet
EndChar

StartChar: IJ
Encoding: 306 306 47
Width: 682
Flags: HMW
HStem: -1 90<406 488 406 511> 635 20G<629 629>
VStem: 60 89 549 82<267.5 340>
LayerCount: 2
Fore
SplineSet
57 647 m 1,0,-1
 155 652 l 1,1,-1
 144 3 l 1,2,-1
 63 0 l 1,3,-1
 57 647 l 1,0,-1
549 297 m 1,4,-1
 539 648 l 1,5,-1
 629 655 l 1,6,7
 631 411 631 411 631 354 c 128,-1,8
 631 297 631 297 626.5 250.5 c 128,-1,9
 622 204 622 204 608.5 155 c 128,-1,10
 595 106 595 106 572.5 73.5 c 128,-1,11
 550 41 550 41 511.5 20 c 128,-1,12
 473 -1 473 -1 418.5 -1 c 128,-1,13
 364 -1 364 -1 319 24 c 128,-1,14
 274 49 274 49 218 100 c 1,15,-1
 267 175 l 1,16,17
 302 142 302 142 348.5 115.5 c 128,-1,18
 395 89 395 89 434 89 c 128,-1,19
 473 89 473 89 497 108 c 128,-1,20
 521 127 521 127 531.5 161 c 0,21,22
 549 217.666666667 549 217.666666667 549 297 c 1,4,-1
EndSplineSet
EndChar

StartChar: Jcircumflex
Encoding: 308 308 48
Width: 474
Flags: HMW
HStem: -1 90<198 280 198 303> 832 20G<356 378 378 378>
VStem: 341 82<267.5 340>
LayerCount: 2
Fore
SplineSet
341 297 m 1,0,-1
 331 648 l 1,1,-1
 421 655 l 1,2,3
 423 411 423 411 423 354 c 128,-1,4
 423 297 423 297 418.5 250.5 c 128,-1,5
 414 204 414 204 400.5 155 c 128,-1,6
 387 106 387 106 364.5 73.5 c 128,-1,7
 342 41 342 41 303.5 20 c 128,-1,8
 265 -1 265 -1 210.5 -1 c 128,-1,9
 156 -1 156 -1 111 24 c 128,-1,10
 66 49 66 49 10 100 c 1,11,-1
 59 175 l 1,12,13
 94 142 94 142 140.5 115.5 c 128,-1,14
 187 89 187 89 226 89 c 128,-1,15
 265 89 265 89 289 108 c 128,-1,16
 313 127 313 127 323.5 161 c 0,17,18
 341 217.666666667 341 217.666666667 341 297 c 1,0,-1
426 675 m 1,19,-1
 367 779 l 1,20,-1
 307 675 l 1,21,-1
 225 710 l 1,22,-1
 356 852 l 1,23,-1
 378 852 l 1,24,-1
 508 710 l 1,25,-1
 426 675 l 1,19,-1
EndSplineSet
EndChar

StartChar: Ldotaccent
Encoding: 319 319 49
Width: 447
Flags: HMW
HStem: -9 21G<421 421> -3 78 394 108<339 369> 634 20G<142 142>
VStem: 54 92 291 120<440.5 457.5>
LayerCount: 2
Fore
SplineSet
60 3 m 1,0,-1
 48 646 l 1,1,-1
 142 654 l 1,2,-1
 151 72 l 1,3,-1
 425 78 l 1,4,-1
 421 -9 l 1,5,-1
 60 3 l 1,0,-1
394.5 412 m 128,-1,7
 378 394 378 394 350 394 c 128,-1,8
 322 394 322 394 306.5 406.5 c 128,-1,9
 291 419 291 419 291 442.5 c 128,-1,10
 291 466 291 466 310 484 c 128,-1,11
 329 502 329 502 360 502 c 0,12,13
 411 502 411 502 411 457 c 0,14,6
 411 430 411 430 394.5 412 c 128,-1,7
EndSplineSet
EndChar

StartChar: Lslash
Encoding: 321 321 50
Width: 447
Flags: HMW
HStem: -9 21G<421 421> -3 78 634 20G<142 142>
VStem: -41 190
LayerCount: 2
Fore
SplineSet
-39 187 m 1,0,-1
 -44 264 l 1,1,-1
 54 335 l 1,2,-1
 48 646 l 1,3,-1
 142 654 l 1,4,-1
 146 402 l 1,5,-1
 264 489 l 1,6,-1
 267 417 l 1,7,-1
 147 327 l 1,8,-1
 151 72 l 1,9,-1
 425 78 l 1,10,-1
 421 -9 l 1,11,-1
 60 3 l 1,12,-1
 55 258 l 1,13,-1
 -39 187 l 1,0,-1
EndSplineSet
EndChar

StartChar: Nacute
Encoding: 323 323 51
Width: 528
Flags: HMW
HStem: -12 21G<460 460> 832 20G<273 273>
VStem: 58 84 382 86
LayerCount: 2
Fore
SplineSet
153 -10 m 1,0,-1
 65 -6 l 1,1,-1
 51 641 l 1,2,-1
 146 646 l 1,3,-1
 386 192 l 1,4,-1
 379 657 l 1,5,-1
 477 650 l 1,6,-1
 460 -12 l 1,7,-1
 399 -10 l 1,8,-1
 132 476 l 1,9,-1
 153 -10 l 1,0,-1
172 710 m 1,10,-1
 273 852 l 1,11,-1
 355 817 l 1,12,-1
 227 675 l 1,13,-1
 172 710 l 1,10,-1
EndSplineSet
EndChar

StartChar: Ntilde
Encoding: 209 209 52
Width: 527
Flags: HMW
HStem: -12 21G<460 460> 717 77<316.5 323 297 355.5> 762 32 762 66<191.5 216.5 176 222.5> 815 20G<363 363>
VStem: 58 84 382 86
LayerCount: 2
Fore
SplineSet
153 -10 m 1,0,-1
 65 -6 l 1,1,-1
 51 641 l 1,2,-1
 146 646 l 1,3,-1
 386 192 l 1,4,-1
 379 657 l 1,5,-1
 477 650 l 1,6,-1
 460 -12 l 1,7,-1
 399 -10 l 1,8,-1
 132 476 l 1,9,-1
 153 -10 l 1,0,-1
148 716 m 1,10,-1
 82 746 l 1,11,12
 132 828 132 828 193 828 c 0,13,14
 218 828 218 828 258.5 811 c 128,-1,15
 299 794 299 794 314 794 c 0,16,17
 344 794 344 794 363 835 c 1,18,-1
 426 800 l 1,19,20
 393 717 393 717 340 717 c 0,21,22
 316 717 316 717 269 739.5 c 128,-1,23
 222 762 222 762 202 762 c 0,24,25
 167 762 167 762 148 716 c 1,10,-1
EndSplineSet
EndChar

StartChar: Ograve
Encoding: 210 210 53
Width: 549
Flags: HMW
HStem: -9 78 573 75<228.5 307.5> 842 20G<227 227>
VStem: 36 88<249 404.5 249 431.5> 425 89<254 424.5>
LayerCount: 2
Fore
SplineSet
36 327 m 0,0,1
 36 475 36 475 108 561.5 c 128,-1,2
 180 648 180 648 276.5 648 c 128,-1,3
 373 648 373 648 443.5 568 c 128,-1,4
 514 488 514 488 514 340 c 0,5,6
 514 203.037735849 514 203.037735849 461.5 102 c 0,7,8
 435 51 435 51 387.5 21 c 128,-1,9
 340 -9 340 -9 270 -9 c 128,-1,10
 200 -9 200 -9 143.5 41 c 0,11,12
 36 136.132743363 36 136.132743363 36 327 c 0,0,1
166 505 m 128,-1,14
 124 437 124 437 124 325 c 128,-1,15
 124 213 124 213 169.5 141 c 128,-1,16
 215 69 215 69 281 69 c 0,17,18
 425 69 425 69 425 354 c 0,19,20
 425 457 425 457 379 515 c 128,-1,21
 333 573 333 573 262 573 c 0,22,13
 208 573 208 573 166 505 c 128,-1,14
227 862 m 1,23,-1
 328 720 l 1,24,-1
 273 685 l 1,25,-1
 145 827 l 1,26,-1
 227 862 l 1,23,-1
EndSplineSet
EndChar

StartChar: Ocircumflex
Encoding: 212 212 54
Width: 549
Flags: HMW
HStem: -9 78 573 75<228.5 307.5> 842 20G<268 290 290 290>
VStem: 36 88<249 404.5 249 431.5> 425 89<254 424.5>
LayerCount: 2
Fore
SplineSet
36 327 m 0,0,1
 36 475 36 475 108 561.5 c 128,-1,2
 180 648 180 648 276.5 648 c 128,-1,3
 373 648 373 648 443.5 568 c 128,-1,4
 514 488 514 488 514 340 c 0,5,6
 514 203.037735849 514 203.037735849 461.5 102 c 0,7,8
 435 51 435 51 387.5 21 c 128,-1,9
 340 -9 340 -9 270 -9 c 128,-1,10
 200 -9 200 -9 143.5 41 c 0,11,12
 36 136.132743363 36 136.132743363 36 327 c 0,0,1
166 505 m 128,-1,14
 124 437 124 437 124 325 c 128,-1,15
 124 213 124 213 169.5 141 c 128,-1,16
 215 69 215 69 281 69 c 0,17,18
 425 69 425 69 425 354 c 0,19,20
 425 457 425 457 379 515 c 128,-1,21
 333 573 333 573 262 573 c 0,22,13
 208 573 208 573 166 505 c 128,-1,14
338 685 m 1,23,-1
 279 789 l 1,24,-1
 219 685 l 1,25,-1
 137 720 l 1,26,-1
 268 862 l 1,27,-1
 290 862 l 1,28,-1
 420 720 l 1,29,-1
 338 685 l 1,23,-1
EndSplineSet
EndChar

StartChar: Oacute
Encoding: 211 211 55
Width: 549
Flags: HMW
HStem: -9 78 573 75<228.5 307.5> 849 20G<308 308>
VStem: 36 88<249 404.5 249 431.5> 425 89<254 424.5>
LayerCount: 2
Fore
SplineSet
36 327 m 0,0,1
 36 475 36 475 108 561.5 c 128,-1,2
 180 648 180 648 276.5 648 c 128,-1,3
 373 648 373 648 443.5 568 c 128,-1,4
 514 488 514 488 514 340 c 0,5,6
 514 203.037735849 514 203.037735849 461.5 102 c 0,7,8
 435 51 435 51 387.5 21 c 128,-1,9
 340 -9 340 -9 270 -9 c 128,-1,10
 200 -9 200 -9 143.5 41 c 0,11,12
 36 136.132743363 36 136.132743363 36 327 c 0,0,1
166 505 m 128,-1,14
 124 437 124 437 124 325 c 128,-1,15
 124 213 124 213 169.5 141 c 128,-1,16
 215 69 215 69 281 69 c 0,17,18
 425 69 425 69 425 354 c 0,19,20
 425 457 425 457 379 515 c 128,-1,21
 333 573 333 573 262 573 c 0,22,13
 208 573 208 573 166 505 c 128,-1,14
207 727 m 1,23,-1
 308 869 l 1,24,-1
 390 834 l 1,25,-1
 262 692 l 1,26,-1
 207 727 l 1,23,-1
EndSplineSet
EndChar

StartChar: Odieresis
Encoding: 214 214 56
Width: 549
Flags: HMW
HStem: -9 78 573 75<228.5 307.5> 698 110<187 201 360 374.5>
VStem: 36 88<249 404.5 249 431.5> 145 98<743.5 768.5> 316 98<743.5 768.5> 425 89<254 424.5>
LayerCount: 2
Fore
SplineSet
36 327 m 0,0,1
 36 475 36 475 108 561.5 c 128,-1,2
 180 648 180 648 276.5 648 c 128,-1,3
 373 648 373 648 443.5 568 c 128,-1,4
 514 488 514 488 514 340 c 0,5,6
 514 203.037735849 514 203.037735849 461.5 102 c 0,7,8
 435 51 435 51 387.5 21 c 128,-1,9
 340 -9 340 -9 270 -9 c 128,-1,10
 200 -9 200 -9 143.5 41 c 0,11,12
 36 136.132743363 36 136.132743363 36 327 c 0,0,1
166 505 m 128,-1,14
 124 437 124 437 124 325 c 128,-1,15
 124 213 124 213 169.5 141 c 128,-1,16
 215 69 215 69 281 69 c 0,17,18
 425 69 425 69 425 354 c 0,19,20
 425 457 425 457 379 515 c 128,-1,21
 333 573 333 573 262 573 c 0,22,13
 208 573 208 573 166 505 c 128,-1,14
328 713 m 128,-1,24
 316 728 316 728 316 752.5 c 128,-1,25
 316 777 316 777 333.5 792.5 c 128,-1,26
 351 808 351 808 372 808 c 128,-1,27
 393 808 393 808 403.5 795 c 128,-1,28
 414 782 414 782 414 758 c 128,-1,29
 414 734 414 734 398.5 716 c 128,-1,30
 383 698 383 698 361.5 698 c 128,-1,23
 340 698 340 698 328 713 c 128,-1,24
156.5 712.5 m 128,-1,32
 145 727 145 727 145 752.5 c 128,-1,33
 145 778 145 778 161 793 c 128,-1,34
 177 808 177 808 199.5 808 c 0,35,36
 243 808 243 808 243 762 c 0,37,38
 243 735 243 735 226 716.5 c 128,-1,39
 209 698 209 698 188.5 698 c 128,-1,31
 168 698 168 698 156.5 712.5 c 128,-1,32
EndSplineSet
EndChar

StartChar: Otilde
Encoding: 213 213 57
Width: 549
Flags: HMW
HStem: -9 78 573 75<228.5 307.5> 704 77<341.5 348 322 380.5> 749 32 749 66<216.5 241.5 201 247.5> 802 20G<388 388>
VStem: 36 88<249 404.5 249 431.5> 425 89<254 424.5>
LayerCount: 2
Fore
SplineSet
36 327 m 0,0,1
 36 475 36 475 108 561.5 c 128,-1,2
 180 648 180 648 276.5 648 c 128,-1,3
 373 648 373 648 443.5 568 c 128,-1,4
 514 488 514 488 514 340 c 0,5,6
 514 203.037735849 514 203.037735849 461.5 102 c 0,7,8
 435 51 435 51 387.5 21 c 128,-1,9
 340 -9 340 -9 270 -9 c 128,-1,10
 200 -9 200 -9 143.5 41 c 0,11,12
 36 136.132743363 36 136.132743363 36 327 c 0,0,1
166 505 m 128,-1,14
 124 437 124 437 124 325 c 128,-1,15
 124 213 124 213 169.5 141 c 128,-1,16
 215 69 215 69 281 69 c 0,17,18
 425 69 425 69 425 354 c 0,19,20
 425 457 425 457 379 515 c 128,-1,21
 333 573 333 573 262 573 c 0,22,13
 208 573 208 573 166 505 c 128,-1,14
173 703 m 1,23,-1
 107 733 l 1,24,25
 157 815 157 815 218 815 c 0,26,27
 243 815 243 815 283.5 798 c 128,-1,28
 324 781 324 781 339 781 c 0,29,30
 369 781 369 781 388 822 c 1,31,-1
 451 787 l 1,32,33
 418 704 418 704 365 704 c 0,34,35
 341 704 341 704 294 726.5 c 128,-1,36
 247 749 247 749 227 749 c 0,37,38
 192 749 192 749 173 703 c 1,23,-1
EndSplineSet
EndChar

StartChar: Oslash
Encoding: 216 216 58
Width: 548
Flags: HMW
HStem: -80 21G<121 121> -9 78<266 276> 573 75<227.5 274> 680 20G<401 401>
VStem: 35 88<295 404.5 295 431.5> 432 81<271 366.5>
LayerCount: 2
Fore
SplineSet
48 -65 m 1,0,-1
 111 72 l 1,1,2
 35 169 35 169 35 322 c 128,-1,3
 35 475 35 475 107 561.5 c 128,-1,4
 179 648 179 648 275 648 c 0,5,6
 324 648 324 648 367 627 c 1,7,-1
 401 700 l 1,8,-1
 476 690 l 1,9,-1
 427 584 l 1,10,11
 513 500 513 500 513 340 c 0,12,13
 513 203.037735849 513 203.037735849 460.5 102 c 0,14,15
 434 51 434 51 386.5 21 c 128,-1,16
 339 -9 339 -9 276.5 -9 c 128,-1,17
 214 -9 214 -9 167 21 c 1,18,-1
 121 -80 l 1,19,-1
 48 -65 l 1,0,-1
203 99 m 1,20,21
 237 69 237 69 281 69 c 128,-1,22
 325 69 325 69 361 109 c 128,-1,23
 397 149 397 149 414.5 209 c 128,-1,24
 432 269 432 269 432 335 c 0,25,26
 432 440 432 440 388 499 c 1,27,-1
 203 99 l 1,20,21
165 505 m 128,-1,29
 123 437 123 437 123 335.5 c 128,-1,30
 123 234 123 234 155 167 c 1,31,-1
 333 554 l 1,32,33
 300 573 300 573 261 573 c 0,34,28
 207 573 207 573 165 505 c 128,-1,29
EndSplineSet
EndChar

StartChar: Racute
Encoding: 340 340 59
Width: 449
Flags: HMW
HStem: -14 21G<348 348> 257 75<165.5 223> 583 68<191 238> 832 20G<234 234>
VStem: 47 73 47 88 343 79<421 495.5>
LayerCount: 2
Fore
SplineSet
178 651 m 0,0,1
 300 651 300 651 361 595 c 128,-1,2
 422 539 422 539 422 460 c 0,3,4
 422 341 422 341 301 277 c 1,5,-1
 437 18 l 1,6,-1
 348 -14 l 1,7,-1
 223 257 l 1,8,-1
 132 258 l 1,9,-1
 139 3 l 1,10,-1
 53 -3 l 1,11,-1
 42 636 l 1,12,13
 149 651 149 651 178 651 c 0,0,1
120 571 m 1,14,-1
 120 334 l 1,15,16
 140 332 140 332 171 332 c 0,17,18
 231 332 231 332 287 365.5 c 128,-1,19
 343 399 343 399 343 456 c 0,20,21
 343 513 343 513 300.5 548 c 128,-1,22
 258 583 258 583 206 583 c 0,23,24
 154 583 154 583 120 571 c 1,14,-1
133 710 m 1,25,-1
 234 852 l 1,26,-1
 316 817 l 1,27,-1
 188 675 l 1,28,-1
 133 710 l 1,25,-1
EndSplineSet
EndChar

StartChar: Rcaron
Encoding: 344 344 60
Width: 449
Flags: HMW
HStem: -14 21G<348 348> 257 75<165.5 223> 583 68<191 238> 832 20G<155 155 274 274>
VStem: 47 73 47 88 343 79<421 495.5>
LayerCount: 2
Fore
SplineSet
178 651 m 0,0,1
 300 651 300 651 361 595 c 128,-1,2
 422 539 422 539 422 460 c 0,3,4
 422 341 422 341 301 277 c 1,5,-1
 437 18 l 1,6,-1
 348 -14 l 1,7,-1
 223 257 l 1,8,-1
 132 258 l 1,9,-1
 139 3 l 1,10,-1
 53 -3 l 1,11,-1
 42 636 l 1,12,13
 149 651 149 651 178 651 c 0,0,1
120 571 m 1,14,-1
 120 334 l 1,15,16
 140 332 140 332 171 332 c 0,17,18
 231 332 231 332 287 365.5 c 128,-1,19
 343 399 343 399 343 456 c 0,20,21
 343 513 343 513 300.5 548 c 128,-1,22
 258 583 258 583 206 583 c 0,23,24
 154 583 154 583 120 571 c 1,14,-1
155 852 m 1,25,-1
 214 748 l 1,26,-1
 274 852 l 1,27,-1
 356 817 l 1,28,-1
 225 675 l 1,29,-1
 203 675 l 1,30,-1
 73 817 l 1,31,-1
 155 852 l 1,25,-1
EndSplineSet
EndChar

StartChar: Rcommaaccent
Encoding: 342 342 61
Width: 449
Flags: HMW
HStem: -251 21G<217 217> -137 104<188 251.5> 257 75<165.5 223> 583 68<191 238>
VStem: 47 73 47 88 163 125<-105 -79> 343 79<421 495.5>
LayerCount: 2
Fore
SplineSet
178 651 m 0,0,1
 300 651 300 651 361 595 c 128,-1,2
 422 539 422 539 422 460 c 0,3,4
 422 341 422 341 301 277 c 1,5,-1
 437 18 l 1,6,-1
 348 -14 l 1,7,-1
 223 257 l 1,8,-1
 132 258 l 1,9,-1
 139 3 l 1,10,-1
 53 -3 l 1,11,-1
 42 636 l 1,12,13
 149 651 149 651 178 651 c 0,0,1
120 571 m 1,14,-1
 120 334 l 1,15,16
 140 332 140 332 171 332 c 0,17,18
 231 332 231 332 287 365.5 c 128,-1,19
 343 399 343 399 343 456 c 0,20,21
 343 513 343 513 300.5 548 c 128,-1,22
 258 583 258 583 206 583 c 0,23,24
 154 583 154 583 120 571 c 1,14,-1
233 -33 m 0,25,26
 288 -33 288 -33 288 -90 c 0,27,28
 288 -114 288 -114 270.5 -154 c 128,-1,29
 253 -194 253 -194 235 -222.5 c 2,30,-1
 217 -251 l 1,31,-1
 153 -218 l 1,32,-1
 223 -135 l 1,33,-1
 219 -131 l 1,34,35
 205 -137 205 -137 194 -137 c 0,36,37
 183 -137 183 -137 173 -124 c 128,-1,38
 163 -111 163 -111 163 -90.5 c 0,39,40
 163 -70 163 -70 182.5 -51.5 c 128,-1,41
 202 -33 202 -33 233 -33 c 0,25,26
EndSplineSet
EndChar

StartChar: Scaron
Encoding: 352 352 62
Width: 376
Flags: HMW
HStem: -12 78<44 140.5> 582 77<213.5 263 178.5 268> 842 20G<146 146 265 265>
VStem: 26 81<393 510.5 393 522.5> 272 80<123.5 233.5>
LayerCount: 2
Fore
SplineSet
257 115 m 128,-1,1
 272 138 272 138 272 172 c 128,-1,2
 272 206 272 206 246.5 229 c 128,-1,3
 221 252 221 252 185 268.5 c 128,-1,4
 149 285 149 285 113 305.5 c 128,-1,5
 77 326 77 326 51.5 366 c 128,-1,6
 26 406 26 406 26 464 c 0,7,8
 26 554 26 554 85 606.5 c 128,-1,9
 144 659 144 659 253 659 c 0,10,11
 279 659 279 659 317 654 c 1,12,-1
 334 573 l 1,13,14
 293 582 293 582 256 582 c 0,15,16
 107 582 107 582 107 467 c 0,17,18
 107 396.138888889 107 396.138888889 193 361.5 c 0,19,20
 229 347 229 347 265.5 330.5 c 128,-1,21
 302 314 302 314 327 279 c 128,-1,22
 352 244 352 244 352 192 c 128,-1,23
 352 140 352 140 333.5 103 c 128,-1,24
 315 66 315 66 287 44.5 c 128,-1,25
 259 23 259 23 216.5 10 c 0,26,27
 144.576923077 -12 144.576923077 -12 44 -12 c 1,28,-1
 26 72 l 1,29,30
 62 66 62 66 100 66 c 128,-1,31
 138 66 138 66 162 69 c 128,-1,32
 186 72 186 72 214 82 c 128,-1,0
 242 92 242 92 257 115 c 128,-1,1
146 862 m 1,33,-1
 205 758 l 1,34,-1
 265 862 l 1,35,-1
 347 827 l 1,36,-1
 216 685 l 1,37,-1
 194 685 l 1,38,-1
 64 827 l 1,39,-1
 146 862 l 1,33,-1
EndSplineSet
EndChar

StartChar: Ugrave
Encoding: 217 217 63
Width: 524
Flags: HMW
HStem: -6 86<201.5 301.5 201.5 342.5> 842 20G<219 219>
VStem: 40 90<438 502.5 362.5 641> 393 91<295 435.5 286 442>
LayerCount: 2
Fore
SplineSet
475 657 m 1,0,-1
 484 386 l 1,1,2
 484 165.264150943 484 165.264150943 415.5 73.5 c 0,3,4
 389 38 389 38 343.5 16 c 128,-1,5
 298 -6 298 -6 245.5 -6 c 128,-1,6
 193 -6 193 -6 160 10 c 128,-1,7
 127 26 127 26 106 59 c 128,-1,8
 85 92 85 92 71 129.5 c 128,-1,9
 57 167 57 167 50.5 222 c 0,10,11
 40 310.846153846 40 310.846153846 40 438 c 2,12,-1
 40 641 l 1,13,-1
 132 652 l 1,14,15
 130 534 130 534 130 458 c 128,-1,16
 130 382 130 382 134.5 317 c 128,-1,17
 139 252 139 252 152 194.5 c 0,18,19
 177.886956522 80 177.886956522 80 255 80 c 0,20,21
 325 80 325 80 359 159.5 c 128,-1,22
 393 239 393 239 393 408 c 0,23,24
 393 508 393 508 382 649 c 1,25,-1
 475 657 l 1,0,-1
219 862 m 1,26,-1
 320 720 l 1,27,-1
 265 685 l 1,28,-1
 137 827 l 1,29,-1
 219 862 l 1,26,-1
EndSplineSet
EndChar

StartChar: Ucircumflex
Encoding: 219 219 64
Width: 524
Flags: HMW
HStem: -6 86<201.5 301.5 201.5 342.5> 842 20G<249 271 271 271>
VStem: 40 90<438 502.5 362.5 641> 393 91<295 435.5 286 442>
LayerCount: 2
Fore
SplineSet
475 657 m 1,0,-1
 484 386 l 1,1,2
 484 165.264150943 484 165.264150943 415.5 73.5 c 0,3,4
 389 38 389 38 343.5 16 c 128,-1,5
 298 -6 298 -6 245.5 -6 c 128,-1,6
 193 -6 193 -6 160 10 c 128,-1,7
 127 26 127 26 106 59 c 128,-1,8
 85 92 85 92 71 129.5 c 128,-1,9
 57 167 57 167 50.5 222 c 0,10,11
 40 310.846153846 40 310.846153846 40 438 c 2,12,-1
 40 641 l 1,13,-1
 132 652 l 1,14,15
 130 534 130 534 130 458 c 128,-1,16
 130 382 130 382 134.5 317 c 128,-1,17
 139 252 139 252 152 194.5 c 0,18,19
 177.886956522 80 177.886956522 80 255 80 c 0,20,21
 325 80 325 80 359 159.5 c 128,-1,22
 393 239 393 239 393 408 c 0,23,24
 393 508 393 508 382 649 c 1,25,-1
 475 657 l 1,0,-1
319 685 m 1,26,-1
 260 789 l 1,27,-1
 200 685 l 1,28,-1
 118 720 l 1,29,-1
 249 862 l 1,30,-1
 271 862 l 1,31,-1
 401 720 l 1,32,-1
 319 685 l 1,26,-1
EndSplineSet
EndChar

StartChar: Uacute
Encoding: 218 218 65
Width: 524
Flags: HMW
HStem: -6 86<201.5 301.5 201.5 342.5> 843 20G<315 315>
VStem: 40 90<438 502.5 362.5 641> 393 91<295 435.5 286 442>
LayerCount: 2
Fore
SplineSet
475 657 m 1,0,-1
 484 386 l 1,1,2
 484 165.264150943 484 165.264150943 415.5 73.5 c 0,3,4
 389 38 389 38 343.5 16 c 128,-1,5
 298 -6 298 -6 245.5 -6 c 128,-1,6
 193 -6 193 -6 160 10 c 128,-1,7
 127 26 127 26 106 59 c 128,-1,8
 85 92 85 92 71 129.5 c 128,-1,9
 57 167 57 167 50.5 222 c 0,10,11
 40 310.846153846 40 310.846153846 40 438 c 2,12,-1
 40 641 l 1,13,-1
 132 652 l 1,14,15
 130 534 130 534 130 458 c 128,-1,16
 130 382 130 382 134.5 317 c 128,-1,17
 139 252 139 252 152 194.5 c 0,18,19
 177.886956522 80 177.886956522 80 255 80 c 0,20,21
 325 80 325 80 359 159.5 c 128,-1,22
 393 239 393 239 393 408 c 0,23,24
 393 508 393 508 382 649 c 1,25,-1
 475 657 l 1,0,-1
214 721 m 1,26,-1
 315 863 l 1,27,-1
 397 828 l 1,28,-1
 269 686 l 1,29,-1
 214 721 l 1,26,-1
EndSplineSet
EndChar

StartChar: Udieresis
Encoding: 220 220 66
Width: 524
Flags: HMW
HStem: -6 86<201.5 301.5 201.5 342.5> 693 110<174 188 347 361.5>
VStem: 40 90<438 502.5 362.5 641> 132 98<652 770 738.5 763.5> 303 98<738.5 763.5> 393 91<295 435.5 286 442>
LayerCount: 2
Fore
SplineSet
475 657 m 1,0,-1
 484 386 l 1,1,2
 484 165.264150943 484 165.264150943 415.5 73.5 c 0,3,4
 389 38 389 38 343.5 16 c 128,-1,5
 298 -6 298 -6 245.5 -6 c 128,-1,6
 193 -6 193 -6 160 10 c 128,-1,7
 127 26 127 26 106 59 c 128,-1,8
 85 92 85 92 71 129.5 c 128,-1,9
 57 167 57 167 50.5 222 c 0,10,11
 40 310.846153846 40 310.846153846 40 438 c 2,12,-1
 40 641 l 1,13,-1
 132 652 l 1,14,15
 130 534 130 534 130 458 c 128,-1,16
 130 382 130 382 134.5 317 c 128,-1,17
 139 252 139 252 152 194.5 c 0,18,19
 177.886956522 80 177.886956522 80 255 80 c 0,20,21
 325 80 325 80 359 159.5 c 128,-1,22
 393 239 393 239 393 408 c 0,23,24
 393 508 393 508 382 649 c 1,25,-1
 475 657 l 1,0,-1
315 708 m 128,-1,27
 303 723 303 723 303 747.5 c 128,-1,28
 303 772 303 772 320.5 787.5 c 128,-1,29
 338 803 338 803 359 803 c 128,-1,30
 380 803 380 803 390.5 790 c 128,-1,31
 401 777 401 777 401 753 c 128,-1,32
 401 729 401 729 385.5 711 c 128,-1,33
 370 693 370 693 348.5 693 c 128,-1,26
 327 693 327 693 315 708 c 128,-1,27
143.5 707.5 m 128,-1,35
 132 722 132 722 132 747.5 c 128,-1,36
 132 773 132 773 148 788 c 128,-1,37
 164 803 164 803 186.5 803 c 0,38,39
 230 803 230 803 230 757 c 0,40,41
 230 730 230 730 213 711.5 c 128,-1,42
 196 693 196 693 175.5 693 c 128,-1,34
 155 693 155 693 143.5 707.5 c 128,-1,35
EndSplineSet
EndChar

StartChar: Yacute
Encoding: 221 221 67
Width: 563
Flags: HMW
HStem: 0 21G<247 350 247 247> 842 20G<330 330>
VStem: 251 93
LayerCount: 2
Fore
SplineSet
339 266 m 1,0,-1
 350 0 l 1,1,-1
 247 0 l 1,2,-1
 256 266 l 1,3,-1
 17 609 l 1,4,-1
 91 663 l 1,5,-1
 304 343 l 1,6,-1
 469 670 l 1,7,-1
 546 635 l 1,8,-1
 339 266 l 1,0,-1
229 720 m 1,9,-1
 330 862 l 1,10,-1
 412 827 l 1,11,-1
 284 685 l 1,12,-1
 229 720 l 1,9,-1
EndSplineSet
EndChar

StartChar: Ydieresis
Encoding: 376 376 68
Width: 563
Flags: HMW
HStem: 0 21G<247 350 247 247> 702 110<196 210 369 383.5>
VStem: 154 98<747.5 772.5> 251 93 325 98<747.5 772.5>
LayerCount: 2
Fore
SplineSet
339 266 m 1,0,-1
 350 0 l 1,1,-1
 247 0 l 1,2,-1
 256 266 l 1,3,-1
 17 609 l 1,4,-1
 91 663 l 1,5,-1
 304 343 l 1,6,-1
 469 670 l 1,7,-1
 546 635 l 1,8,-1
 339 266 l 1,0,-1
337 717 m 128,-1,10
 325 732 325 732 325 756.5 c 128,-1,11
 325 781 325 781 342.5 796.5 c 128,-1,12
 360 812 360 812 381 812 c 128,-1,13
 402 812 402 812 412.5 799 c 128,-1,14
 423 786 423 786 423 762 c 128,-1,15
 423 738 423 738 407.5 720 c 128,-1,16
 392 702 392 702 370.5 702 c 128,-1,9
 349 702 349 702 337 717 c 128,-1,10
165.5 716.5 m 128,-1,18
 154 731 154 731 154 756.5 c 128,-1,19
 154 782 154 782 170 797 c 128,-1,20
 186 812 186 812 208.5 812 c 0,21,22
 252 812 252 812 252 766 c 0,23,24
 252 739 252 739 235 720.5 c 128,-1,25
 218 702 218 702 197.5 702 c 128,-1,17
 177 702 177 702 165.5 716.5 c 128,-1,18
EndSplineSet
EndChar

StartChar: Zcaron
Encoding: 381 381 69
Width: 498
Flags: HMW
HStem: -7 21G<34 34> -4 88 566 78<353 353> 832 20G<219 219 338 338>
LayerCount: 2
Fore
SplineSet
146 80 m 1,0,-1
 468 89 l 1,1,-1
 464 -1 l 1,2,-1
 34 -7 l 1,3,-1
 30 54 l 1,4,-1
 353 566 l 1,5,6
 190 564 190 564 55 555 c 1,7,-1
 56 644 l 1,8,-1
 463 644 l 1,9,-1
 463 583 l 1,10,-1
 146 80 l 1,0,-1
219 852 m 1,11,-1
 278 748 l 1,12,-1
 338 852 l 1,13,-1
 420 817 l 1,14,-1
 289 675 l 1,15,-1
 267 675 l 1,16,-1
 137 817 l 1,17,-1
 219 852 l 1,11,-1
EndSplineSet
EndChar

StartChar: ampersand
Encoding: 38 38 70
Width: 582
Flags: HMW
HStem: -28 77<215.5 278 215.5 280> 577 82<229 272>
VStem: 12 83<142 193> 59 90<447 500 430.5 513> 443 79<232.5 256.5>
LayerCount: 2
Fore
SplineSet
630 58 m 1,0,-1
 570 -13 l 1,1,2
 504 14 504 14 439 55 c 1,3,4
 356 -28 356 -28 242.5 -28 c 128,-1,5
 129 -28 129 -28 70.5 26 c 128,-1,6
 12 80 12 80 12 159 c 0,7,8
 12 212 12 212 36.5 263 c 128,-1,9
 61 314 61 314 108 349 c 1,10,11
 59 417 59 417 59 462 c 0,12,13
 59 540 59 540 118 599.5 c 128,-1,14
 177 659 177 659 265.5 659 c 128,-1,15
 354 659 354 659 413 576 c 1,16,-1
 341 528 l 1,17,18
 306 577 306 577 259.5 577 c 128,-1,19
 213 577 213 577 181 546.5 c 128,-1,20
 149 516 149 516 149 465.5 c 128,-1,21
 149 415 149 415 232 324 c 128,-1,22
 315 233 315 233 424 158 c 1,23,24
 443 198 443 198 443 237 c 0,25,26
 443 302 443 302 406 354 c 1,27,-1
 484 394 l 1,28,29
 522 331 522 331 522 258 c 128,-1,30
 522 185 522 185 486 118 c 1,31,32
 565 72 565 72 630 58 c 1,0,-1
148 298 m 1,33,34
 95 253 95 253 95 188 c 128,-1,35
 95 123 95 123 143 86 c 128,-1,36
 191 49 191 49 260 49 c 128,-1,37
 329 49 329 49 376 96 c 1,38,39
 241 190 241 190 148 298 c 1,33,34
EndSplineSet
EndChar

StartChar: a
Encoding: 97 97 71
Width: 414
Flags: HMW
HStem: -8 67<170.5 205.5> -1 21G<312 383 312 312> 216 65<169.5 207.5 148 223.5> 409 72<185.5 234>
VStem: 30 81<118.5 158 118.5 178.5> 297 86
LayerCount: 2
Fore
SplineSet
71.5 30.5 m 128,-1,1
 30 69 30 69 30 134 c 128,-1,2
 30 199 30 199 77 240 c 128,-1,3
 124 281 124 281 188 281 c 128,-1,4
 252 281 252 281 297 240 c 1,5,-1
 297 278 l 2,6,7
 297 340 297 340 272.5 374.5 c 128,-1,8
 248 409 248 409 212 409 c 128,-1,9
 176 409 176 409 149.5 392.5 c 128,-1,10
 123 376 123 376 94 342 c 1,11,-1
 49 393 l 1,12,13
 117 481 117 481 220 481 c 0,14,15
 382 481 382 481 382 298 c 128,-1,16
 382 115 382 115 383 -1 c 1,17,-1
 312 -1 l 1,18,-1
 309 43 l 1,19,-1
 306 45 l 1,20,21
 292 25 292 25 254.5 8.5 c 128,-1,22
 217 -8 217 -8 178 -8 c 0,23,0
 113 -8 113 -8 71.5 30.5 c 128,-1,1
298 140 m 1,24,25
 297 176 297 176 268 196 c 128,-1,26
 239 216 239 216 198 216 c 128,-1,27
 157 216 157 216 134 193 c 128,-1,28
 111 170 111 170 111 138 c 128,-1,29
 111 106 111 106 134.5 82.5 c 128,-1,30
 158 59 158 59 199 59 c 128,-1,31
 240 59 240 59 268.5 79.5 c 128,-1,32
 297 100 297 100 298 140 c 1,24,25
EndSplineSet
EndChar

StartChar: b
Encoding: 98 98 72
Width: 510
Flags: HMW
HStem: -4 74<220.5 299.5 220.5 323.5> 405 71<268.5 319.5> 648 78 712 20G<150 150>
VStem: -11 153 52 90 384 91<220.5 302>
LayerCount: 2
Fore
SplineSet
-9 646 m 1,0,-1
 -14 721 l 1,1,-1
 150 732 l 1,2,-1
 135 394 l 1,3,-1
 143 389 l 1,4,5
 170 417 170 417 188 432.5 c 128,-1,6
 206 448 206 448 238.5 462 c 128,-1,7
 271 476 271 476 308 476 c 0,8,9
 388 476 388 476 431.5 419 c 128,-1,10
 475 362 475 362 475 287.5 c 128,-1,11
 475 213 475 213 449.5 149.5 c 128,-1,12
 424 86 424 86 372 41 c 128,-1,13
 320 -4 320 -4 263 -4 c 128,-1,14
 206 -4 206 -4 170 11 c 128,-1,15
 134 26 134 26 111.5 51 c 128,-1,16
 89 76 89 76 75.5 114.5 c 0,17,18
 52 181.518518519 52 181.518518519 52 315.259259259 c 128,-1,19
 52 449 52 449 59 650 c 1,20,-1
 -9 646 l 1,0,-1
264 70 m 0,21,22
 315 70 315 70 349.5 131.5 c 128,-1,23
 384 193 384 193 384 259.5 c 128,-1,24
 384 326 384 326 359 365.5 c 128,-1,25
 334 405 334 405 278 405 c 128,-1,26
 222 405 222 405 180 345.5 c 128,-1,27
 138 286 138 286 138 219 c 128,-1,28
 138 152 138 152 170 111 c 128,-1,29
 202 70 202 70 264 70 c 0,21,22
EndSplineSet
EndChar

StartChar: c
Encoding: 99 99 73
Width: 423
Flags: HMW
HStem: -5 63<194 259 194 276> 407 70<192 260>
VStem: 32 80<194.5 279 194.5 291.5>
LayerCount: 2
Fore
SplineSet
400 437 m 1,0,-1
 357 373 l 1,1,2
 339 386 339 386 303.5 396.5 c 128,-1,3
 268 407 268 407 241 407 c 0,4,5
 173 407 173 407 142.5 358 c 128,-1,6
 112 309 112 309 112 238.5 c 0,7,8
 112 168 112 168 145 113 c 128,-1,9
 178 58 178 58 231 58 c 0,10,11
 271 58 271 58 313.5 78.5 c 128,-1,12
 356 99 356 99 376 126 c 1,13,-1
 417 75 l 1,14,15
 391 43 391 43 342 19 c 128,-1,16
 293 -5 293 -5 227 -5 c 0,17,18
 130 -5 130 -5 81 58 c 128,-1,19
 32 121 32 121 32 225 c 0,20,21
 32 329 32 329 94 403 c 128,-1,22
 156 477 156 477 257 477 c 0,23,24
 323 477 323 477 400 437 c 1,0,-1
EndSplineSet
EndChar

StartChar: d
Encoding: 100 100 74
Width: 502
Flags: HMW
HStem: -5 79<187 228.5> 404 71<198 264 167 280.5> 652 72 706 20G<456 456>
VStem: 25 85<172.5 254 172.5 271> 291 155 367 79
LayerCount: 2
Fore
SplineSet
446 171 m 1,0,-1
 449 3 l 1,1,-1
 380 -3 l 1,2,-1
 371 71 l 1,3,-1
 363 73 l 1,4,5
 292 -5 292 -5 189 -5 c 0,6,7
 108 -5 108 -5 66.5 56.5 c 128,-1,8
 25 118 25 118 25 196 c 128,-1,9
 25 274 25 274 48 333.5 c 128,-1,10
 71 393 71 393 120.5 434 c 128,-1,11
 170 475 170 475 238 475 c 128,-1,12
 306 475 306 475 361 418 c 1,13,-1
 367 421 l 1,14,-1
 368 654 l 1,15,-1
 293 651 l 1,16,-1
 290 722 l 1,17,-1
 456 726 l 1,18,19
 455 648 455 648 450.5 465 c 128,-1,20
 446 282 446 282 446 171 c 1,0,-1
331.5 362.5 m 128,-1,22
 299 404 299 404 240.5 404 c 128,-1,23
 182 404 182 404 146 342.5 c 128,-1,24
 110 281 110 281 110 216 c 128,-1,25
 110 151 110 151 140 112.5 c 128,-1,26
 170 74 170 74 229.5 74 c 128,-1,27
 289 74 289 74 326.5 129.5 c 128,-1,28
 364 185 364 185 364 253 c 128,-1,21
 364 321 364 321 331.5 362.5 c 128,-1,22
EndSplineSet
EndChar

StartChar: e
Encoding: 101 101 75
Width: 449
Flags: HMW
HStem: -5 66<208 281> 203 57 407 70<204 281.5>
VStem: 32 85<158 202 158 281.5> 340 78<265 307>
LayerCount: 2
Fore
SplineSet
412 204 m 1,0,-1
 117 202 l 1,1,2
 117 138 117 138 153 99.5 c 128,-1,3
 189 61 189 61 234 61 c 128,-1,4
 279 61 279 61 311.5 75.5 c 128,-1,5
 344 90 344 90 357.5 104.5 c 2,6,-1
 371 119 l 1,7,-1
 412 65 l 1,8,9
 354 -5 354 -5 232 -5 c 0,10,11
 134 -5 134 -5 83 54 c 128,-1,12
 32 113 32 113 32 216.5 c 128,-1,13
 32 320 32 320 96.5 398.5 c 128,-1,14
 161 477 161 477 262 477 c 0,15,16
 343 477 343 477 380.5 421.5 c 128,-1,17
 418 366 418 366 418 277 c 0,18,19
 418 240 418 240 412 204 c 1,0,-1
318.5 370 m 128,-1,21
 297 407 297 407 242.5 407 c 128,-1,22
 188 407 188 407 152.5 359.5 c 128,-1,23
 117 312 117 312 116 259 c 1,24,-1
 340 261 l 1,25,20
 340 333 340 333 318.5 370 c 128,-1,21
EndSplineSet
EndChar

StartChar: f
Encoding: 102 102 76
Width: 319
Flags: HMW
HStem: -5 21G<74 74> 405 81 654 80<228.5 301.5>
VStem: 86 79<483 531.5 483 547>
LayerCount: 2
Fore
SplineSet
74 -5 m 1,0,-1
 78 407 l 1,1,-1
 12 405 l 1,2,-1
 15 435 l 1,3,-1
 86 482 l 1,4,5
 86 588 86 588 127 661 c 128,-1,6
 168 734 168 734 248 734 c 0,7,8
 298 734 298 734 339.5 726 c 128,-1,9
 381 718 381 718 398 709.5 c 2,10,-1
 415 701 l 1,11,-1
 392 618 l 1,12,13
 333 654 333 654 270 654 c 0,14,15
 165 654 165 654 165 483 c 1,16,-1
 319 489 l 1,17,-1
 304 404 l 1,18,-1
 162 407 l 1,19,-1
 164 7 l 1,20,-1
 74 -5 l 1,0,-1
EndSplineSet
EndChar

StartChar: g
Encoding: 103 103 77
Width: 517
Flags: HMW
HStem: -214 78<245.5 312 245.5 343.5> 35 81<187.5 251.5> 411 74<207 261 166 273.5> 470 20G<387 387>
VStem: 36 84<227.5 297 227.5 319> 370 84<43.5 80 43.5 313.5>
LayerCount: 2
Fore
SplineSet
86.5 420.5 m 128,-1,1
 137 485 137 485 229.5 485 c 128,-1,2
 322 485 322 485 367 429 c 1,3,-1
 376 432 l 1,4,-1
 387 490 l 1,5,-1
 451 484 l 1,6,7
 454 300 454 300 454 106 c 0,8,9
 454 -5.74358974359 454 -5.74358974359 418.5 -99.5 c 0,10,11
 399 -151 399 -151 360 -182.5 c 128,-1,12
 321 -214 321 -214 261 -214 c 128,-1,13
 201 -214 201 -214 150 -193 c 128,-1,14
 99 -172 99 -172 55 -111 c 1,15,-1
 125 -53 l 1,16,17
 150 -89 150 -89 191 -112.5 c 128,-1,18
 232 -136 232 -136 271 -136 c 128,-1,19
 310 -136 310 -136 332 -100.5 c 0,20,21
 370 -39.1818181818 370 -39.1818181818 370 71 c 0,22,23
 370 99 370 99 367 117 c 1,24,25
 307 35 307 35 227 35 c 0,26,27
 160 35 160 35 115 69 c 128,-1,28
 70 103 70 103 53 151 c 128,-1,29
 36 199 36 199 36 258 c 0,30,0
 36 356 36 356 86.5 420.5 c 128,-1,1
330.5 165 m 128,-1,32
 370 214 370 214 370 272.5 c 128,-1,33
 370 331 370 331 330.5 371 c 128,-1,34
 291 411 291 411 240.5 411 c 128,-1,35
 190 411 190 411 155 365.5 c 128,-1,36
 120 320 120 320 120 261.5 c 128,-1,37
 120 203 120 203 146.5 159.5 c 128,-1,38
 173 116 173 116 232 116 c 128,-1,31
 291 116 291 116 330.5 165 c 128,-1,32
EndSplineSet
EndChar

StartChar: h
Encoding: 104 104 78
Width: 524
Flags: HMW
HStem: -5 21G<72 72 375 375> 396 84<285.5 326> 650 77 711 20G<153 153>
VStem: -17 170 62 91<653 653> 379 83<103.5 320>
LayerCount: 2
Fore
SplineSet
464 315 m 2,0,-1
 462 142 l 1,1,-1
 467 1 l 1,2,-1
 375 -5 l 1,3,4
 379 187 379 187 379 262 c 128,-1,5
 379 337 379 337 358.5 366.5 c 128,-1,6
 338 396 338 396 303.5 396 c 128,-1,7
 269 396 269 396 231 360 c 128,-1,8
 193 324 193 324 176.5 274.5 c 128,-1,9
 160 225 160 225 160 119 c 128,-1,10
 160 13 160 13 164 1 c 1,11,-1
 72 -5 l 1,12,13
 68 250 68 250 68 355.5 c 128,-1,14
 68 461 68 461 62 653 c 1,15,-1
 -15 647 l 1,16,-1
 -20 724 l 1,17,-1
 153 731 l 1,18,-1
 153 365 l 1,19,-1
 161 363 l 1,20,21
 169.169230769 376.615384615 169.169230769 376.615384615 191.084615385 400.307692308 c 128,-1,22
 213 424 213 424 232 439.5 c 128,-1,23
 251 455 251 455 278.5 467.5 c 128,-1,24
 306 480 306 480 332 480 c 0,25,26
 400 480 400 480 432 433.5 c 128,-1,27
 464 387 464 387 464 315 c 2,0,-1
EndSplineSet
EndChar

StartChar: i
Encoding: 105 105 79
Width: 224
Flags: HMW
HStem: -4 21G<90 90> 418 65 534 108<116 146>
VStem: 68 120<580.5 597.5> 81 88<419 419>
LayerCount: 2
Fore
SplineSet
17 417 m 1,0,-1
 20 483 l 1,1,-1
 169 483 l 1,2,-1
 169 0 l 1,3,-1
 90 -4 l 1,4,5
 90 93.2 90 93.2 86 231.6 c 128,-1,6
 82 370 82 370 81 419 c 1,7,-1
 17 417 l 1,0,-1
171.5 552 m 128,-1,9
 155 534 155 534 127 534 c 128,-1,10
 99 534 99 534 83.5 546.5 c 128,-1,11
 68 559 68 559 68 582.5 c 128,-1,12
 68 606 68 606 87 624 c 128,-1,13
 106 642 106 642 137 642 c 0,14,15
 188 642 188 642 188 597 c 0,16,8
 188 570 188 570 171.5 552 c 128,-1,9
EndSplineSet
EndChar

StartChar: j
Encoding: 106 106 80
Width: 277
Flags: HMW
HStem: -213 81<-21.5 34.5 -21.5 71> 411 68 534 108<141 171>
VStem: 93 120<580.5 597.5> 114 86
LayerCount: 2
Fore
SplineSet
52 411 m 1,0,-1
 57 478 l 1,1,-1
 198 480 l 1,2,3
 200 199 200 199 200 142 c 0,4,5
 200 -213 200 -213 -19 -213 c 0,6,7
 -80 -213 -80 -213 -139 -186 c 1,8,-1
 -103 -103 l 1,9,10
 -51 -132 -51 -132 -8 -132 c 0,11,12
 54 -132 54 -132 85.5 -73.5 c 128,-1,13
 117 -15 117 -15 118 85 c 1,14,15
 118 295 118 295 114 411 c 1,16,-1
 52 411 l 1,0,-1
196.5 552 m 128,-1,18
 180 534 180 534 152 534 c 128,-1,19
 124 534 124 534 108.5 546.5 c 128,-1,20
 93 559 93 559 93 582.5 c 128,-1,21
 93 606 93 606 112 624 c 128,-1,22
 131 642 131 642 162 642 c 0,23,24
 213 642 213 642 213 597 c 0,25,17
 213 570 213 570 196.5 552 c 128,-1,18
EndSplineSet
EndChar

StartChar: k
Encoding: 107 107 81
Width: 468
Flags: HMW
HStem: -12 21G<352 352> 709 20G<168 168>
VStem: 75 83
LayerCount: 2
Fore
SplineSet
160 318 m 2,0,-1
 160 278 l 1,1,2
 234 287 234 287 287.5 346 c 128,-1,3
 341 405 341 405 357 484 c 1,4,-1
 427 468 l 1,5,6
 427.363636364 463.454545455 427.363636364 463.454545455 427.363636364 458.826446281 c 0,7,8
 427.363636364 412.545454545 427.363636364 412.545454545 389.181818182 355.272727273 c 0,9,10
 351 298 351 298 288 257 c 1,11,-1
 448 8 l 1,12,-1
 352 -12 l 1,13,-1
 212 220 l 1,14,15
 187 211 187 211 159 208 c 1,16,-1
 157 1 l 1,17,-1
 76 -5 l 1,18,-1
 74 278 l 2,19,20
 74 414 74 414 69 654 c 1,21,-1
 27 650 l 1,22,-1
 3 647 l 1,23,-1
 0 648 l 1,24,-1
 -4 725 l 1,25,-1
 168 729 l 1,26,27
 160 384 160 384 160 318 c 2,0,-1
EndSplineSet
EndChar

StartChar: l
Encoding: 108 108 82
Width: 235
Flags: HMW
HStem: -5 21G<81 81> 709 20G<172 172>
VStem: 81 81
LayerCount: 2
Fore
SplineSet
7 647 m 1,0,-1
 4 721 l 1,1,-1
 172 729 l 1,2,3
 163 342 163 342 163 276 c 2,4,-1
 161 1 l 1,5,-1
 81 -5 l 1,6,-1
 81 278 l 2,7,8
 81 420 81 420 76 657 c 1,9,-1
 7 647 l 1,0,-1
EndSplineSet
EndChar

StartChar: m
Encoding: 109 109 83
Width: 801
Flags: HMW
HStem: -8 21G<663 663> 403 78<294.5 337.5>
VStem: 371 83<177.5 249.5> 663 84
LayerCount: 2
Fore
SplineSet
367 -5 m 1,0,-1
 371 197 l 1,1,2
 371 403 371 403 313 403 c 0,3,4
 272 403 272 403 225 359.5 c 128,-1,5
 178 316 178 316 161 251 c 0,6,7
 150 209 150 209 150 100 c 1,8,-1
 154 1 l 1,9,-1
 65 -5 l 1,10,11
 67 240 67 240 67 297 c 1,12,-1
 61 468 l 1,13,-1
 131 474 l 1,14,-1
 154 375 l 1,15,-1
 158 375 l 1,16,17
 162 379 162 379 168.5 386.5 c 128,-1,18
 175 394 175 394 195.5 412 c 128,-1,19
 216 430 216 430 236.5 444 c 0,20,21
 290.678571429 481 290.678571429 481 337.339285714 481 c 128,-1,22
 384 481 384 481 408 453 c 128,-1,23
 432 425 432 425 444 373 c 1,24,-1
 449 371 l 1,25,26
 537 481 537 481 648 481 c 0,27,28
 697 481 697 481 722 436 c 128,-1,29
 747 391 747 391 747 314 c 2,30,-1
 747 214 l 2,31,32
 747 49 747 49 750 -2 c 1,33,-1
 663 -8 l 1,34,35
 667 184 667 184 667 276 c 0,36,37
 667 395 667 395 614 395 c 128,-1,38
 561 395 561 395 507.5 334 c 128,-1,39
 454 273 454 273 454 216 c 2,40,-1
 452 1 l 1,41,-1
 367 -5 l 1,0,-1
EndSplineSet
EndChar

StartChar: n
Encoding: 110 110 84
Width: 500
Flags: HMW
HStem: -5 21G<56 56 359 359> 398 83<279.5 329.5>
VStem: 363 80<232 309.5>
LayerCount: 2
Fore
SplineSet
138 352 m 1,0,1
 241.2 481 241.2 481 325 481 c 0,2,3
 443 481 443 481 443 315 c 2,4,-1
 443 217 l 2,5,6
 443 52 443 52 446 1 c 1,7,-1
 359 -5 l 1,8,9
 363 187 363 187 363 260.5 c 128,-1,10
 363 334 363 334 351 366 c 128,-1,11
 339 398 339 398 302.5 398 c 128,-1,12
 266 398 266 398 217 350 c 128,-1,13
 168 302 168 302 154 248 c 128,-1,14
 140 194 140 194 140 100 c 1,15,-1
 145 1 l 1,16,-1
 56 -5 l 1,17,18
 54 240 54 240 54 297 c 1,19,-1
 49 465 l 1,20,-1
 116 468 l 1,21,-1
 131 353 l 1,22,-1
 138 352 l 1,0,1
EndSplineSet
EndChar

StartChar: o
Encoding: 111 111 85
Width: 462
Flags: HMW
HStem: -7 72<187 261 187 285.5> 408 70<197.5 289.5>
VStem: 33 79<193 279.5> 346 85<180.5 268>
LayerCount: 2
Fore
SplineSet
250 478 m 0,0,1
 431 478 431 478 431 249.5 c 0,2,3
 431 137 431 137 374 65 c 128,-1,4
 317 -7 317 -7 223.5 -7 c 128,-1,5
 130 -7 130 -7 81.5 55.5 c 128,-1,6
 33 118 33 118 33 223 c 0,7,8
 33 283 33 283 56 339.5 c 128,-1,9
 79 396 79 396 130.5 437 c 128,-1,10
 182 478 182 478 250 478 c 0,0,1
142 116 m 128,-1,12
 172 65 172 65 226.5 65 c 128,-1,13
 281 65 281 65 313.5 109.5 c 128,-1,14
 346 154 346 154 346 236 c 0,15,16
 346 408 346 408 243 408 c 0,17,18
 179 408 179 408 145.5 358.5 c 128,-1,19
 112 309 112 309 112 238 c 128,-1,11
 112 167 112 167 142 116 c 128,-1,12
EndSplineSet
EndChar

StartChar: p
Encoding: 112 112 86
Width: 488
Flags: HMW
HStem: -229 21G<43 43> 0 77<213 281.5 206.5 305> 399 75<250.5 303>
VStem: 51 73<175.5 233.5> 369 87<226 304.5>
LayerCount: 2
Fore
SplineSet
51 182 m 1,0,-1
 45 457 l 1,1,-1
 109 469 l 1,2,-1
 123 395 l 1,3,-1
 132 393 l 1,4,5
 159 421 159 421 175.5 435 c 128,-1,6
 192 449 192 449 222.5 461.5 c 128,-1,7
 253 474 253 474 290 474 c 0,8,9
 370 474 370 474 413 420.5 c 128,-1,10
 456 367 456 367 456 293 c 128,-1,11
 456 219 456 219 430.5 155 c 128,-1,12
 405 91 405 91 353 45.5 c 128,-1,13
 301 0 301 0 238.5 0 c 128,-1,14
 176 0 176 0 130 39 c 1,15,-1
 136 -222 l 1,16,-1
 43 -229 l 1,17,18
 51 101 51 101 51 182 c 1,0,-1
156 115 m 128,-1,20
 188 77 188 77 242.5 77 c 128,-1,21
 297 77 297 77 333 138.5 c 128,-1,22
 369 200 369 200 369 263 c 128,-1,23
 369 326 369 326 343.5 362.5 c 128,-1,24
 318 399 318 399 262.5 399 c 128,-1,25
 207 399 207 399 165.5 349.5 c 128,-1,26
 124 300 124 300 124 226.5 c 128,-1,19
 124 153 124 153 156 115 c 128,-1,20
EndSplineSet
EndChar

StartChar: q
Encoding: 113 113 87
Width: 532
Flags: HMW
HStem: -223 21G<371 371> -5 82<203.5 251.5> 401 74<220.5 293 196 300.5> 469 20G<410 410>
VStem: 42 92<169 251 169 253> 376 83 376 95 376 142
LayerCount: 2
Fore
SplineSet
212 -5 m 0,0,1
 129 -5 129 -5 85.5 49.5 c 128,-1,2
 42 104 42 104 42 179.5 c 128,-1,3
 42 255 42 255 68 319.5 c 128,-1,4
 94 384 94 384 147 429.5 c 128,-1,5
 200 475 200 475 268.5 475 c 128,-1,6
 337 475 337 475 395 415 c 1,7,-1
 404 416 l 1,8,-1
 410 489 l 1,9,-1
 471 487 l 1,10,11
 468 374 468 374 464.5 161.5 c 128,-1,12
 461 -51 461 -51 459 -140 c 1,13,-1
 520 -135 l 1,14,-1
 516 -212 l 1,15,-1
 371 -223 l 1,16,-1
 382 74 l 1,17,-1
 377 78 l 1,18,19
 339 37 339 37 302.5 16 c 128,-1,20
 266 -5 266 -5 212 -5 c 0,0,1
348.5 359 m 128,-1,22
 318 401 318 401 261 401 c 128,-1,23
 204 401 204 401 169 340 c 128,-1,24
 134 279 134 279 134 206 c 0,25,26
 134 77 134 77 244 77 c 0,27,28
 303 77 303 77 341 130 c 128,-1,29
 379 183 379 183 379 250 c 128,-1,21
 379 317 379 317 348.5 359 c 128,-1,22
EndSplineSet
EndChar

StartChar: r
Encoding: 114 114 88
Width: 371
Flags: HMW
HStem: -4 21G<64 64> 404 79<262.5 279>
VStem: 66 86<122.5 298.5>
LayerCount: 2
Fore
SplineSet
63 469 m 1,0,-1
 135 477 l 1,1,-1
 144 382 l 1,2,-1
 150 383 l 1,3,4
 203 483 203 483 289 483 c 0,5,6
 329 483 329 483 371 458 c 1,7,-1
 336 381 l 1,8,9
 300 404 300 404 266.5 404 c 0,10,11
 233 404 233 404 207 374.5 c 128,-1,12
 181 345 181 345 166.5 294.5 c 0,13,14
 152 244 152 244 152 176 c 0,15,16
 152 108 152 108 157 0 c 1,17,-1
 64 -4 l 1,18,19
 66 158 66 158 66 264 c 1,20,-1
 63 469 l 1,0,-1
EndSplineSet
EndChar

StartChar: s
Encoding: 115 115 89
Width: 419
Flags: HMW
HStem: -2 67<203 257.5 203 272.5> 410 71<174 226>
VStem: 41 71<288.5 357.5 288.5 373> 311 80<115 172.5>
LayerCount: 2
Fore
SplineSet
67 133 m 1,0,1
 95 104 95 104 141.5 84.5 c 128,-1,2
 188 65 188 65 228 65 c 0,3,4
 268 65 268 65 289.5 85 c 128,-1,5
 311 105 311 105 311 129.5 c 0,6,7
 311 154 311 154 283 166.5 c 128,-1,8
 255 179 255 179 215.5 186.5 c 128,-1,9
 176 194 176 194 136.5 206 c 128,-1,10
 97 218 97 218 69 247 c 128,-1,11
 41 276 41 276 41 323 c 0,12,13
 41 395 41 395 90.5 438 c 128,-1,14
 140 481 140 481 209 481 c 0,15,16
 314 481 314 481 387 422 c 1,17,-1
 350 355 l 1,18,19
 326 376 326 376 282 393 c 128,-1,20
 238 410 238 410 199 410 c 0,21,22
 160 410 160 410 136 389.5 c 128,-1,23
 112 369 112 369 112 331 c 0,24,25
 112 308 112 308 140.5 294.5 c 128,-1,26
 169 281 169 281 210 272.5 c 128,-1,27
 251 264 251 264 292.5 252 c 128,-1,28
 334 240 334 240 362.5 212 c 128,-1,29
 391 184 391 184 391 140 c 0,30,31
 391 77 391 77 343.5 37.5 c 128,-1,32
 296 -2 296 -2 231.5 -2 c 0,33,34
 167 -2 167 -2 111.5 18.5 c 128,-1,35
 56 39 56 39 21 72 c 1,36,37
 33 86 33 86 67 133 c 1,0,1
EndSplineSet
EndChar

StartChar: t
Encoding: 116 116 90
Width: 412
Flags: HMW
HStem: -7 75<216.5 282.5 216.5 291.5> 411 201
VStem: 88 81<191.5 249>
LayerCount: 2
Fore
SplineSet
315 490 m 1,0,-1
 295 413 l 1,1,-1
 177 409 l 1,2,3
 169 294 169 294 169 248 c 128,-1,4
 169 202 169 202 170 183 c 128,-1,5
 171 164 171 164 176.5 140.5 c 128,-1,6
 182 117 182 117 191 102.5 c 0,7,8
 212.413793103 68 212.413793103 68 258 68 c 0,9,10
 317 68 317 68 343 127 c 1,11,-1
 407 96 l 1,12,13
 384 47 384 47 347 20 c 128,-1,14
 310 -7 310 -7 244 -7 c 0,15,16
 88 -7 88 -7 88 217 c 1,17,-1
 94 402 l 1,18,-1
 9 400 l 1,19,-1
 16 440 l 1,20,-1
 99 475 l 1,21,-1
 127 612 l 1,22,-1
 195 612 l 1,23,-1
 180 478 l 1,24,-1
 315 490 l 1,0,-1
EndSplineSet
EndChar

StartChar: u
Encoding: 117 117 91
Width: 502
Flags: HMW
HStem: -8 21G<379 379> -5 83<180 236.5> 461 20G<138 138 437 437>
VStem: 49 85<166.5 372.5>
LayerCount: 2
Fore
SplineSet
47 161 m 2,0,-1
 49 334 l 1,1,-1
 45 475 l 1,2,-1
 138 481 l 1,3,4
 134 289 134 289 134 197 c 0,5,6
 134 78 134 78 213 78 c 0,7,8
 254 78 254 78 293.5 111.5 c 128,-1,9
 333 145 333 145 342 203 c 0,10,11
 355 289 355 289 355 376 c 1,12,-1
 350 475 l 1,13,-1
 437 481 l 1,14,15
 441 236 441 236 441 198.5 c 0,16,17
 441 143 441 143 454.5 33.5 c 2,18,-1
 459 -3 l 1,19,-1
 379 -8 l 1,20,-1
 363 90 l 1,21,-1
 357 92 l 1,22,23
 310.810650888 30.4142011834 310.810650888 30.4142011834 242 5.5 c 0,24,25
 213 -5 213 -5 184 -5 c 0,26,27
 120 -5 120 -5 83.5 43.5 c 128,-1,28
 47 92 47 92 47 161 c 2,0,-1
EndSplineSet
EndChar

StartChar: v
Encoding: 118 118 92
Width: 480
Flags: HMW
HStem: -7 21G<205 205> 462 20G<116 116>
LayerCount: 2
Fore
SplineSet
370 480 m 1,0,-1
 460 465 l 1,1,2
 457 456 457 456 294 1 c 1,3,-1
 205 -7 l 1,4,5
 53 379 53 379 20 465 c 1,6,-1
 116 482 l 1,7,-1
 252 94 l 1,8,-1
 370 480 l 1,0,-1
EndSplineSet
EndChar

StartChar: w
Encoding: 119 119 93
Width: 821
Flags: HMW
HStem: -7 21G<281 281 608 608> 462 20G<699 699>
LayerCount: 2
Fore
SplineSet
366 467 m 1,0,-1
 448 469 l 1,1,-1
 566 82 l 1,2,-1
 699 482 l 1,3,-1
 793 465 l 1,4,5
 760 379 760 379 608 -7 c 1,6,-1
 517 1 l 1,7,8
 500 48 500 48 459 155.5 c 128,-1,9
 418 263 418 263 399 315 c 1,10,11
 353 197 353 197 281 -7 c 1,12,-1
 192 1 l 1,13,14
 170 62 170 62 111.5 220.5 c 128,-1,15
 53 379 53 379 23 465 c 1,16,-1
 117 480 l 1,17,-1
 238 94 l 1,18,-1
 366 467 l 1,0,-1
EndSplineSet
EndChar

StartChar: x
Encoding: 120 120 94
Width: 489
Flags: HMW
HStem: -9 21G<107 107 370 370> 462 20G<116 116>
LayerCount: 2
Fore
SplineSet
469 465 m 1,0,-1
 295 245 l 1,1,-1
 299 242 l 1,2,-1
 464 6 l 1,3,-1
 370 -9 l 1,4,-1
 251 187 l 1,5,6
 174 89 174 89 107 -9 c 1,7,-1
 20 3 l 1,8,-1
 194 235 l 1,9,-1
 22 456 l 1,10,-1
 116 482 l 1,11,-1
 239 295 l 1,12,-1
 375 477 l 1,13,-1
 469 465 l 1,0,-1
EndSplineSet
EndChar

StartChar: y
Encoding: 121 121 95
Width: 490
Flags: HMW
HStem: -228 74<100 152.5 100 169.5> 464 20G<127 127>
LayerCount: 2
Fore
SplineSet
379 480 m 1,0,-1
 474 462 l 1,1,2
 331 74 331 74 306.5 -5 c 128,-1,3
 282 -84 282 -84 270.5 -112 c 128,-1,4
 259 -140 259 -140 237.5 -170.5 c 0,5,6
 196.967213115 -228 196.967213115 -228 113.483606557 -228 c 128,-1,7
 30 -228 30 -228 -29 -197 c 1,8,-1
 -4 -119 l 1,9,10
 57 -154 57 -154 122 -154 c 0,11,12
 166 -154 166 -154 193 -121.5 c 128,-1,13
 220 -89 220 -89 220 -49.5 c 128,-1,14
 220 -10 220 -10 187 76 c 1,15,-1
 29 461 l 1,16,-1
 127 484 l 1,17,-1
 265 90 l 1,18,-1
 379 480 l 1,0,-1
EndSplineSet
EndChar

StartChar: z
Encoding: 122 122 96
Width: 455
Flags: HMW
HStem: -7 21G<49 49> -1 21G<400 414> 1 67 402 78 462 20G<55 55 407 407>
LayerCount: 2
Fore
SplineSet
414 -1 m 1,0,-1
 259 1 l 1,1,2
 125 1 125 1 49 -7 c 1,3,-1
 40 64 l 1,4,-1
 321 409 l 1,5,6
 293.076923077 409.692307692 293.076923077 409.692307692 230.269230769 409.692307692 c 128,-1,7
 167.461538462 409.692307692 167.461538462 409.692307692 59 402 c 1,8,-1
 55 482 l 1,9,10
 121 480 121 480 230 480 c 128,-1,11
 339 480 339 480 407 482 c 1,12,-1
 410 419 l 1,13,-1
 140 63 l 1,14,-1
 415 74 l 1,15,-1
 414 -1 l 1,0,-1
EndSplineSet
EndChar

StartChar: eth
Encoding: 240 240 97
Width: 515
Flags: HMW
HStem: -5 78<208 291 208 301> 404 71<211 270.5 184.5 306.5> 710 20G<208 208>
VStem: 46 76<172 272 172 281> 398 74<210.5 295>
LayerCount: 2
Fore
SplineSet
411 678 m 1,0,-1
 333 619 l 1,1,2
 472 466 472 466 472 291 c 0,3,4
 472 153 472 153 405 74 c 128,-1,5
 338 -5 338 -5 231 -5 c 0,6,7
 155 -5 155 -5 100.5 51.5 c 128,-1,8
 46 108 46 108 46 213.5 c 128,-1,9
 46 319 46 319 101.5 397 c 128,-1,10
 157 475 157 475 248 475 c 0,11,12
 280 475 280 475 313 463.5 c 128,-1,13
 346 452 346 452 365 435 c 1,14,-1
 369 437 l 1,15,16
 357 488 357 488 273 575 c 1,17,-1
 196 517 l 1,18,-1
 152 566 l 1,19,-1
 226 620 l 1,20,21
 182 659 182 659 150 677 c 1,22,-1
 208 730 l 1,23,24
 243 706 243 706 287 665 c 1,25,-1
 369 726 l 1,26,-1
 411 678 l 1,0,-1
362.5 361.5 m 128,-1,28
 327 404 327 404 259.5 404 c 128,-1,29
 192 404 192 404 157 352.5 c 128,-1,30
 122 301 122 301 122 225.5 c 128,-1,31
 122 150 122 150 155.5 111.5 c 128,-1,32
 189 73 189 73 239 73 c 0,33,34
 313 73 313 73 355.5 127.5 c 128,-1,35
 398 182 398 182 398 250.5 c 128,-1,27
 398 319 398 319 362.5 361.5 c 128,-1,28
EndSplineSet
EndChar

StartChar: thorn
Encoding: 254 254 98
Width: 516
Flags: HMW
HStem: -229 21G<72 72> 0 77<242 310.5 235.5 334> 399 75<279.5 332> 712 20G<159 159>
VStem: 74 81 398 87<226 304.5>
LayerCount: 2
Fore
SplineSet
319 474 m 0,0,1
 399 474 399 474 442 420.5 c 128,-1,2
 485 367 485 367 485 293 c 128,-1,3
 485 219 485 219 459.5 155 c 128,-1,4
 434 91 434 91 382 45.5 c 128,-1,5
 330 0 330 0 267 0 c 128,-1,6
 204 0 204 0 159 39 c 1,7,-1
 165 -222 l 1,8,-1
 72 -229 l 1,9,10
 76 101 76 101 76 215.5 c 128,-1,11
 76 330 76 330 74 721 c 1,12,-1
 159 732 l 1,13,-1
 151 398 l 1,14,-1
 152 395 l 1,15,-1
 161 393 l 1,16,17
 188 421 188 421 204.5 435 c 128,-1,18
 221 449 221 449 251.5 461.5 c 128,-1,19
 282 474 282 474 319 474 c 0,0,1
185 115 m 128,-1,21
 217 77 217 77 271.5 77 c 128,-1,22
 326 77 326 77 362 138.5 c 128,-1,23
 398 200 398 200 398 263 c 128,-1,24
 398 326 398 326 372.5 362.5 c 128,-1,25
 347 399 347 399 291.5 399 c 128,-1,26
 236 399 236 399 194.5 349.5 c 128,-1,27
 153 300 153 300 153 226.5 c 128,-1,20
 153 153 153 153 185 115 c 128,-1,21
EndSplineSet
EndChar

StartChar: germandbls
Encoding: 223 223 99
Width: 601
Flags: HMW
HStem: -5 21G<76 76> -2 67<392 446.5 392 461.5> 619 75<249 321.5>
VStem: 88 79<456 456> 232 68<283 377.5 283 396.5> 402 76<538 557.5> 500 80<114.5 174.5>
LayerCount: 2
Fore
SplineSet
76 -5 m 1,0,-1
 80 385 l 1,1,-1
 18 383 l 1,2,-1
 17 415 l 1,3,-1
 88 456 l 1,4,5
 96 561 96 561 148.5 627.5 c 128,-1,6
 201 694 201 694 290 694 c 128,-1,7
 379 694 379 694 428.5 651 c 128,-1,8
 478 608 478 608 478 538 c 0,9,10
 478 503 478 503 459.5 477.5 c 128,-1,11
 441 452 441 452 415 436.5 c 128,-1,12
 389 421 389 421 362.5 407.5 c 0,13,14
 300 375.660377358 300 375.660377358 300 335 c 0,15,16
 300 285.317073171 300 285.317073171 399 266 c 0,17,18
 440 258 440 258 481 247.5 c 128,-1,19
 522 237 522 237 551 210.5 c 128,-1,20
 580 184 580 184 580 140 c 0,21,22
 580 77 580 77 532.5 37.5 c 128,-1,23
 485 -2 485 -2 420.5 -2 c 128,-1,24
 356 -2 356 -2 300.5 18.5 c 128,-1,25
 245 39 245 39 210 72 c 1,26,27
 222 86 222 86 256 133 c 1,28,29
 284 104 284 104 330.5 84.5 c 128,-1,30
 377 65 377 65 417 65 c 128,-1,31
 457 65 457 65 478.5 85 c 128,-1,32
 500 105 500 105 500 130 c 128,-1,33
 500 155 500 155 472.5 167.5 c 128,-1,34
 445 180 445 180 405.5 187.5 c 128,-1,35
 366 195 366 195 326.5 206.5 c 128,-1,36
 287 218 287 218 259.5 247 c 128,-1,37
 232 276 232 276 232 320 c 128,-1,38
 232 364 232 364 249.5 392 c 128,-1,39
 267 420 267 420 292 435 c 128,-1,40
 317 450 317 450 342 462 c 0,41,42
 402 490.8 402 490.8 402 537 c 0,43,44
 402 569 402 569 369.5 594 c 128,-1,45
 337 619 337 619 284.5 619 c 128,-1,46
 232 619 232 619 199.5 572 c 128,-1,47
 167 525 167 525 167 457 c 2,48,-1
 166 7 l 1,49,-1
 76 -5 l 1,0,-1
EndSplineSet
EndChar

StartChar: c_t
Encoding: 65537 -1 100
Width: 835
Flags: HMW
HStem: -7 75<647.5 713.5 647.5 722.5> -5 21G<159 276> 407 70<192 255 178.5 260> 646 66<439 492.5>
VStem: 32 80<194.5 279 194.5 292> 301 63<524 572 517.5 588> 519 81<191.5 249> 550 74<557 590>
LayerCount: 2
Fore
SplineSet
394 431 m 1,0,-1
 357 373 l 1,1,2
 339 386 339 386 303.5 396.5 c 128,-1,3
 268 407 268 407 241 407 c 0,4,5
 173 407 173 407 142.5 358 c 128,-1,6
 112 309 112 309 112 238.5 c 128,-1,7
 112 168 112 168 145 113 c 128,-1,8
 178 58 178 58 231 58 c 0,9,10
 271 58 271 58 313.5 78.5 c 128,-1,11
 356 99 356 99 376 126 c 1,12,-1
 417 75 l 1,13,14
 391 43 391 43 342 19 c 128,-1,15
 293 -5 293 -5 227 -5 c 0,16,17
 130 -5 130 -5 81 58 c 128,-1,18
 32 121 32 121 32 224 c 128,-1,19
 32 327 32 327 91.5 402 c 128,-1,20
 151 477 151 477 234 477 c 0,21,22
 286 477 286 477 315 465 c 1,23,24
 301 495 301 495 301 554.5 c 128,-1,25
 301 614 301 614 346 663 c 128,-1,26
 391 712 391 712 464.5 712 c 128,-1,27
 538 712 538 712 581 676 c 128,-1,28
 624 640 624 640 624 572 c 0,29,30
 624 553 624 553 611 478 c 1,31,-1
 746 490 l 1,32,-1
 726 413 l 1,33,-1
 608 409 l 1,34,35
 600 294 600 294 600 248 c 128,-1,36
 600 202 600 202 601 183 c 128,-1,37
 602 164 602 164 607.5 140.5 c 128,-1,38
 613 117 613 117 622 102.5 c 0,39,40
 643.413793103 68 643.413793103 68 689 68 c 0,41,42
 748 68 748 68 774 127 c 1,43,-1
 838 96 l 1,44,45
 815 47 815 47 778 20 c 128,-1,46
 741 -7 741 -7 675 -7 c 0,47,48
 519 -7 519 -7 519 217 c 1,49,-1
 525 402 l 1,50,-1
 450 400 l 1,51,-1
 457 440 l 1,52,-1
 535 474 l 1,53,54
 550 512 550 512 550 557 c 128,-1,55
 550 602 550 602 527.5 624 c 128,-1,56
 505 646 505 646 464 646 c 128,-1,57
 423 646 423 646 393.5 617 c 128,-1,58
 364 588 364 588 364 530.5 c 128,-1,59
 364 473 364 473 394 431 c 1,0,-1
EndSplineSet
EndChar

StartChar: f_b
Encoding: 65538 -1 101
Width: 829
Flags: HMW
HStem: -5 21G<74 74> -4 74<556.5 635.5 556.5 659.5> 405 71<604.5 655.5> 661 76<262 312 235.5 315>
VStem: 86 79<483 538 483 567.5> 388 95 720 91<220.5 302>
LayerCount: 2
Fore
SplineSet
74 -5 m 1,0,-1
 78 407 l 1,1,-1
 12 405 l 1,2,-1
 15 435 l 1,3,-1
 86 482 l 1,4,5
 86 605 86 605 144.5 671 c 128,-1,6
 203 737 203 737 291 737 c 0,7,8
 356 737 356 737 419 701 c 1,9,-1
 490 731 l 1,10,-1
 496 728 l 1,11,-1
 471 394 l 1,12,-1
 479 389 l 1,13,14
 506 417 506 417 524 432.5 c 128,-1,15
 542 448 542 448 574.5 462 c 128,-1,16
 607 476 607 476 644 476 c 0,17,18
 724 476 724 476 767.5 419 c 128,-1,19
 811 362 811 362 811 287.5 c 128,-1,20
 811 213 811 213 785.5 149.5 c 128,-1,21
 760 86 760 86 708 41 c 128,-1,22
 656 -4 656 -4 599 -4 c 128,-1,23
 542 -4 542 -4 506 11 c 128,-1,24
 470 26 470 26 447.5 51 c 128,-1,25
 425 76 425 76 411.5 114.5 c 0,26,27
 388 181.518518519 388 181.518518519 388 312.759259259 c 128,-1,28
 388 444 388 444 394 628 c 1,29,30
 346 661 346 661 294 661 c 128,-1,31
 242 661 242 661 203.5 612.5 c 128,-1,32
 165 564 165 564 165 483 c 1,33,-1
 319 489 l 1,34,-1
 304 404 l 1,35,-1
 162 407 l 1,36,-1
 164 7 l 1,37,-1
 74 -5 l 1,0,-1
600 70 m 0,38,39
 651 70 651 70 685.5 131.5 c 128,-1,40
 720 193 720 193 720 259.5 c 128,-1,41
 720 326 720 326 695 365.5 c 128,-1,42
 670 405 670 405 614 405 c 128,-1,43
 558 405 558 405 516 345.5 c 128,-1,44
 474 286 474 286 474 219 c 128,-1,45
 474 152 474 152 506 111 c 128,-1,46
 538 70 538 70 600 70 c 0,38,39
EndSplineSet
EndChar

StartChar: ff
Encoding: 64256 64256 102
Width: 614
Flags: HMW
HStem: -5 21G<74 74 364 364> 405 75 641 20G<261 316> 659 76<551.5 594> 716 20G<235.5 317>
VStem: 86 79<482 541 480 568.5> 368 87<407 539.5>
LayerCount: 2
Fore
SplineSet
364 -5 m 1,0,-1
 368 407 l 1,1,-1
 162 408 l 1,2,-1
 164 7 l 1,3,-1
 74 -5 l 1,4,-1
 78 407 l 1,5,-1
 12 405 l 1,6,-1
 15 435 l 1,7,-1
 86 482 l 1,8,9
 86 606 86 606 144 671 c 128,-1,10
 202 736 202 736 288 736 c 128,-1,11
 374 736 374 736 450 685 c 1,12,13
 502 735 502 735 572 735 c 128,-1,14
 642 735 642 735 710 692 c 1,15,-1
 678 624 l 1,16,17
 627 659 627 659 575.5 659 c 128,-1,18
 524 659 524 659 489.5 612.5 c 128,-1,19
 455 566 455 566 455 483 c 1,20,-1
 609 489 l 1,21,-1
 594 404 l 1,22,-1
 452 407 l 1,23,-1
 454 7 l 1,24,-1
 364 -5 l 1,0,-1
404 624 m 1,25,26
 362 661 362 661 300.5 661 c 128,-1,27
 239 661 239 661 202 614.5 c 128,-1,28
 165 568 165 568 165 480 c 1,29,-1
 376 481 l 1,30,31
 376 569 376 569 404 624 c 1,25,26
EndSplineSet
EndChar

StartChar: ffi
Encoding: 64259 64259 103
Width: 862
Flags: HMW
HStem: -5 21G<74 74> 409 73 544 193<568.5 736> 667 70<568.5 608>
VStem: 86 79<482 529.5 480 556.5> 374 85<410 540.5> 667 109<0 598.5> 688 88<419 419>
LayerCount: 2
Fore
SplineSet
74 -5 m 1,0,-1
 78 407 l 1,1,-1
 12 405 l 1,2,-1
 15 435 l 1,3,-1
 86 482 l 1,4,5
 86 592 86 592 151 663.5 c 128,-1,6
 216 735 216 735 308 735 c 0,7,8
 383 735 383 735 454 683 c 1,9,10
 505 737 505 737 587.5 737 c 128,-1,11
 670 737 670 737 728 700 c 128,-1,12
 786 663 786 663 786 607 c 0,13,14
 786 577 786 577 766 560.5 c 128,-1,15
 746 544 746 544 720.5 544 c 128,-1,16
 695 544 695 544 681 558 c 128,-1,17
 667 572 667 572 667 592 c 128,-1,18
 667 612 667 612 681 629 c 1,19,20
 640 667 640 667 589 667 c 128,-1,21
 538 667 538 667 498.5 616.5 c 128,-1,22
 459 566 459 566 459 482 c 1,23,-1
 776 483 l 1,24,-1
 776 0 l 1,25,-1
 697 -4 l 1,26,27
 697 93.2 697 93.2 693 231.6 c 128,-1,28
 689 370 689 370 688 419 c 1,29,-1
 456 413 l 1,30,-1
 457 7 l 1,31,-1
 372 -4 l 1,32,-1
 374 410 l 1,33,-1
 162 408 l 1,34,-1
 164 7 l 1,35,-1
 74 -5 l 1,0,-1
411 628 m 1,36,37
 366 662 366 662 317 662 c 0,38,39
 254 662 254 662 209.5 608.5 c 128,-1,40
 165 555 165 555 165 480 c 1,41,-1
 376 480 l 1,42,43
 376 560 376 560 411 628 c 1,36,37
EndSplineSet
EndChar

StartChar: ffl
Encoding: 64260 64260 104
Width: 873
Flags: HMW
HStem: -5 21G<74 74 370 370 700 700> 407 74 661 73<263.5 315.5 234 319 550.5 604.5>
VStem: 86 79<482 537.5 480 567.5> 374 87<407 538.5> 695 86
LayerCount: 2
Fore
SplineSet
74 -5 m 1,0,-1
 78 407 l 1,1,-1
 12 405 l 1,2,-1
 15 435 l 1,3,-1
 86 482 l 1,4,5
 86 605 86 605 143.5 669.5 c 128,-1,6
 201 734 201 734 286 734 c 128,-1,7
 371 734 371 734 449 683 c 1,8,9
 498 734 498 734 576 734 c 128,-1,10
 654 734 654 734 707 703 c 1,11,-1
 787 729 l 1,12,-1
 791 727 l 1,13,14
 782 342 782 342 782 276 c 2,15,-1
 780 1 l 1,16,-1
 700 -5 l 1,17,-1
 700 278 l 2,18,19
 700 284 700 284 695 628 c 1,20,21
 636 661 636 661 583 661 c 128,-1,22
 530 661 530 661 495.5 613.5 c 128,-1,23
 461 566 461 566 461 480 c 1,24,-1
 615 483 l 1,25,-1
 602 408 l 1,26,-1
 458 409 l 1,27,-1
 460 7 l 1,28,-1
 370 -5 l 1,29,-1
 374 407 l 1,30,-1
 162 408 l 1,31,-1
 164 7 l 1,32,-1
 74 -5 l 1,0,-1
408 622 m 1,33,34
 354 661 354 661 298 661 c 128,-1,35
 242 661 242 661 203.5 612.5 c 128,-1,36
 165 564 165 564 165 480 c 1,37,-1
 382 482 l 1,38,39
 382 563 382 563 408 622 c 1,33,34
EndSplineSet
EndChar

StartChar: f_h
Encoding: 65539 -1 105
Width: 843
Flags: HMW
HStem: -5 21G<74 74 399 399 702 702> 405 78 661 73<262 308 232.5 312.5>
VStem: 86 79<483 545 483 564.5> 389 95 706 83<103.5 320>
LayerCount: 2
Fore
SplineSet
74 -5 m 1,0,-1
 78 407 l 1,1,-1
 12 405 l 1,2,-1
 15 435 l 1,3,-1
 86 482 l 1,4,5
 86 601 86 601 143.5 667.5 c 128,-1,6
 201 734 201 734 289 734 c 0,7,8
 348 734 348 734 410 703 c 1,9,-1
 479 731 l 1,10,-1
 488 729 l 1,11,-1
 480 365 l 1,12,-1
 485 364 l 1,13,14
 506 419 506 419 553.5 451 c 128,-1,15
 601 483 601 483 656.5 483 c 128,-1,16
 712 483 712 483 751.5 440.5 c 128,-1,17
 791 398 791 398 791 315 c 2,18,-1
 789 142 l 1,19,-1
 794 1 l 1,20,-1
 702 -5 l 1,21,22
 706 187 706 187 706 262 c 128,-1,23
 706 337 706 337 685.5 366.5 c 128,-1,24
 665 396 665 396 630.5 396 c 128,-1,25
 596 396 596 396 558 360 c 128,-1,26
 520 324 520 324 503.5 274.5 c 128,-1,27
 487 225 487 225 487 119 c 128,-1,28
 487 13 487 13 491 1 c 1,29,-1
 399 -5 l 1,30,31
 395 250 395 250 395 337 c 128,-1,32
 395 424 395 424 389 632 c 1,33,34
 345 661 345 661 292.5 661 c 128,-1,35
 240 661 240 661 202.5 616 c 128,-1,36
 165 571 165 571 165 483 c 1,37,-1
 319 489 l 1,38,-1
 304 404 l 1,39,-1
 162 407 l 1,40,-1
 164 7 l 1,41,-1
 74 -5 l 1,0,-1
EndSplineSet
EndChar

StartChar: fi
Encoding: 64257 64257 106
Width: 543
Flags: HMW
HStem: -5 21G<80 80> 414 65 544 192<259 448> 659 77<267.5 318.5>
VStem: 92 79<482 530.5 476 570> 379 109<0 598.5> 400 88<419 419>
LayerCount: 2
Fore
SplineSet
80 -5 m 1,0,-1
 84 407 l 1,1,-1
 18 405 l 1,2,-1
 21 435 l 1,3,-1
 92 482 l 1,4,5
 92 605 92 605 158 670.5 c 128,-1,6
 224 736 224 736 311 736 c 0,7,8
 379 736 379 736 438.5 693.5 c 128,-1,9
 498 651 498 651 498 607 c 0,10,11
 498 577 498 577 478 560.5 c 128,-1,12
 458 544 458 544 434 544 c 128,-1,13
 410 544 410 544 394.5 556.5 c 128,-1,14
 379 569 379 569 379 590.5 c 128,-1,15
 379 612 379 612 390 627 c 1,16,-1
 390 631 l 1,17,18
 347 659 347 659 305 659 c 0,19,20
 248 659 248 659 209.5 608 c 128,-1,21
 171 557 171 557 171 476 c 1,22,-1
 488 483 l 1,23,-1
 488 0 l 1,24,-1
 409 -4 l 1,25,26
 409 93.2 409 93.2 405 231.6 c 128,-1,27
 401 370 401 370 400 419 c 1,28,-1
 168 409 l 1,29,-1
 170 7 l 1,30,-1
 80 -5 l 1,0,-1
EndSplineSet
EndChar

StartChar: fj
Encoding: 65540 -1 107
Width: 543
Flags: HMW
HStem: -213 81<264.5 320.5 264.5 357> 414 65 544 192<259 448> 659 77<267.5 318.5>
VStem: 92 79<482 530.5 476 570> 379 119<586 598.5> 400 86
LayerCount: 2
Fore
SplineSet
80 -5 m 1,0,-1
 84 407 l 1,1,-1
 18 405 l 1,2,-1
 21 435 l 1,3,-1
 92 482 l 1,4,5
 92 605 92 605 158 670.5 c 128,-1,6
 224 736 224 736 311 736 c 0,7,8
 379 736 379 736 438.5 693.5 c 128,-1,9
 498 651 498 651 498 607 c 0,10,11
 498 577 498 577 478 560.5 c 128,-1,12
 458 544 458 544 434 544 c 128,-1,13
 410 544 410 544 394.5 556.5 c 128,-1,14
 379 569 379 569 379 590.5 c 128,-1,15
 379 612 379 612 390 627 c 1,16,-1
 390 631 l 1,17,18
 347 659 347 659 305 659 c 0,19,20
 248 659 248 659 209.5 608 c 128,-1,21
 171 557 171 557 171 476 c 1,22,-1
 488 483 l 1,23,-1
 486 142 l 2,24,25
 484 -213 484 -213 267 -213 c 0,26,27
 206 -213 206 -213 147 -186 c 1,28,-1
 183 -103 l 1,29,30
 235 -132 235 -132 278 -132 c 0,31,32
 340 -132 340 -132 371.5 -73.5 c 128,-1,33
 403 -15 403 -15 404 85 c 1,34,35
 404 303 404 303 400 419 c 1,36,-1
 168 409 l 1,37,-1
 170 7 l 1,38,-1
 80 -5 l 1,0,-1
EndSplineSet
EndChar

StartChar: f_k
Encoding: 65541 -1 108
Width: 787
Flags: HMW
HStem: -12 21G<671 671> 405 81 660 75<265 311 237.5 314.5>
VStem: 86 79<483 547 483 569.5> 394 83
LayerCount: 2
Fore
SplineSet
74 -5 m 1,0,-1
 78 407 l 1,1,-1
 12 405 l 1,2,-1
 15 435 l 1,3,-1
 86 482 l 1,4,5
 86 606 86 606 145 670.5 c 128,-1,6
 204 735 204 735 291 735 c 0,7,8
 353 735 353 735 411 703 c 1,9,-1
 479 732 l 1,10,-1
 487 729 l 1,11,12
 479 384 479 384 479 318 c 2,13,-1
 479 278 l 1,14,15
 553 287 553 287 606.5 346 c 128,-1,16
 660 405 660 405 676 484 c 1,17,-1
 746 468 l 1,18,19
 746 419 746 419 706.5 358 c 128,-1,20
 667 297 667 297 607 257 c 1,21,-1
 767 8 l 1,22,-1
 671 -12 l 1,23,-1
 531 220 l 1,24,25
 506 211 506 211 478 208 c 1,26,-1
 476 1 l 1,27,-1
 395 -5 l 1,28,-1
 393 278 l 2,29,30
 393 371 393 371 388 631 c 1,31,32
 346 660 346 660 294 660 c 128,-1,33
 242 660 242 660 203.5 616.5 c 128,-1,34
 165 573 165 573 165 483 c 1,35,-1
 319 489 l 1,36,-1
 304 404 l 1,37,-1
 162 407 l 1,38,-1
 164 7 l 1,39,-1
 74 -5 l 1,0,-1
EndSplineSet
EndChar

StartChar: fl
Encoding: 64258 64258 109
Width: 574
Flags: HMW
HStem: -5 21G<80 80 410 410> 408 73 661 73<260.5 314.5>
VStem: 92 79<482 538.5 480 550.5> 405 86
LayerCount: 2
Fore
SplineSet
80 -5 m 1,0,-1
 84 407 l 1,1,-1
 18 405 l 1,2,-1
 21 435 l 1,3,-1
 92 482 l 1,4,5
 92 591 92 591 141.5 662.5 c 128,-1,6
 191 734 191 734 285 734 c 0,7,8
 364 734 364 734 417 703 c 1,9,-1
 497 729 l 1,10,-1
 501 727 l 1,11,12
 492 342 492 342 492 276 c 2,13,-1
 490 1 l 1,14,-1
 410 -5 l 1,15,-1
 410 278 l 2,16,17
 410 284 410 284 405 628 c 1,18,19
 346 661 346 661 293 661 c 128,-1,20
 240 661 240 661 205.5 613.5 c 128,-1,21
 171 566 171 566 171 480 c 1,22,-1
 325 483 l 1,23,-1
 312 408 l 1,24,-1
 168 409 l 1,25,-1
 170 7 l 1,26,-1
 80 -5 l 1,0,-1
EndSplineSet
EndChar

StartChar: f_t
Encoding: 65542 -1 110
Width: 731
Flags: HMW
HStem: -7 75<535.5 601.5 535.5 610.5> 405 73 405 207 654 80<228.5 301.5>
VStem: 86 79<482 526.5 478 547> 407 81<191.5 249>
LayerCount: 2
Fore
SplineSet
74 -5 m 1,0,-1
 78 407 l 1,1,-1
 12 405 l 1,2,-1
 15 435 l 1,3,-1
 86 482 l 1,4,5
 86 588 86 588 127 661 c 128,-1,6
 168 734 168 734 248 734 c 0,7,8
 298 734 298 734 339.5 726 c 128,-1,9
 381 718 381 718 398 709.5 c 2,10,-1
 415 701 l 1,11,-1
 392 618 l 1,12,13
 333 654 333 654 270 654 c 0,14,15
 165 654 165 654 165 478 c 1,16,-1
 418 479 l 1,17,-1
 446 612 l 1,18,-1
 514 612 l 1,19,-1
 499 478 l 1,20,-1
 634 490 l 1,21,-1
 614 413 l 1,22,-1
 496 409 l 1,23,24
 488 294 488 294 488 248 c 128,-1,25
 488 202 488 202 489 183 c 128,-1,26
 490 164 490 164 495.5 140.5 c 128,-1,27
 501 117 501 117 510 102.5 c 0,28,29
 531.413793103 68 531.413793103 68 577 68 c 0,30,31
 636 68 636 68 662 127 c 1,32,-1
 726 96 l 1,33,34
 703 47 703 47 666 20 c 128,-1,35
 629 -7 629 -7 563 -7 c 0,36,37
 407 -7 407 -7 407 217 c 1,38,-1
 413 404 l 1,39,-1
 162 407 l 1,40,-1
 164 7 l 1,41,-1
 74 -5 l 1,0,-1
EndSplineSet
EndChar

StartChar: g_j
Encoding: 65543 -1 111
Width: 794
Flags: HMW
HStem: -214 21G<211 290> -213 68 -213 81<491 551.5 491 588> -60 64<199 231.5> 35 81<187.5 251.5> 411 74<207 261 166 273.5> 534 108<658 688>
VStem: 36 84<227.5 297 227.5 319> 103 69<-105 -84.5 -105 -68.5> 370 84<74 80 74 313.5> 610 120<580.5 597.5> 635 82<41.5 117>
LayerCount: 2
Fore
SplineSet
375 -168 m 1,0,1
 331 -214 331 -214 259.5 -214 c 128,-1,2
 188 -214 188 -214 145.5 -178 c 128,-1,3
 103 -142 103 -142 103 -97.5 c 128,-1,4
 103 -53 103 -53 133.5 -24.5 c 128,-1,5
 164 4 164 4 218 4 c 0,6,7
 264.869565217 4 264.869565217 4 311.5 -28.5 c 0,8,9
 328 -40 328 -40 355 -62 c 1,10,11
 370 -12 370 -12 370 43.5 c 128,-1,12
 370 99 370 99 367 117 c 1,13,14
 307 35 307 35 227 35 c 0,15,16
 160 35 160 35 115 69 c 128,-1,17
 70 103 70 103 53 151 c 128,-1,18
 36 199 36 199 36 258 c 0,19,20
 36 356 36 356 86.5 420.5 c 128,-1,21
 137 485 137 485 229.5 485 c 128,-1,22
 322 485 322 485 367 429 c 1,23,-1
 376 432 l 1,24,-1
 387 490 l 1,25,-1
 451 484 l 1,26,27
 454 300 454 300 454 106 c 0,28,29
 454 -20 454 -20 416 -105 c 1,30,31
 462 -132 462 -132 509 -132 c 0,32,33
 635 -132 635 -132 635 81.5 c 128,-1,34
 635 295 635 295 631 411 c 1,35,-1
 569 411 l 1,36,-1
 574 478 l 1,37,-1
 715 480 l 1,38,39
 717 199 717 199 717 130 c 128,-1,40
 717 61 717 61 707.5 1 c 128,-1,41
 698 -59 698 -59 675 -110 c 0,42,43
 628.549019608 -213 628.549019608 -213 498 -213 c 0,44,45
 436 -213 436 -213 375 -168 c 1,0,1
330.5 165 m 128,-1,47
 370 214 370 214 370 272.5 c 128,-1,48
 370 331 370 331 330.5 371 c 128,-1,49
 291 411 291 411 240.5 411 c 128,-1,50
 190 411 190 411 155 365.5 c 128,-1,51
 120 320 120 320 120 261.5 c 128,-1,52
 120 203 120 203 146.5 159.5 c 128,-1,53
 173 116 173 116 232 116 c 128,-1,46
 291 116 291 116 330.5 165 c 128,-1,47
713.5 552 m 128,-1,55
 697 534 697 534 669 534 c 128,-1,56
 641 534 641 534 625.5 546.5 c 128,-1,57
 610 559 610 559 610 582.5 c 128,-1,58
 610 606 610 606 629 624 c 128,-1,59
 648 642 648 642 679 642 c 0,60,61
 730 642 730 642 730 597 c 0,62,54
 730 570 730 570 713.5 552 c 128,-1,55
193.5 -129 m 128,-1,64
 215 -145 215 -145 254.5 -145 c 128,-1,65
 294 -145 294 -145 320 -121 c 1,66,67
 287 -90 287 -90 262.5 -75 c 128,-1,68
 238 -60 238 -60 215.5 -60 c 128,-1,69
 193 -60 193 -60 182.5 -69.5 c 128,-1,70
 172 -79 172 -79 172 -96 c 128,-1,63
 172 -113 172 -113 193.5 -129 c 128,-1,64
EndSplineSet
EndChar

StartChar: g_y
Encoding: 65544 -1 112
Width: 1007
Flags: HMW
HStem: -216 74<587 654.5 587 671.5> -68 67<182.5 224.5> 35 81<187.5 251.5> 411 74<207 261 166 273.5> 470 20G<387 387>
VStem: 36 84<227.5 297 227.5 319> 53 81<-113 -95 -113 -76.5> 370 84<75 80 75 313.5>
LayerCount: 2
Fore
SplineSet
90 -30 m 128,-1,1
 127 -1 127 -1 200 -1 c 128,-1,2
 273 -1 273 -1 349 -34 c 1,3,4
 370 15 370 15 370 57 c 128,-1,5
 370 99 370 99 367 117 c 1,6,7
 307 35 307 35 227 35 c 0,8,9
 160 35 160 35 115 69 c 128,-1,10
 70 103 70 103 53 151 c 128,-1,11
 36 199 36 199 36 258 c 0,12,13
 36 356 36 356 86.5 420.5 c 128,-1,14
 137 485 137 485 229.5 485 c 128,-1,15
 322 485 322 485 367 429 c 1,16,-1
 376 432 l 1,17,-1
 387 490 l 1,18,-1
 451 484 l 1,19,20
 454 300 454 300 454 106 c 0,21,22
 454 7 454 7 423 -71 c 1,23,24
 472 -97 472 -97 491 -107 c 128,-1,25
 510 -117 510 -117 550 -129.5 c 128,-1,26
 590 -142 590 -142 630.5 -142 c 128,-1,27
 671 -142 671 -142 704 -114 c 128,-1,28
 737 -86 737 -86 737 -45 c 128,-1,29
 737 -4 737 -4 704 76 c 2,30,-1
 546 461 l 1,31,-1
 644 484 l 1,32,-1
 782 90 l 1,33,-1
 896 480 l 1,34,-1
 991 462 l 1,35,36
 848 74 848 74 817.5 -26 c 128,-1,37
 787 -126 787 -126 742 -171 c 128,-1,38
 697 -216 697 -216 608 -216 c 0,39,40
 542 -216 542 -216 490.5 -196 c 128,-1,41
 439 -176 439 -176 382 -140 c 1,42,43
 319 -216 319 -216 216 -216 c 0,44,45
 131 -216 131 -216 92 -184 c 128,-1,46
 53 -152 53 -152 53 -105.5 c 128,-1,0
 53 -59 53 -59 90 -30 c 128,-1,1
330.5 165 m 128,-1,48
 370 214 370 214 370 272.5 c 128,-1,49
 370 331 370 331 330.5 371 c 128,-1,50
 291 411 291 411 240.5 411 c 128,-1,51
 190 411 190 411 155 365.5 c 128,-1,52
 120 320 120 320 120 261.5 c 128,-1,53
 120 203 120 203 146.5 159.5 c 128,-1,54
 173 116 173 116 232 116 c 128,-1,47
 291 116 291 116 330.5 165 c 128,-1,48
209 -139 m 0,55,56
 267 -139 267 -139 309 -97 c 1,57,58
 253 -68 253 -68 213 -68 c 128,-1,59
 173 -68 173 -68 153.5 -78.5 c 128,-1,60
 134 -89 134 -89 134 -103.5 c 128,-1,61
 134 -118 134 -118 153.5 -128.5 c 128,-1,62
 173 -139 173 -139 209 -139 c 0,55,56
EndSplineSet
EndChar

StartChar: j_j
Encoding: 65545 -1 113
Width: 554
Flags: HMW
HStem: -216 21G<-43.5 17> -213 78<247.5 312.5 247.5 348> -60 64<-56 -24.5> 411 68 534 108<141 171 418 448>
VStem: -153 66<-106 -85 -106 -76.5> 93 120<580.5 597.5> 114 86 370 120<580.5 597.5> 391 86
LayerCount: 2
Fore
SplineSet
-11 -216 m 0,0,1
 -64 -216 -64 -216 -108.5 -183 c 128,-1,2
 -153 -150 -153 -150 -153 -98 c 0,3,4
 -153 -60 -153 -60 -125 -28 c 128,-1,5
 -97 4 -97 4 -41 4 c 0,6,7
 9 4 9 4 55.5 -27 c 0,8,9
 72 -38 72 -38 97 -59 c 1,10,11
 116 -9 116 -9 118 85 c 1,12,13
 118 295 118 295 114 411 c 1,14,-1
 52 411 l 1,15,-1
 57 478 l 1,16,-1
 198 480 l 1,17,18
 200 199 200 199 200 142 c 0,19,20
 200 -20 200 -20 160 -105 c 1,21,22
 213 -135 213 -135 272.5 -135 c 128,-1,23
 332 -135 332 -135 363 -75.5 c 128,-1,24
 394 -16 394 -16 395 85 c 1,25,26
 395 295 395 295 391 411 c 1,27,-1
 329 411 l 1,28,-1
 334 478 l 1,29,-1
 475 480 l 1,30,31
 477 199 477 199 477 142 c 0,32,33
 477 -213 477 -213 258 -213 c 0,34,35
 185 -213 185 -213 118 -167 c 1,36,37
 69 -216 69 -216 -11 -216 c 0,0,1
473.5 552 m 128,-1,39
 457 534 457 534 429 534 c 128,-1,40
 401 534 401 534 385.5 546.5 c 128,-1,41
 370 559 370 559 370 582.5 c 128,-1,42
 370 606 370 606 389 624 c 128,-1,43
 408 642 408 642 439 642 c 0,44,45
 490 642 490 642 490 597 c 0,46,38
 490 570 490 570 473.5 552 c 128,-1,39
196.5 552 m 128,-1,48
 180 534 180 534 152 534 c 128,-1,49
 124 534 124 534 108.5 546.5 c 128,-1,50
 93 559 93 559 93 582.5 c 128,-1,51
 93 606 93 606 112 624 c 128,-1,52
 131 642 131 642 162 642 c 0,53,54
 213 642 213 642 213 597 c 0,55,47
 213 570 213 570 196.5 552 c 128,-1,48
-67.5 -129.5 m 128,-1,57
 -48 -145 -48 -145 -10.5 -145 c 128,-1,58
 27 -145 27 -145 58 -119 c 1,59,60
 16.6440677966 -82.606779661 16.6440677966 -82.606779661 -4.17796610169 -71.3033898305 c 128,-1,61
 -25 -60 -25 -60 -44 -60 c 128,-1,62
 -63 -60 -63 -60 -75 -70 c 128,-1,63
 -87 -80 -87 -80 -87 -97 c 128,-1,56
 -87 -114 -87 -114 -67.5 -129.5 c 128,-1,57
EndSplineSet
EndChar

StartChar: j_y
Encoding: 65546 -1 114
Width: 767
Flags: HMW
HStem: -216 74<346.5 411.5 346.5 428.5> -68 67<-74 -16> 411 69<57 114 52 198> 534 108<141 171>
LayerCount: 2
Fore
SplineSet
137 -134 m 1,0,1
 83 -213 83 -213 -18 -213 c 128,-1,2
 -119 -213 -119 -213 -160.5 -160 c 0,3,4
 -181.762345679 -132.845679012 -181.762345679 -132.845679012 -181.762345679 -106.345679012 c 128,-1,5
 -181.762345679 -79.8456790123 -181.762345679 -79.8456790123 -162.5 -54 c 0,6,7
 -123 -1 -123 -1 -24 -1 c 0,8,9
 30 -1 30 -1 102 -32 c 1,10,11
 116 16 116 16 118 85 c 1,12,13
 118 295 118 295 114 411 c 1,14,-1
 52 411 l 1,15,-1
 57 480 l 1,16,-1
 198 480 l 1,17,18
 200 199 200 199 200 142 c 0,19,20
 200 14 200 14 171 -66 c 1,21,22
 225 -94 225 -94 245.5 -104.5 c 128,-1,23
 266 -115 266 -115 307.5 -128.5 c 128,-1,24
 349 -142 349 -142 388.5 -142 c 128,-1,25
 428 -142 428 -142 462.5 -114 c 128,-1,26
 497 -86 497 -86 497 -45 c 128,-1,27
 497 -4 497 -4 464 76 c 2,28,-1
 306 461 l 1,29,-1
 404 484 l 1,30,-1
 542 90 l 1,31,-1
 656 480 l 1,32,-1
 751 462 l 1,33,34
 608 74 608 74 577.5 -25.5 c 128,-1,35
 547 -125 547 -125 500.5 -170.5 c 128,-1,36
 454 -216 454 -216 365 -216 c 0,37,38
 328 -216 328 -216 283.5 -201.5 c 128,-1,39
 239 -187 239 -187 213.5 -174.5 c 128,-1,40
 188 -162 188 -162 137 -134 c 1,0,1
196.5 552 m 128,-1,42
 180 534 180 534 152 534 c 128,-1,43
 124 534 124 534 108.5 546.5 c 128,-1,44
 93 559 93 559 93 582.5 c 128,-1,45
 93 606 93 606 112 624 c 128,-1,46
 131 642 131 642 162 642 c 0,47,48
 213 642 213 642 213 597 c 0,49,41
 213 570 213 570 196.5 552 c 128,-1,42
-23 -138 m 0,50,51
 33 -138 33 -138 68 -97 c 1,52,53
 7 -68 7 -68 -38.0359444998 -68 c 128,-1,54
 -83.0718889995 -68 -83.0718889995 -68 -94.5435655977 -94.0881632653 c 0,55,56
 -96.8100230017 -99.2423977214 -96.8100230017 -99.2423977214 -96.8100230017 -103.936936962 c 0,57,58
 -96.8100230017 -118.942449437 -96.8100230017 -118.942449437 -75.4063414721 -128.471224719 c 128,-1,59
 -54.0026599425 -138 -54.0026599425 -138 -23 -138 c 0,50,51
EndSplineSet
EndChar

StartChar: s_b
Encoding: 65547 -1 115
Width: 929
Flags: HMW
HStem: -4 21G<590.5 742.5> -2 67<203 257.5 203 272.5> 410 66 651 81<457 476>
VStem: 41 71<288.5 357.5 288.5 378> 245 74<543.5 582.5 534 606> 311 80<115 172.5> 471 90 803 91<220.5 302>
LayerCount: 2
Fore
SplineSet
67 133 m 1,0,1
 95 104 95 104 141.5 84.5 c 128,-1,2
 188 65 188 65 228 65 c 128,-1,3
 268 65 268 65 289.5 85 c 128,-1,4
 311 105 311 105 311 129.5 c 128,-1,5
 311 154 311 154 283 166.5 c 128,-1,6
 255 179 255 179 215.5 186.5 c 128,-1,7
 176 194 176 194 136.5 206 c 128,-1,8
 97 218 97 218 69 247 c 128,-1,9
 41 276 41 276 41 323 c 0,10,11
 41 401 41 401 87 441 c 128,-1,12
 133 481 133 481 205 481 c 0,13,14
 237 481 237 481 266 474 c 1,15,16
 245 518 245 518 245 557 c 0,17,18
 245 635 245 635 326.5 683.5 c 128,-1,19
 408 732 408 732 569 732 c 1,20,-1
 554 394 l 1,21,-1
 562 389 l 1,22,23
 589 417 589 417 607 432.5 c 128,-1,24
 625 448 625 448 657.5 462 c 128,-1,25
 690 476 690 476 727 476 c 0,26,27
 807 476 807 476 850.5 419 c 128,-1,28
 894 362 894 362 894 287.5 c 128,-1,29
 894 213 894 213 868.5 149.5 c 128,-1,30
 843 86 843 86 791 41 c 128,-1,31
 739 -4 739 -4 682 -4 c 128,-1,32
 625 -4 625 -4 589 11 c 128,-1,33
 553 26 553 26 530.5 51 c 128,-1,34
 508 76 508 76 494.5 114.5 c 0,35,36
 471 181.518518519 471 181.518518519 471 288 c 0,37,38
 471 504 471 504 476 651 c 1,39,40
 401 651 401 651 360 624.5 c 128,-1,41
 319 598 319 598 319 553 c 0,42,43
 319 493 319 493 391 421 c 1,44,-1
 347 359 l 1,45,46
 324 380 324 380 281.5 395 c 128,-1,47
 239 410 239 410 199.5 410 c 128,-1,48
 160 410 160 410 136 389.5 c 128,-1,49
 112 369 112 369 112 331 c 0,50,51
 112 308 112 308 140.5 294.5 c 128,-1,52
 169 281 169 281 210 272.5 c 128,-1,53
 251 264 251 264 292.5 252 c 128,-1,54
 334 240 334 240 362.5 212 c 128,-1,55
 391 184 391 184 391 140 c 0,56,57
 391 77 391 77 343.5 37.5 c 128,-1,58
 296 -2 296 -2 231.5 -2 c 128,-1,59
 167 -2 167 -2 111.5 18.5 c 128,-1,60
 56 39 56 39 21 72 c 1,61,62
 33 86 33 86 67 133 c 1,0,1
683 70 m 0,63,64
 734 70 734 70 768.5 131.5 c 128,-1,65
 803 193 803 193 803 259.5 c 128,-1,66
 803 326 803 326 778 365.5 c 128,-1,67
 753 405 753 405 697 405 c 128,-1,68
 641 405 641 405 599 345.5 c 128,-1,69
 557 286 557 286 557 219 c 128,-1,70
 557 152 557 152 589 111 c 128,-1,71
 621 70 621 70 683 70 c 0,63,64
EndSplineSet
EndChar

StartChar: s_h
Encoding: 65548 -1 116
Width: 943
Flags: HMW
HStem: -5 21G<491 491 794 794> -2 67<203 257.5 203 272.5> 396 84<704.5 745> 410 70 653 78
VStem: 41 71<288.5 357.5 288.5 373> 247 144 311 80<115 172.5> 481 91 798 83<103.5 320>
LayerCount: 2
Fore
SplineSet
317.193548387 553.326742976 m 0,0,1
 317.193548387 483.751861042 317.193548387 483.751861042 387 422 c 1,2,-1
 350 355 l 1,3,4
 326 376 326 376 282 393 c 128,-1,5
 238 410 238 410 199 410 c 128,-1,6
 160 410 160 410 136 389.5 c 128,-1,7
 112 369 112 369 112 331 c 0,8,9
 112 308 112 308 140.5 294.5 c 128,-1,10
 169 281 169 281 210 272.5 c 128,-1,11
 251 264 251 264 292.5 252 c 128,-1,12
 334 240 334 240 362.5 212 c 128,-1,13
 391 184 391 184 391 140 c 0,14,15
 391 77 391 77 343.5 37.5 c 128,-1,16
 296 -2 296 -2 231.5 -2 c 128,-1,17
 167 -2 167 -2 111.5 18.5 c 128,-1,18
 56 39 56 39 21 72 c 1,19,20
 33 86 33 86 67 133 c 1,21,22
 95 104 95 104 141.5 84.5 c 128,-1,23
 188 65 188 65 228 65 c 128,-1,24
 268 65 268 65 289.5 85 c 128,-1,25
 311 105 311 105 311 129.5 c 128,-1,26
 311 154 311 154 283 166.5 c 128,-1,27
 255 179 255 179 215.5 186.5 c 128,-1,28
 176 194 176 194 136.5 206 c 128,-1,29
 97 218 97 218 69 247 c 128,-1,30
 41 276 41 276 41 323 c 0,31,32
 41 395 41 395 90.5 438 c 128,-1,33
 140 481 140 481 209 481 c 0,34,35
 235 481 235 481 267 476 c 1,36,37
 247 519 247 519 247 548 c 128,-1,38
 247 577 247 577 253.5 597.5 c 128,-1,39
 260 618 260 618 281 643 c 128,-1,40
 302 668 302 668 336 686 c 128,-1,41
 370 704 370 704 431 717 c 128,-1,42
 492 730 492 730 572 731 c 1,43,-1
 572 365 l 1,44,-1
 580 363 l 1,45,46
 588.169230769 376.615384615 588.169230769 376.615384615 610.084615385 400.307692308 c 128,-1,47
 632 424 632 424 651 439.5 c 128,-1,48
 670 455 670 455 697.5 467.5 c 128,-1,49
 725 480 725 480 751 480 c 0,50,51
 819 480 819 480 851 433.5 c 128,-1,52
 883 387 883 387 883 315 c 2,53,-1
 881 142 l 1,54,-1
 886 1 l 1,55,-1
 794 -5 l 1,56,57
 798 187 798 187 798 262 c 128,-1,58
 798 337 798 337 777.5 366.5 c 128,-1,59
 757 396 757 396 722.5 396 c 128,-1,60
 688 396 688 396 650 360 c 128,-1,61
 612 324 612 324 595.5 274.5 c 128,-1,62
 579 225 579 225 579 119 c 128,-1,63
 579 13 579 13 583 1 c 1,64,-1
 491 -5 l 1,65,66
 487 250 487 250 487 355.5 c 128,-1,67
 487 461 487 461 481 653 c 1,68,69
 416 653 416 653 376 636 c 128,-1,70
 336 619 336 619 326.596774194 596.774193548 c 128,-1,71
 317.193548387 574.548387097 317.193548387 574.548387097 317.193548387 553.326742976 c 0,0,1
EndSplineSet
EndChar

StartChar: s_k
Encoding: 65549 -1 117
Width: 887
Flags: HMW
HStem: -12 21G<771 771> -2 67<203 257.5 203 272.5> 410 71<174 218.5 165 226> 654 75
VStem: 41 71<288.5 357.5 288.5 373> 253 70<531.5 570 517.5 620.5> 311 80<115 172.5> 493 83<1 208 1 278 1 309>
LayerCount: 2
Fore
SplineSet
579 318 m 2,0,-1
 579 278 l 1,1,2
 653 287 653 287 706.5 346 c 128,-1,3
 760 405 760 405 776 484 c 1,4,-1
 846 468 l 1,5,6
 846 413 846 413 807 355 c 128,-1,7
 768 297 768 297 707 257 c 1,8,-1
 867 8 l 1,9,-1
 771 -12 l 1,10,-1
 631 220 l 1,11,12
 605 211 605 211 576 208 c 1,13,-1
 576 1 l 1,14,-1
 493 -5 l 1,15,-1
 493 278 l 2,16,17
 493 414 493 414 488 654 c 1,18,19
 403 654 403 654 363 622 c 128,-1,20
 323 590 323 590 323 541 c 0,21,22
 323 506 323 506 341 473 c 128,-1,23
 359 440 359 440 387 422 c 1,24,-1
 350 355 l 1,25,26
 326 376 326 376 282 393 c 128,-1,27
 238 410 238 410 199 410 c 128,-1,28
 160 410 160 410 136 389.5 c 128,-1,29
 112 369 112 369 112 331 c 0,30,31
 112 308 112 308 140.5 294.5 c 128,-1,32
 169 281 169 281 210 272.5 c 128,-1,33
 251 264 251 264 292.5 252 c 128,-1,34
 334 240 334 240 362.5 212 c 128,-1,35
 391 184 391 184 391 140 c 0,36,37
 391 77 391 77 343.5 37.5 c 128,-1,38
 296 -2 296 -2 231.5 -2 c 128,-1,39
 167 -2 167 -2 111.5 18.5 c 128,-1,40
 56 39 56 39 21 72 c 1,41,42
 33 86 33 86 67 133 c 1,43,44
 95 104 95 104 141.5 84.5 c 128,-1,45
 188 65 188 65 228 65 c 128,-1,46
 268 65 268 65 289.5 85 c 128,-1,47
 311 105 311 105 311 129.5 c 128,-1,48
 311 154 311 154 283 166.5 c 128,-1,49
 255 179 255 179 215.5 186.5 c 128,-1,50
 176 194 176 194 136.5 206 c 128,-1,51
 97 218 97 218 69 247 c 128,-1,52
 41 276 41 276 41 323 c 0,53,54
 41 395 41 395 90.5 438 c 128,-1,55
 140 481 140 481 209 481 c 0,56,57
 241 481 241 481 265 477 c 1,58,59
 253 508.5 253 508.5 253 553.25 c 128,-1,60
 253 598 253 598 281 637 c 128,-1,61
 309 676 309 676 357.5 695 c 0,62,63
 444.289473684 729 444.289473684 729 566 729 c 2,64,-1
 587 729 l 1,65,66
 579 384 579 384 579 318 c 2,0,-1
EndSplineSet
EndChar

StartChar: s_l
Encoding: 65550 -1 118
Width: 654
Flags: HMW
HStem: -5 21G<500 500> -2 67<203 257.5 203 272.5> 410 71<174 219 165 226> 657 72
VStem: 41 71<288.5 357.5 288.5 373> 248 77<542.5 577 527.5 589> 311 80<115 172.5> 500 80<1 276 1 278 1 310>
LayerCount: 2
Fore
SplineSet
67 133 m 1,0,1
 95 104 95 104 141.5 84.5 c 128,-1,2
 188 65 188 65 228 65 c 0,3,4
 268 65 268 65 289.5 85 c 128,-1,5
 311 105 311 105 311 129.5 c 0,6,7
 311 154 311 154 283 166.5 c 128,-1,8
 255 179 255 179 215.5 186.5 c 128,-1,9
 176 194 176 194 136.5 206 c 128,-1,10
 97 218 97 218 69 247 c 128,-1,11
 41 276 41 276 41 323 c 0,12,13
 41 395 41 395 90.5 438 c 128,-1,14
 140 481 140 481 209 481 c 0,15,16
 244 481 244 481 268 476 c 1,17,18
 248 519 248 519 248 552 c 0,19,20
 248 585 248 585 261 611.5 c 128,-1,21
 274 638 274 638 306 666.5 c 128,-1,22
 338 695 338 695 406 712 c 128,-1,23
 474 729 474 729 569 729 c 2,24,-1
 591 729 l 1,25,26
 580 388 580 388 580 276 c 2,27,-1
 580 1 l 1,28,-1
 500 -5 l 1,29,-1
 500 278 l 2,30,31
 500 420 500 420 495 657 c 1,32,33
 409 656 409 656 367 625.5 c 128,-1,34
 325 595 325 595 325 548 c 0,35,36
 325 484 325 484 387 422 c 1,37,-1
 350 355 l 1,38,39
 326 376 326 376 282 393 c 128,-1,40
 238 410 238 410 199 410 c 0,41,42
 160 410 160 410 136 389.5 c 128,-1,43
 112 369 112 369 112 331 c 0,44,45
 112 308 112 308 140.5 294.5 c 128,-1,46
 169 281 169 281 210 272.5 c 128,-1,47
 251 264 251 264 292.5 252 c 128,-1,48
 334 240 334 240 362.5 212 c 128,-1,49
 391 184 391 184 391 140 c 0,50,51
 391 77 391 77 343.5 37.5 c 128,-1,52
 296 -2 296 -2 231.5 -2 c 0,53,54
 167 -2 167 -2 111.5 18.5 c 128,-1,55
 56 39 56 39 21 72 c 1,56,57
 33 86 33 86 67 133 c 1,0,1
EndSplineSet
EndChar

StartChar: s_p
Encoding: 65551 -1 119
Width: 907
Flags: HMW
HStem: -229 21G<462 462> -2 67<203 257.5 203 272.5> -2 79 0 21G<632 724> 410 64 678 20G<490 568 568 568>
VStem: 41 75<288 361.5 288 373> 290 74<472 479 479 498 466 534.5> 311 80<115 172.5> 478 71 788 87<226 304.5>
LayerCount: 2
Fore
SplineSet
568 698 m 1,0,-1
 558 416 l 1,1,-1
 567 414 l 1,2,3
 641 474 641 474 715 474 c 128,-1,4
 789 474 789 474 832 420.5 c 128,-1,5
 875 367 875 367 875 293 c 128,-1,6
 875 219 875 219 849.5 155 c 128,-1,7
 824 91 824 91 772 45.5 c 128,-1,8
 720 0 720 0 657 0 c 128,-1,9
 594 0 594 0 549 39 c 1,10,-1
 555 -222 l 1,11,-1
 462 -229 l 1,12,13
 470 101 470 101 470 187 c 128,-1,14
 470 273 470 273 478 569 c 1,15,16
 460 555 460 555 427 538.5 c 128,-1,17
 394 522 394 522 379 509 c 128,-1,18
 364 496 364 496 364 472 c 128,-1,19
 364 448 364 448 387 422 c 1,20,-1
 350 355 l 1,21,22
 326 376 326 376 282 393 c 128,-1,23
 238 410 238 410 200 410 c 128,-1,24
 162 410 162 410 139 391 c 128,-1,25
 116 372 116 372 116 342 c 128,-1,26
 116 312 116 312 144.5 295 c 128,-1,27
 173 278 173 278 213.5 269.5 c 128,-1,28
 254 261 254 261 294 249.5 c 128,-1,29
 334 238 334 238 362.5 211 c 128,-1,30
 391 184 391 184 391 140 c 0,31,32
 391 77 391 77 343.5 37.5 c 128,-1,33
 296 -2 296 -2 231.5 -2 c 128,-1,34
 167 -2 167 -2 111.5 18.5 c 128,-1,35
 56 39 56 39 21 72 c 1,36,37
 33 86 33 86 67 133 c 1,38,39
 95 104 95 104 141.5 84.5 c 128,-1,40
 188 65 188 65 228 65 c 128,-1,41
 268 65 268 65 289.5 85 c 128,-1,42
 311 105 311 105 311 129.5 c 128,-1,43
 311 154 311 154 283 166.5 c 128,-1,44
 255 179 255 179 215.5 186.5 c 128,-1,45
 176 194 176 194 136.5 206 c 128,-1,46
 97 218 97 218 69 247 c 128,-1,47
 41 276 41 276 41 323 c 0,48,49
 41 395 41 395 89.5 438.5 c 128,-1,50
 138 482 138 482 207 482 c 0,51,52
 253 482 253 482 290 472 c 1,53,-1
 290 479 l 2,54,55
 290 516 290 516 320 545 c 128,-1,56
 350 574 350 574 386.5 590.5 c 128,-1,57
 423 607 423 607 455 635 c 128,-1,58
 487 663 487 663 490 698 c 1,59,-1
 568 698 l 1,0,-1
575 115 m 128,-1,61
 607 77 607 77 661.5 77 c 128,-1,62
 716 77 716 77 752 138.5 c 128,-1,63
 788 200 788 200 788 263 c 128,-1,64
 788 326 788 326 762.5 362.5 c 128,-1,65
 737 399 737 399 681.5 399 c 128,-1,66
 626 399 626 399 584.5 349.5 c 128,-1,67
 543 300 543 300 543 226.5 c 128,-1,60
 543 153 543 153 575 115 c 128,-1,61
EndSplineSet
EndChar

StartChar: s_t
Encoding: 64262 64262 120
Width: 804
Flags: HMW
HStem: -7 21G<606.5 712.5> -2 70 410 71<174 226> 644 67<427.5 475>
VStem: 41 71<288.5 357.5 288.5 373> 286 68<531 577 520 600> 311 80<113.5 174.5> 509 81<191.5 249> 539 72<557 589>
LayerCount: 2
Fore
SplineSet
67 133 m 1,0,1
 95 104 95 104 141.5 84.5 c 128,-1,2
 188 65 188 65 228 65 c 128,-1,3
 268 65 268 65 289.5 84.5 c 128,-1,4
 311 104 311 104 311 129.5 c 128,-1,5
 311 155 311 155 283 168 c 128,-1,6
 255 181 255 181 215.5 188.5 c 128,-1,7
 176 196 176 196 136.5 207 c 128,-1,8
 97 218 97 218 69 247 c 128,-1,9
 41 276 41 276 41 323 c 0,10,11
 41 395 41 395 90.5 438 c 128,-1,12
 140 481 140 481 209 481 c 0,13,14
 250 481 250 481 307 465 c 1,15,16
 286 499 286 499 286 546 c 0,17,18
 286 623 286 623 339 667 c 128,-1,19
 392 711 392 711 461.5 711 c 128,-1,20
 531 711 531 711 571 674.5 c 128,-1,21
 611 638 611 638 611 572 c 0,22,23
 611 536 611 536 601 478 c 1,24,-1
 736 490 l 1,25,-1
 716 413 l 1,26,-1
 598 409 l 1,27,28
 590 294 590 294 590 248 c 128,-1,29
 590 202 590 202 591 183 c 128,-1,30
 592 164 592 164 597.5 140.5 c 128,-1,31
 603 117 603 117 612 102.5 c 0,32,33
 633.413793103 68 633.413793103 68 679 68 c 0,34,35
 738 68 738 68 764 127 c 1,36,-1
 828 96 l 1,37,38
 805 47 805 47 768 20 c 128,-1,39
 731 -7 731 -7 665 -7 c 0,40,41
 509 -7 509 -7 509 217 c 1,42,-1
 515 402 l 1,43,-1
 440 400 l 1,44,-1
 447 440 l 1,45,-1
 525 474 l 1,46,47
 539 510 539 510 539 555 c 128,-1,48
 539 600 539 600 513.5 622 c 128,-1,49
 488 644 488 644 449.5 644 c 128,-1,50
 411 644 411 644 382.5 618 c 128,-1,51
 354 592 354 592 354 530 c 128,-1,52
 354 468 354 468 387 422 c 1,53,-1
 350 355 l 1,54,55
 326 376 326 376 282 393 c 128,-1,56
 238 410 238 410 199 410 c 128,-1,57
 160 410 160 410 136 389.5 c 128,-1,58
 112 369 112 369 112 331 c 0,59,60
 112 308 112 308 140.5 294.5 c 128,-1,61
 169 281 169 281 210 272.5 c 128,-1,62
 251 264 251 264 292.5 252 c 128,-1,63
 334 240 334 240 362.5 212 c 128,-1,64
 391 184 391 184 391 140 c 0,65,66
 391 77 391 77 343.5 37.5 c 128,-1,67
 296 -2 296 -2 231.5 -2 c 128,-1,68
 167 -2 167 -2 111.5 18.5 c 128,-1,69
 56 39 56 39 21 72 c 1,70,71
 33 86 33 86 67 133 c 1,0,1
EndSplineSet
EndChar

StartChar: q_j
Encoding: 65552 -1 121
Width: 809
Flags: HMW
HStem: -215 78<506.5 566.5 506.5 588.5> -5 82<203.5 251.5> 401 74<220.5 293 196 300.5> 534 108<673 703>
VStem: 42 92<169 251 169 253> 376 83 376 95 625 120<580.5 597.5> 646 86
LayerCount: 2
Fore
SplineSet
471 487 m 1,0,-1
 459 -128 l 1,1,2
 490 -137 490 -137 515 -137 c 0,3,4
 648 -137 648 -137 649 79 c 128,-1,5
 650 295 650 295 646 411 c 1,6,-1
 584 411 l 1,7,-1
 589 478 l 1,8,-1
 730 480 l 1,9,10
 732 199 732 199 732 142 c 0,11,12
 732 -20 732 -20 677.5 -117.5 c 128,-1,13
 623 -215 623 -215 505 -215 c 0,14,15
 447 -215 447 -215 371 -188 c 1,16,-1
 382 74 l 1,17,-1
 377 78 l 1,18,19
 339 37 339 37 302.5 16 c 128,-1,20
 266 -5 266 -5 212 -5 c 0,21,22
 129 -5 129 -5 85.5 49.5 c 128,-1,23
 42 104 42 104 42 179.5 c 128,-1,24
 42 255 42 255 68 319.5 c 128,-1,25
 94 384 94 384 147 429.5 c 128,-1,26
 200 475 200 475 268.5 475 c 128,-1,27
 337 475 337 475 395 415 c 1,28,-1
 404 416 l 1,29,-1
 410 489 l 1,30,-1
 471 487 l 1,0,-1
348.5 359 m 128,-1,32
 318 401 318 401 261 401 c 128,-1,33
 204 401 204 401 169 340 c 128,-1,34
 134 279 134 279 134 206 c 0,35,36
 134 77 134 77 244 77 c 0,37,38
 303 77 303 77 341 130 c 128,-1,39
 379 183 379 183 379 250 c 128,-1,31
 379 317 379 317 348.5 359 c 128,-1,32
728.5 552 m 128,-1,41
 712 534 712 534 684 534 c 128,-1,42
 656 534 656 534 640.5 546.5 c 128,-1,43
 625 559 625 559 625 582.5 c 128,-1,44
 625 606 625 606 644 624 c 128,-1,45
 663 642 663 642 694 642 c 0,46,47
 745 642 745 642 745 597 c 0,48,40
 745 570 745 570 728.5 552 c 128,-1,41
EndSplineSet
EndChar

StartChar: q_y
Encoding: 65553 -1 122
Width: 1022
Flags: HMW
HStem: -228 74<618.5 684.5 618.5 701.5> -209 55 -209 72<505 537.5> -5 82<203.5 251.5> 401 74<220.5 293 196 300.5> 469 20G<410 410>
VStem: 42 92<169 251 169 253> 376 83
LayerCount: 2
Fore
SplineSet
212 -5 m 0,0,1
 129 -5 129 -5 85.5 49.5 c 128,-1,2
 42 104 42 104 42 179.5 c 128,-1,3
 42 255 42 255 68 319.5 c 128,-1,4
 94 384 94 384 147 429.5 c 128,-1,5
 200 475 200 475 268.5 475 c 128,-1,6
 337 475 337 475 395 415 c 1,7,-1
 404 416 l 1,8,-1
 410 489 l 1,9,-1
 471 487 l 1,10,11
 468 374 468 374 464.5 161.5 c 128,-1,12
 461 -51 461 -51 459 -140 c 1,13,14
 491 -137 491 -137 516.5 -137 c 128,-1,15
 542 -137 542 -137 579.5 -145.5 c 128,-1,16
 617 -154 617 -154 657.5 -154 c 128,-1,17
 698 -154 698 -154 725 -121.5 c 128,-1,18
 752 -89 752 -89 752 -49.5 c 128,-1,19
 752 -10 752 -10 719 76 c 1,20,-1
 561 461 l 1,21,-1
 659 484 l 1,22,-1
 797 90 l 1,23,-1
 911 480 l 1,24,-1
 1006 462 l 1,25,26
 863 74 863 74 838.5 -5 c 128,-1,27
 814 -84 814 -84 802.5 -112 c 128,-1,28
 791 -140 791 -140 769.5 -170.5 c 0,29,30
 728.967213115 -228 728.967213115 -228 638 -228 c 0,31,32
 610 -228 610 -228 573.5 -218.5 c 128,-1,33
 537 -209 537 -209 509 -209 c 128,-1,34
 481 -209 481 -209 430 -216 c 2,35,-1
 371 -223 l 1,36,-1
 382 74 l 1,37,-1
 377 78 l 1,38,39
 339 37 339 37 302.5 16 c 128,-1,40
 266 -5 266 -5 212 -5 c 0,0,1
348.5 359 m 128,-1,42
 318 401 318 401 261 401 c 128,-1,43
 204 401 204 401 169 340 c 128,-1,44
 134 279 134 279 134 206 c 0,45,46
 134 77 134 77 244 77 c 0,47,48
 303 77 303 77 341 130 c 128,-1,49
 379 183 379 183 379 250 c 128,-1,41
 379 317 379 317 348.5 359 c 128,-1,42
EndSplineSet
EndChar

StartChar: agrave
Encoding: 224 224 123
Width: 414
Flags: HMW
HStem: -8 67<170.5 205.5> -1 21G<312 383 312 312> 216 65<169.5 207.5 148 223.5> 409 72<185.5 234> 673 20G<160 160>
VStem: 30 81<118.5 158 118.5 178.5> 297 86
LayerCount: 2
Fore
SplineSet
71.5 30.5 m 128,-1,1
 30 69 30 69 30 134 c 128,-1,2
 30 199 30 199 77 240 c 128,-1,3
 124 281 124 281 188 281 c 128,-1,4
 252 281 252 281 297 240 c 1,5,-1
 297 278 l 2,6,7
 297 340 297 340 272.5 374.5 c 128,-1,8
 248 409 248 409 212 409 c 128,-1,9
 176 409 176 409 149.5 392.5 c 128,-1,10
 123 376 123 376 94 342 c 1,11,-1
 49 393 l 1,12,13
 117 481 117 481 220 481 c 0,14,15
 382 481 382 481 382 298 c 128,-1,16
 382 115 382 115 383 -1 c 1,17,-1
 312 -1 l 1,18,-1
 309 43 l 1,19,-1
 306 45 l 1,20,21
 292 25 292 25 254.5 8.5 c 128,-1,22
 217 -8 217 -8 178 -8 c 0,23,0
 113 -8 113 -8 71.5 30.5 c 128,-1,1
298 140 m 1,24,25
 297 176 297 176 268 196 c 128,-1,26
 239 216 239 216 198 216 c 128,-1,27
 157 216 157 216 134 193 c 128,-1,28
 111 170 111 170 111 138 c 128,-1,29
 111 106 111 106 134.5 82.5 c 128,-1,30
 158 59 158 59 199 59 c 128,-1,31
 240 59 240 59 268.5 79.5 c 128,-1,32
 297 100 297 100 298 140 c 1,24,25
160 693 m 1,33,-1
 261 551 l 1,34,-1
 206 516 l 1,35,-1
 78 658 l 1,36,-1
 160 693 l 1,33,-1
EndSplineSet
EndChar

StartChar: acircumflex
Encoding: 226 226 124
Width: 414
Flags: HMW
HStem: -8 67<170.5 205.5> -1 21G<312 383 312 312> 216 65<169.5 207.5 148 223.5> 409 72<185.5 234> 673 20G<207 229 229 229>
VStem: 30 81<118.5 158 118.5 178.5> 297 86
LayerCount: 2
Fore
SplineSet
71.5 30.5 m 128,-1,1
 30 69 30 69 30 134 c 128,-1,2
 30 199 30 199 77 240 c 128,-1,3
 124 281 124 281 188 281 c 128,-1,4
 252 281 252 281 297 240 c 1,5,-1
 297 278 l 2,6,7
 297 340 297 340 272.5 374.5 c 128,-1,8
 248 409 248 409 212 409 c 128,-1,9
 176 409 176 409 149.5 392.5 c 128,-1,10
 123 376 123 376 94 342 c 1,11,-1
 49 393 l 1,12,13
 117 481 117 481 220 481 c 0,14,15
 382 481 382 481 382 298 c 128,-1,16
 382 115 382 115 383 -1 c 1,17,-1
 312 -1 l 1,18,-1
 309 43 l 1,19,-1
 306 45 l 1,20,21
 292 25 292 25 254.5 8.5 c 128,-1,22
 217 -8 217 -8 178 -8 c 0,23,0
 113 -8 113 -8 71.5 30.5 c 128,-1,1
298 140 m 1,24,25
 297 176 297 176 268 196 c 128,-1,26
 239 216 239 216 198 216 c 128,-1,27
 157 216 157 216 134 193 c 128,-1,28
 111 170 111 170 111 138 c 128,-1,29
 111 106 111 106 134.5 82.5 c 128,-1,30
 158 59 158 59 199 59 c 128,-1,31
 240 59 240 59 268.5 79.5 c 128,-1,32
 297 100 297 100 298 140 c 1,24,25
277 516 m 1,33,-1
 218 620 l 1,34,-1
 158 516 l 1,35,-1
 76 551 l 1,36,-1
 207 693 l 1,37,-1
 229 693 l 1,38,-1
 359 551 l 1,39,-1
 277 516 l 1,33,-1
EndSplineSet
EndChar

StartChar: aacute
Encoding: 225 225 125
Width: 414
Flags: HMW
HStem: -8 67<170.5 205.5> -1 21G<312 383 312 312> 216 65<169.5 207.5 148 223.5> 409 72<185.5 234> 673 20G<283 283>
VStem: 30 81<118.5 158 118.5 178.5> 297 86
LayerCount: 2
Fore
SplineSet
71.5 30.5 m 128,-1,1
 30 69 30 69 30 134 c 128,-1,2
 30 199 30 199 77 240 c 128,-1,3
 124 281 124 281 188 281 c 128,-1,4
 252 281 252 281 297 240 c 1,5,-1
 297 278 l 2,6,7
 297 340 297 340 272.5 374.5 c 128,-1,8
 248 409 248 409 212 409 c 128,-1,9
 176 409 176 409 149.5 392.5 c 128,-1,10
 123 376 123 376 94 342 c 1,11,-1
 49 393 l 1,12,13
 117 481 117 481 220 481 c 0,14,15
 382 481 382 481 382 298 c 128,-1,16
 382 115 382 115 383 -1 c 1,17,-1
 312 -1 l 1,18,-1
 309 43 l 1,19,-1
 306 45 l 1,20,21
 292 25 292 25 254.5 8.5 c 128,-1,22
 217 -8 217 -8 178 -8 c 0,23,0
 113 -8 113 -8 71.5 30.5 c 128,-1,1
298 140 m 1,24,25
 297 176 297 176 268 196 c 128,-1,26
 239 216 239 216 198 216 c 128,-1,27
 157 216 157 216 134 193 c 128,-1,28
 111 170 111 170 111 138 c 128,-1,29
 111 106 111 106 134.5 82.5 c 128,-1,30
 158 59 158 59 199 59 c 128,-1,31
 240 59 240 59 268.5 79.5 c 128,-1,32
 297 100 297 100 298 140 c 1,24,25
182 551 m 1,33,-1
 283 693 l 1,34,-1
 365 658 l 1,35,-1
 237 516 l 1,36,-1
 182 551 l 1,33,-1
EndSplineSet
EndChar

StartChar: adieresis
Encoding: 228 228 126
Width: 414
Flags: HMW
HStem: -8 67<170.5 205.5> -1 21G<312 383 312 312> 216 65<169.5 207.5 148 223.5> 409 72<185.5 234> 526 110<128 142 301 315.5>
VStem: 30 81<118.5 158 118.5 178.5> 86 98<571.5 596.5> 257 98<571.5 596.5> 297 86
LayerCount: 2
Fore
SplineSet
71.5 30.5 m 128,-1,1
 30 69 30 69 30 134 c 128,-1,2
 30 199 30 199 77 240 c 128,-1,3
 124 281 124 281 188 281 c 128,-1,4
 252 281 252 281 297 240 c 1,5,-1
 297 278 l 2,6,7
 297 340 297 340 272.5 374.5 c 128,-1,8
 248 409 248 409 212 409 c 128,-1,9
 176 409 176 409 149.5 392.5 c 128,-1,10
 123 376 123 376 94 342 c 1,11,-1
 49 393 l 1,12,13
 117 481 117 481 220 481 c 0,14,15
 382 481 382 481 382 298 c 128,-1,16
 382 115 382 115 383 -1 c 1,17,-1
 312 -1 l 1,18,-1
 309 43 l 1,19,-1
 306 45 l 1,20,21
 292 25 292 25 254.5 8.5 c 128,-1,22
 217 -8 217 -8 178 -8 c 0,23,0
 113 -8 113 -8 71.5 30.5 c 128,-1,1
298 140 m 1,24,25
 297 176 297 176 268 196 c 128,-1,26
 239 216 239 216 198 216 c 128,-1,27
 157 216 157 216 134 193 c 128,-1,28
 111 170 111 170 111 138 c 128,-1,29
 111 106 111 106 134.5 82.5 c 128,-1,30
 158 59 158 59 199 59 c 128,-1,31
 240 59 240 59 268.5 79.5 c 128,-1,32
 297 100 297 100 298 140 c 1,24,25
269 541 m 128,-1,34
 257 556 257 556 257 580.5 c 128,-1,35
 257 605 257 605 274.5 620.5 c 128,-1,36
 292 636 292 636 313 636 c 128,-1,37
 334 636 334 636 344.5 623 c 128,-1,38
 355 610 355 610 355 586 c 128,-1,39
 355 562 355 562 339.5 544 c 128,-1,40
 324 526 324 526 302.5 526 c 128,-1,33
 281 526 281 526 269 541 c 128,-1,34
97.5 540.5 m 128,-1,42
 86 555 86 555 86 580.5 c 128,-1,43
 86 606 86 606 102 621 c 128,-1,44
 118 636 118 636 140.5 636 c 0,45,46
 184 636 184 636 184 590 c 0,47,48
 184 563 184 563 167 544.5 c 128,-1,49
 150 526 150 526 129.5 526 c 128,-1,41
 109 526 109 526 97.5 540.5 c 128,-1,42
EndSplineSet
EndChar

StartChar: atilde
Encoding: 227 227 127
Width: 414
Flags: HMW
HStem: -8 67<170.5 205.5> -1 21G<312 383 312 312> 216 65<169.5 207.5 148 223.5> 409 72<185.5 234> 544 77<272.5 279 253 311.5> 589 32 589 66<147.5 172.5 132 178.5> 642 20G<319 319>
VStem: 30 81<118.5 158 118.5 178.5> 297 86
LayerCount: 2
Fore
SplineSet
71.5 30.5 m 128,-1,1
 30 69 30 69 30 134 c 128,-1,2
 30 199 30 199 77 240 c 128,-1,3
 124 281 124 281 188 281 c 128,-1,4
 252 281 252 281 297 240 c 1,5,-1
 297 278 l 2,6,7
 297 340 297 340 272.5 374.5 c 128,-1,8
 248 409 248 409 212 409 c 128,-1,9
 176 409 176 409 149.5 392.5 c 128,-1,10
 123 376 123 376 94 342 c 1,11,-1
 49 393 l 1,12,13
 117 481 117 481 220 481 c 0,14,15
 382 481 382 481 382 298 c 128,-1,16
 382 115 382 115 383 -1 c 1,17,-1
 312 -1 l 1,18,-1
 309 43 l 1,19,-1
 306 45 l 1,20,21
 292 25 292 25 254.5 8.5 c 128,-1,22
 217 -8 217 -8 178 -8 c 0,23,0
 113 -8 113 -8 71.5 30.5 c 128,-1,1
298 140 m 1,24,25
 297 176 297 176 268 196 c 128,-1,26
 239 216 239 216 198 216 c 128,-1,27
 157 216 157 216 134 193 c 128,-1,28
 111 170 111 170 111 138 c 128,-1,29
 111 106 111 106 134.5 82.5 c 128,-1,30
 158 59 158 59 199 59 c 128,-1,31
 240 59 240 59 268.5 79.5 c 128,-1,32
 297 100 297 100 298 140 c 1,24,25
104 543 m 1,33,-1
 38 573 l 1,34,35
 88 655 88 655 149 655 c 0,36,37
 174 655 174 655 214.5 638 c 128,-1,38
 255 621 255 621 270 621 c 0,39,40
 300 621 300 621 319 662 c 1,41,-1
 382 627 l 1,42,43
 349 544 349 544 296 544 c 0,44,45
 272 544 272 544 225 566.5 c 128,-1,46
 178 589 178 589 158 589 c 0,47,48
 123 589 123 589 104 543 c 1,33,-1
EndSplineSet
EndChar

StartChar: aring
Encoding: 229 229 128
Width: 414
Flags: HMW
HStem: -8 67<170.5 205.5> -1 21G<312 383 312 312> 216 65<169.5 207.5 148 223.5> 409 72<185.5 234> 521 54<217 244 217 266> 667 55<221.5 254.5>
VStem: 30 81<118.5 158 118.5 178.5> 135 55<609 632 609 643> 274 56<605 629> 297 86
LayerCount: 2
Fore
SplineSet
71.5 30.5 m 128,-1,1
 30 69 30 69 30 134 c 128,-1,2
 30 199 30 199 77 240 c 128,-1,3
 124 281 124 281 188 281 c 128,-1,4
 252 281 252 281 297 240 c 1,5,-1
 297 278 l 2,6,7
 297 340 297 340 272.5 374.5 c 128,-1,8
 248 409 248 409 212 409 c 128,-1,9
 176 409 176 409 149.5 392.5 c 128,-1,10
 123 376 123 376 94 342 c 1,11,-1
 49 393 l 1,12,13
 117 481 117 481 220 481 c 0,14,15
 382 481 382 481 382 298 c 128,-1,16
 382 115 382 115 383 -1 c 1,17,-1
 312 -1 l 1,18,-1
 309 43 l 1,19,-1
 306 45 l 1,20,21
 292 25 292 25 254.5 8.5 c 128,-1,22
 217 -8 217 -8 178 -8 c 0,23,0
 113 -8 113 -8 71.5 30.5 c 128,-1,1
298 140 m 1,24,25
 297 176 297 176 268 196 c 128,-1,26
 239 216 239 216 198 216 c 128,-1,27
 157 216 157 216 134 193 c 128,-1,28
 111 170 111 170 111 138 c 128,-1,29
 111 106 111 106 134.5 82.5 c 128,-1,30
 158 59 158 59 199 59 c 128,-1,31
 240 59 240 59 268.5 79.5 c 128,-1,32
 297 100 297 100 298 140 c 1,24,25
162.5 690.5 m 128,-1,34
 190 722 190 722 237 722 c 128,-1,35
 284 722 284 722 307 695.5 c 128,-1,36
 330 669 330 669 330 628 c 128,-1,37
 330 587 330 587 304.5 554 c 128,-1,38
 279 521 279 521 234 521 c 128,-1,39
 189 521 189 521 162 549.5 c 128,-1,40
 135 578 135 578 135 618.5 c 128,-1,33
 135 659 135 659 162.5 690.5 c 128,-1,34
230 575 m 0,41,42
 274 575 274 575 274 621 c 128,-1,43
 274 667 274 667 238 667 c 0,44,45
 215 667 215 667 202.5 653.5 c 128,-1,46
 190 640 190 640 190 621 c 128,-1,47
 190 602 190 602 201 588.5 c 128,-1,48
 212 575 212 575 230 575 c 0,41,42
EndSplineSet
EndChar

StartChar: ae
Encoding: 230 230 129
Width: 713
Flags: HMW
HStem: -8 69 -5 21G<457.5 545> 203 57 216 65<169.5 207.5 148 223.5> 409 68 467 20G<183 250.5>
VStem: 30 81<118.5 158 118.5 178.5> 297 84<158 278 158 321> 604 78<265 307>
LayerCount: 2
Fore
SplineSet
676 204 m 1,0,-1
 381 202 l 1,1,2
 381 138 381 138 417 99.5 c 128,-1,3
 453 61 453 61 498 61 c 128,-1,4
 543 61 543 61 575.5 75.5 c 128,-1,5
 608 90 608 90 621.5 104.5 c 2,6,-1
 635 119 l 1,7,-1
 676 65 l 1,8,9
 618 -5 618 -5 501 -5 c 128,-1,10
 384 -5 384 -5 333 72 c 1,11,12
 281 -8 281 -8 178 -8 c 0,13,14
 113 -8 113 -8 71.5 30.5 c 128,-1,15
 30 69 30 69 30 134 c 128,-1,16
 30 199 30 199 77 240 c 128,-1,17
 124 281 124 281 188 281 c 128,-1,18
 252 281 252 281 297 240 c 1,19,-1
 297 278 l 2,20,21
 297 340 297 340 272.5 374.5 c 128,-1,22
 248 409 248 409 212 409 c 128,-1,23
 176 409 176 409 149.5 392.5 c 128,-1,24
 123 376 123 376 94 342 c 1,25,-1
 49 393 l 1,26,27
 66 436 66 436 114.5 461.5 c 128,-1,28
 163 487 163 487 216.5 487 c 128,-1,29
 270 487 270 487 308 462 c 128,-1,30
 346 437 346 437 354 389 c 1,31,32
 420 477 420 477 526 477 c 0,33,34
 607 477 607 477 644.5 421.5 c 128,-1,35
 682 366 682 366 682 277 c 0,36,37
 682 240 682 240 676 204 c 1,0,-1
582.5 370 m 128,-1,39
 561 407 561 407 506.5 407 c 128,-1,40
 452 407 452 407 416.5 359.5 c 128,-1,41
 381 312 381 312 380 259 c 1,42,-1
 604 261 l 1,43,38
 604 333 604 333 582.5 370 c 128,-1,39
269 80 m 128,-1,45
 298 101 298 101 298 138.5 c 128,-1,46
 298 176 298 176 268.5 196 c 128,-1,47
 239 216 239 216 198 216 c 128,-1,48
 157 216 157 216 134 193 c 128,-1,49
 111 170 111 170 111 138 c 128,-1,50
 111 106 111 106 134.5 82.5 c 128,-1,51
 158 59 158 59 199 59 c 128,-1,44
 240 59 240 59 269 80 c 128,-1,45
EndSplineSet
EndChar

StartChar: ccedilla
Encoding: 231 231 130
Width: 423
Flags: HMW
HStem: -234 51<224 250 224 266> -91 38<229.5 298.5> -5 63<217 217> -1 21G<275 277 277 277> 407 70<192 260>
VStem: 32 80<194.5 279 194.5 291.5> 288 77<-153.5 -117>
LayerCount: 2
Fore
SplineSet
204 -86 m 1,0,-1
 217 -5 l 1,1,2
 125 -1 125 -1 78.5 61.5 c 128,-1,3
 32 124 32 124 32 226.5 c 128,-1,4
 32 329 32 329 94 403 c 128,-1,5
 156 477 156 477 257 477 c 0,6,7
 323 477 323 477 400 437 c 1,8,-1
 357 373 l 1,9,10
 339 386 339 386 303.5 396.5 c 128,-1,11
 268 407 268 407 241 407 c 0,12,13
 173 407 173 407 142.5 358 c 128,-1,14
 112 309 112 309 112 238.5 c 128,-1,15
 112 168 112 168 145 113 c 128,-1,16
 178 58 178 58 231 58 c 0,17,18
 271 58 271 58 313.5 78.5 c 128,-1,19
 356 99 356 99 376 126 c 1,20,-1
 417 75 l 1,21,22
 367.544833416 15.4768411835 367.544833416 15.4768411835 277 -1 c 1,23,-1
 265 -54 l 1,24,25
 269 -53 269 -53 277 -53 c 0,26,27
 311 -53 311 -53 338 -76.5 c 128,-1,28
 365 -100 365 -100 365 -137 c 0,29,30
 365 -188 365 -188 327 -211 c 128,-1,31
 289 -234 289 -234 240 -234 c 128,-1,32
 191 -234 191 -234 153 -219 c 1,33,-1
 174 -159 l 1,34,35
 196 -183 196 -183 236 -183 c 0,36,37
 288 -183 288 -183 288 -136 c 0,38,39
 288 -91 288 -91 233 -91 c 0,40,41
 222.5 -91 222.5 -91 212 -94 c 1,42,-1
 204 -86 l 1,0,-1
EndSplineSet
EndChar

StartChar: egrave
Encoding: 232 232 131
Width: 449
Flags: HMW
HStem: -5 66<208 281> 203 57 407 70<204 281.5> 673 20G<193 193>
VStem: 32 85<158 202 158 281.5> 340 78<265 307>
LayerCount: 2
Fore
SplineSet
412 204 m 1,0,-1
 117 202 l 1,1,2
 117 138 117 138 153 99.5 c 128,-1,3
 189 61 189 61 234 61 c 128,-1,4
 279 61 279 61 311.5 75.5 c 128,-1,5
 344 90 344 90 357.5 104.5 c 2,6,-1
 371 119 l 1,7,-1
 412 65 l 1,8,9
 354 -5 354 -5 232 -5 c 0,10,11
 134 -5 134 -5 83 54 c 128,-1,12
 32 113 32 113 32 216.5 c 128,-1,13
 32 320 32 320 96.5 398.5 c 128,-1,14
 161 477 161 477 262 477 c 0,15,16
 343 477 343 477 380.5 421.5 c 128,-1,17
 418 366 418 366 418 277 c 0,18,19
 418 240 418 240 412 204 c 1,0,-1
318.5 370 m 128,-1,21
 297 407 297 407 242.5 407 c 128,-1,22
 188 407 188 407 152.5 359.5 c 128,-1,23
 117 312 117 312 116 259 c 1,24,-1
 340 261 l 1,25,20
 340 333 340 333 318.5 370 c 128,-1,21
193 693 m 1,26,-1
 294 551 l 1,27,-1
 239 516 l 1,28,-1
 111 658 l 1,29,-1
 193 693 l 1,26,-1
EndSplineSet
EndChar

StartChar: ecircumflex
Encoding: 234 234 132
Width: 449
Flags: HMW
HStem: -5 66<208 281> 203 57 407 70<204 281.5> 673 20G<232 254 254 254>
VStem: 32 85<158 202 158 281.5> 340 78<265 307>
LayerCount: 2
Fore
SplineSet
412 204 m 1,0,-1
 117 202 l 1,1,2
 117 138 117 138 153 99.5 c 128,-1,3
 189 61 189 61 234 61 c 128,-1,4
 279 61 279 61 311.5 75.5 c 128,-1,5
 344 90 344 90 357.5 104.5 c 2,6,-1
 371 119 l 1,7,-1
 412 65 l 1,8,9
 354 -5 354 -5 232 -5 c 0,10,11
 134 -5 134 -5 83 54 c 128,-1,12
 32 113 32 113 32 216.5 c 128,-1,13
 32 320 32 320 96.5 398.5 c 128,-1,14
 161 477 161 477 262 477 c 0,15,16
 343 477 343 477 380.5 421.5 c 128,-1,17
 418 366 418 366 418 277 c 0,18,19
 418 240 418 240 412 204 c 1,0,-1
318.5 370 m 128,-1,21
 297 407 297 407 242.5 407 c 128,-1,22
 188 407 188 407 152.5 359.5 c 128,-1,23
 117 312 117 312 116 259 c 1,24,-1
 340 261 l 1,25,20
 340 333 340 333 318.5 370 c 128,-1,21
302 516 m 1,26,-1
 243 620 l 1,27,-1
 183 516 l 1,28,-1
 101 551 l 1,29,-1
 232 693 l 1,30,-1
 254 693 l 1,31,-1
 384 551 l 1,32,-1
 302 516 l 1,26,-1
EndSplineSet
EndChar

StartChar: eacute
Encoding: 233 233 133
Width: 449
Flags: HMW
HStem: -5 66<208 281> 203 57 407 70<204 281.5> 673 20G<272 272>
VStem: 32 85<158 202 158 281.5> 340 78<265 307>
LayerCount: 2
Fore
SplineSet
412 204 m 1,0,-1
 117 202 l 1,1,2
 117 138 117 138 153 99.5 c 128,-1,3
 189 61 189 61 234 61 c 128,-1,4
 279 61 279 61 311.5 75.5 c 128,-1,5
 344 90 344 90 357.5 104.5 c 2,6,-1
 371 119 l 1,7,-1
 412 65 l 1,8,9
 354 -5 354 -5 232 -5 c 0,10,11
 134 -5 134 -5 83 54 c 128,-1,12
 32 113 32 113 32 216.5 c 128,-1,13
 32 320 32 320 96.5 398.5 c 128,-1,14
 161 477 161 477 262 477 c 0,15,16
 343 477 343 477 380.5 421.5 c 128,-1,17
 418 366 418 366 418 277 c 0,18,19
 418 240 418 240 412 204 c 1,0,-1
318.5 370 m 128,-1,21
 297 407 297 407 242.5 407 c 128,-1,22
 188 407 188 407 152.5 359.5 c 128,-1,23
 117 312 117 312 116 259 c 1,24,-1
 340 261 l 1,25,20
 340 333 340 333 318.5 370 c 128,-1,21
171 551 m 1,26,-1
 272 693 l 1,27,-1
 354 658 l 1,28,-1
 226 516 l 1,29,-1
 171 551 l 1,26,-1
EndSplineSet
EndChar

StartChar: edieresis
Encoding: 235 235 134
Width: 449
Flags: HMW
HStem: -5 66<208 281> 203 57 407 70<204 281.5> 533 110<166 180 339 353.5>
VStem: 32 85<158 202 158 281.5> 124 98<578.5 603.5> 295 98<578.5 603.5> 340 78<265 307>
LayerCount: 2
Fore
SplineSet
412 204 m 1,0,-1
 117 202 l 1,1,2
 117 138 117 138 153 99.5 c 128,-1,3
 189 61 189 61 234 61 c 128,-1,4
 279 61 279 61 311.5 75.5 c 128,-1,5
 344 90 344 90 357.5 104.5 c 2,6,-1
 371 119 l 1,7,-1
 412 65 l 1,8,9
 354 -5 354 -5 232 -5 c 0,10,11
 134 -5 134 -5 83 54 c 128,-1,12
 32 113 32 113 32 216.5 c 128,-1,13
 32 320 32 320 96.5 398.5 c 128,-1,14
 161 477 161 477 262 477 c 0,15,16
 343 477 343 477 380.5 421.5 c 128,-1,17
 418 366 418 366 418 277 c 0,18,19
 418 240 418 240 412 204 c 1,0,-1
318.5 370 m 128,-1,21
 297 407 297 407 242.5 407 c 128,-1,22
 188 407 188 407 152.5 359.5 c 128,-1,23
 117 312 117 312 116 259 c 1,24,-1
 340 261 l 1,25,20
 340 333 340 333 318.5 370 c 128,-1,21
307 548 m 128,-1,27
 295 563 295 563 295 587.5 c 128,-1,28
 295 612 295 612 312.5 627.5 c 128,-1,29
 330 643 330 643 351 643 c 128,-1,30
 372 643 372 643 382.5 630 c 128,-1,31
 393 617 393 617 393 593 c 128,-1,32
 393 569 393 569 377.5 551 c 128,-1,33
 362 533 362 533 340.5 533 c 128,-1,26
 319 533 319 533 307 548 c 128,-1,27
135.5 547.5 m 128,-1,35
 124 562 124 562 124 587.5 c 128,-1,36
 124 613 124 613 140 628 c 128,-1,37
 156 643 156 643 178.5 643 c 0,38,39
 222 643 222 643 222 597 c 0,40,41
 222 570 222 570 205 551.5 c 128,-1,42
 188 533 188 533 167.5 533 c 128,-1,34
 147 533 147 533 135.5 547.5 c 128,-1,35
EndSplineSet
EndChar

StartChar: hbar
Encoding: 295 295 135
Width: 524
Flags: HMW
HStem: -5 21G<72 72 375 375> 396 84<285.5 326> 505 72<65 65> 650 77 711 20G<153 153>
VStem: -17 177 1 159 65 95 379 83<103.5 320>
LayerCount: 2
Fore
SplineSet
13 579 m 2,0,1
 48 579 48 579 64 577 c 1,2,3
 62 635 62 635 62 653 c 1,4,-1
 -15 647 l 1,5,-1
 -20 724 l 1,6,-1
 153 731 l 1,7,-1
 153 577 l 1,8,-1
 278 579 l 1,9,10
 280 542 280 542 280 523.5 c 128,-1,11
 280 505 280 505 278 505 c 0,12,13
 244 507 244 507 153 507 c 1,14,-1
 153 365 l 1,15,-1
 161 363 l 1,16,17
 169.169230769 376.615384615 169.169230769 376.615384615 191.084615385 400.307692308 c 128,-1,18
 213 424 213 424 232 439.5 c 128,-1,19
 251 455 251 455 278.5 467.5 c 128,-1,20
 306 480 306 480 332 480 c 0,21,22
 400 480 400 480 432 433.5 c 128,-1,23
 464 387 464 387 464 315 c 2,24,-1
 462 142 l 1,25,-1
 467 1 l 1,26,-1
 375 -5 l 1,27,28
 379 187 379 187 379 262 c 128,-1,29
 379 337 379 337 358.5 366.5 c 128,-1,30
 338 396 338 396 303.5 396 c 128,-1,31
 269 396 269 396 231 360 c 128,-1,32
 193 324 193 324 176.5 274.5 c 128,-1,33
 160 225 160 225 160 119 c 128,-1,34
 160 13 160 13 164 1 c 1,35,-1
 72 -5 l 1,36,37
 68 250 68 250 68 311 c 128,-1,38
 68 372 68 372 65 505 c 1,39,-1
 1 501 l 1,40,-1
 2 579 l 1,41,-1
 13 579 l 2,0,1
EndSplineSet
EndChar

StartChar: dotlessi
Encoding: 305 305 136
Width: 240
Flags: HMW
HStem: -4 21G<90 90> 418 65
VStem: 18 151 81 88<419 419>
LayerCount: 2
Fore
SplineSet
17 417 m 1,0,-1
 20 483 l 1,1,-1
 169 483 l 1,2,-1
 169 0 l 1,3,-1
 90 -4 l 1,4,5
 90 93.2 90 93.2 86 231.6 c 128,-1,6
 82 370 82 370 81 419 c 1,7,-1
 17 417 l 1,0,-1
EndSplineSet
EndChar

StartChar: igrave
Encoding: 236 236 137
Width: 224
Flags: HMW
HStem: -4 21G<90 90> 418 65 673 20G<52 52>
VStem: 18 151 81 88<419 419>
LayerCount: 2
Fore
SplineSet
52 693 m 1,0,-1
 153 551 l 1,1,-1
 98 516 l 1,2,-1
 -30 658 l 1,3,-1
 52 693 l 1,0,-1
17 417 m 1,4,-1
 20 483 l 1,5,-1
 169 483 l 1,6,-1
 169 0 l 1,7,-1
 90 -4 l 1,8,9
 90 93.2 90 93.2 86 231.6 c 128,-1,10
 82 370 82 370 81 419 c 1,11,-1
 17 417 l 1,4,-1
EndSplineSet
EndChar

StartChar: icircumflex
Encoding: 238 238 138
Width: 224
Flags: HMW
HStem: -4 21G<90 90> 418 65 673 20G<110 132 132 132>
VStem: 18 151 81 88<419 419>
LayerCount: 2
Fore
SplineSet
17 417 m 1,0,-1
 20 483 l 1,1,-1
 169 483 l 1,2,-1
 169 0 l 1,3,-1
 90 -4 l 1,4,5
 90 93.2 90 93.2 86 231.6 c 128,-1,6
 82 370 82 370 81 419 c 1,7,-1
 17 417 l 1,0,-1
180 516 m 1,8,-1
 121 620 l 1,9,-1
 61 516 l 1,10,-1
 -21 551 l 1,11,-1
 110 693 l 1,12,-1
 132 693 l 1,13,-1
 262 551 l 1,14,-1
 180 516 l 1,8,-1
EndSplineSet
EndChar

StartChar: iacute
Encoding: 237 237 139
Width: 222
Flags: HMW
HStem: -4 21G<91 91> 415 65 673 20G<160 160>
VStem: 21 146 82 85
LayerCount: 2
Fore
SplineSet
59 551 m 1,0,-1
 160 693 l 1,1,-1
 242 658 l 1,2,-1
 114 516 l 1,3,-1
 59 551 l 1,0,-1
21 415 m 1,4,-1
 21 482 l 1,5,-1
 169 479 l 1,6,-1
 166 0 l 1,7,-1
 91 -4 l 1,8,9
 91 93 91 93 87 229 c 128,-1,10
 83 365 83 365 82 415 c 1,11,-1
 21 415 l 1,4,-1
EndSplineSet
EndChar

StartChar: idieresis
Encoding: 239 239 140
Width: 224
Flags: HMW
HStem: -4 21G<90 90> 418 65 533 110<26 40 199 213.5>
VStem: -16 98<578.5 603.5> 81 88<419 419> 155 98<578.5 603.5>
LayerCount: 2
Fore
SplineSet
167 548 m 128,-1,1
 155 563 155 563 155 587.5 c 128,-1,2
 155 612 155 612 172.5 627.5 c 128,-1,3
 190 643 190 643 211 643 c 128,-1,4
 232 643 232 643 242.5 630 c 128,-1,5
 253 617 253 617 253 593 c 128,-1,6
 253 569 253 569 237.5 551 c 128,-1,7
 222 533 222 533 200.5 533 c 128,-1,0
 179 533 179 533 167 548 c 128,-1,1
-4.5 547.5 m 128,-1,9
 -16 562 -16 562 -16 587.5 c 128,-1,10
 -16 613 -16 613 0 628 c 128,-1,11
 16 643 16 643 38.5 643 c 0,12,13
 82 643 82 643 82 597 c 0,14,15
 82 570 82 570 65 551.5 c 128,-1,16
 48 533 48 533 27.5 533 c 128,-1,8
 7 533 7 533 -4.5 547.5 c 128,-1,9
17 417 m 1,17,-1
 20 483 l 1,18,-1
 169 483 l 1,19,-1
 169 0 l 1,20,-1
 90 -4 l 1,21,22
 90 93.2 90 93.2 86 231.6 c 128,-1,23
 82 370 82 370 81 419 c 1,24,-1
 17 417 l 1,17,-1
EndSplineSet
EndChar

StartChar: itilde
Encoding: 297 297 141
Width: 240
Flags: HMW
HStem: -4 21G<90 90> 418 65 534 77<175.5 182 156 214.5> 579 32 579 66<50.5 75.5 35 81.5> 632 20G<222 222>
VStem: 18 151 81 88<419 419>
LayerCount: 2
Fore
SplineSet
17 417 m 1,0,-1
 20 483 l 1,1,-1
 169 483 l 1,2,-1
 169 0 l 1,3,-1
 90 -4 l 1,4,5
 90 93.2 90 93.2 86 231.6 c 128,-1,6
 82 370 82 370 81 419 c 1,7,-1
 17 417 l 1,0,-1
7 533 m 1,8,-1
 -59 563 l 1,9,10
 -9 645 -9 645 52 645 c 0,11,12
 77 645 77 645 117.5 628 c 128,-1,13
 158 611 158 611 173 611 c 0,14,15
 203 611 203 611 222 652 c 1,16,-1
 285 617 l 1,17,18
 252 534 252 534 199 534 c 0,19,20
 175 534 175 534 128 556.5 c 128,-1,21
 81 579 81 579 61 579 c 0,22,23
 26 579 26 579 7 533 c 1,8,-1
EndSplineSet
EndChar

StartChar: ij
Encoding: 307 307 142
Width: 501
Flags: HMW
HStem: -213 81<202.5 258.5 202.5 295> 418 65 534 108<116 146 365 395>
VStem: 18 151 68 120<580.5 597.5> 81 88<419 419> 317 120<580.5 597.5> 338 86
LayerCount: 2
Fore
SplineSet
17 417 m 1,0,-1
 20 483 l 1,1,-1
 169 483 l 1,2,-1
 169 0 l 1,3,-1
 90 -4 l 1,4,5
 90 93.2 90 93.2 86 231.6 c 128,-1,6
 82 370 82 370 81 419 c 1,7,-1
 17 417 l 1,0,-1
171.5 552 m 128,-1,9
 155 534 155 534 127 534 c 128,-1,10
 99 534 99 534 83.5 546.5 c 128,-1,11
 68 559 68 559 68 582.5 c 128,-1,12
 68 606 68 606 87 624 c 128,-1,13
 106 642 106 642 137 642 c 0,14,15
 188 642 188 642 188 597 c 0,16,8
 188 570 188 570 171.5 552 c 128,-1,9
276 411 m 1,17,-1
 281 478 l 1,18,-1
 422 480 l 1,19,20
 424 199 424 199 424 142 c 0,21,22
 424 -213 424 -213 205 -213 c 0,23,24
 144 -213 144 -213 85 -186 c 1,25,-1
 121 -103 l 1,26,27
 173 -132 173 -132 216 -132 c 0,28,29
 278 -132 278 -132 309.5 -73.5 c 128,-1,30
 341 -15 341 -15 342 85 c 1,31,32
 342 295 342 295 338 411 c 1,33,-1
 276 411 l 1,17,-1
420.5 552 m 128,-1,35
 404 534 404 534 376 534 c 128,-1,36
 348 534 348 534 332.5 546.5 c 128,-1,37
 317 559 317 559 317 582.5 c 128,-1,38
 317 606 317 606 336 624 c 128,-1,39
 355 642 355 642 386 642 c 0,40,41
 437 642 437 642 437 597 c 0,42,34
 437 570 437 570 420.5 552 c 128,-1,35
EndSplineSet
EndChar

StartChar: jcircumflex
Encoding: 309 309 143
Width: 277
Flags: HMW
HStem: -213 81<-21.5 34.5 -21.5 71> 411 68 673 20G<128 150 150 150>
VStem: 114 86
LayerCount: 2
Fore
SplineSet
52 411 m 1,0,-1
 57 478 l 1,1,-1
 198 480 l 1,2,3
 200 199 200 199 200 142 c 0,4,5
 200 -213 200 -213 -19 -213 c 0,6,7
 -80 -213 -80 -213 -139 -186 c 1,8,-1
 -103 -103 l 1,9,10
 -51 -132 -51 -132 -8 -132 c 0,11,12
 54 -132 54 -132 85.5 -73.5 c 128,-1,13
 117 -15 117 -15 118 85 c 1,14,15
 118 295 118 295 114 411 c 1,16,-1
 52 411 l 1,0,-1
198 516 m 1,17,-1
 139 620 l 1,18,-1
 79 516 l 1,19,-1
 -3 551 l 1,20,-1
 128 693 l 1,21,-1
 150 693 l 1,22,-1
 280 551 l 1,23,-1
 198 516 l 1,17,-1
EndSplineSet
EndChar

StartChar: kcommaaccent
Encoding: 311 311 144
Width: 468
Flags: HMW
HStem: -251 21G<224 224> -137 104<195 258.5> 709 20G<168 168>
VStem: 75 83 170 125<-105 -79>
LayerCount: 2
Fore
SplineSet
160 318 m 2,0,-1
 160 278 l 1,1,2
 234 287 234 287 287.5 346 c 128,-1,3
 341 405 341 405 357 484 c 1,4,-1
 427 468 l 1,5,6
 427.363636364 463.454545455 427.363636364 463.454545455 427.363636364 458.826446281 c 0,7,8
 427.363636364 412.545454545 427.363636364 412.545454545 389.181818182 355.272727273 c 0,9,10
 351 298 351 298 288 257 c 1,11,-1
 448 8 l 1,12,-1
 352 -12 l 1,13,-1
 212 220 l 1,14,15
 187 211 187 211 159 208 c 1,16,-1
 157 1 l 1,17,-1
 76 -5 l 1,18,-1
 74 278 l 2,19,20
 74 414 74 414 69 654 c 1,21,-1
 27 650 l 1,22,-1
 3 647 l 1,23,-1
 0 648 l 1,24,-1
 -4 725 l 1,25,-1
 168 729 l 1,26,27
 160 384 160 384 160 318 c 2,0,-1
240 -33 m 0,28,29
 295 -33 295 -33 295 -90 c 0,30,31
 295 -114 295 -114 277.5 -154 c 128,-1,32
 260 -194 260 -194 242 -222.5 c 2,33,-1
 224 -251 l 1,34,-1
 160 -218 l 1,35,-1
 230 -135 l 1,36,-1
 226 -131 l 1,37,38
 212 -137 212 -137 201 -137 c 0,39,40
 190 -137 190 -137 180 -124 c 128,-1,41
 170 -111 170 -111 170 -90.5 c 0,42,43
 170 -70 170 -70 189.5 -51.5 c 128,-1,44
 209 -33 209 -33 240 -33 c 0,28,29
EndSplineSet
EndChar

StartChar: kgreenlandic
Encoding: 312 312 145
Width: 468
Flags: HMW
HStem: -12 21G<352 352> 405 71 464 20G<357 357>
VStem: 3 155 76 82
LayerCount: 2
Fore
SplineSet
76 -5 m 1,0,1
 73.1666666667 182 73.1666666667 182 69 407 c 1,2,-1
 5 404 l 1,3,-1
 1 471 l 1,4,-1
 164 481 l 1,5,-1
 160 278 l 1,6,7
 234 287 234 287 287.5 346 c 128,-1,8
 341 405 341 405 357 484 c 1,9,-1
 427 468 l 1,10,11
 427 418 427 418 387.5 357.5 c 128,-1,12
 348 297 348 297 288 257 c 1,13,-1
 448 8 l 1,14,-1
 352 -12 l 1,15,-1
 212 220 l 1,16,17
 187 211 187 211 159 208 c 1,18,-1
 157 1 l 1,19,-1
 76 -5 l 1,0,1
EndSplineSet
EndChar

StartChar: ldot
Encoding: 320 320 146
Width: 404
Flags: HMW
HStem: -5 21G<81 81> 280 108<268 298> 709 20G<172 172>
VStem: 81 81 220 120<326.5 343.5>
LayerCount: 2
Fore
SplineSet
7 647 m 1,0,-1
 4 721 l 1,1,-1
 172 729 l 1,2,3
 163 342 163 342 163 276 c 2,4,-1
 161 1 l 1,5,-1
 81 -5 l 1,6,-1
 81 278 l 2,7,8
 81 420 81 420 76 657 c 1,9,-1
 7 647 l 1,0,-1
323.5 298 m 128,-1,11
 307 280 307 280 279 280 c 128,-1,12
 251 280 251 280 235.5 292.5 c 128,-1,13
 220 305 220 305 220 328.5 c 128,-1,14
 220 352 220 352 239 370 c 128,-1,15
 258 388 258 388 289 388 c 0,16,17
 340 388 340 388 340 343 c 0,18,10
 340 316 340 316 323.5 298 c 128,-1,11
EndSplineSet
EndChar

StartChar: lslash
Encoding: 322 322 147
Width: 255
Flags: HMW
HStem: -5 21G<91 91> 709 20G<182 182>
VStem: 15 157 91 81
LayerCount: 2
Fore
SplineSet
11 271 m 1,0,-1
 6 342 l 1,1,-1
 90 403 l 1,2,3
 90 422 90 422 86 657 c 1,4,-1
 17 647 l 1,5,-1
 14 721 l 1,6,-1
 182 729 l 1,7,8
 178 581 178 581 176 453 c 1,9,-1
 257 512 l 1,10,-1
 260 446 l 1,11,-1
 174 381 l 1,12,13
 173 333 173 333 173 276 c 2,14,-1
 171 1 l 1,15,-1
 91 -5 l 1,16,-1
 91 331 l 1,17,-1
 11 271 l 1,0,-1
EndSplineSet
EndChar

StartChar: nacute
Encoding: 324 324 148
Width: 500
Flags: HMW
HStem: -5 21G<56 56 359 359> 398 83<279.5 329.5> 673 20G<259 259>
VStem: 363 80<232 309.5>
LayerCount: 2
Fore
SplineSet
138 352 m 1,0,1
 241.2 481 241.2 481 325 481 c 0,2,3
 443 481 443 481 443 315 c 2,4,-1
 443 217 l 2,5,6
 443 52 443 52 446 1 c 1,7,-1
 359 -5 l 1,8,9
 363 187 363 187 363 260.5 c 128,-1,10
 363 334 363 334 351 366 c 128,-1,11
 339 398 339 398 302.5 398 c 128,-1,12
 266 398 266 398 217 350 c 128,-1,13
 168 302 168 302 154 248 c 128,-1,14
 140 194 140 194 140 100 c 1,15,-1
 145 1 l 1,16,-1
 56 -5 l 1,17,18
 54 240 54 240 54 297 c 1,19,-1
 49 465 l 1,20,-1
 116 468 l 1,21,-1
 131 353 l 1,22,-1
 138 352 l 1,0,1
158 551 m 1,23,-1
 259 693 l 1,24,-1
 341 658 l 1,25,-1
 213 516 l 1,26,-1
 158 551 l 1,23,-1
EndSplineSet
EndChar

StartChar: ntilde
Encoding: 241 241 149
Width: 500
Flags: HMW
HStem: -5 21G<56 56 359 359> 398 83<279.5 329.5> 564 77<311.5 318 292 350.5> 609 32 609 66<186.5 211.5 171 217.5> 662 20G<358 358>
VStem: 363 80<232 309.5>
LayerCount: 2
Fore
SplineSet
143 563 m 1,0,-1
 77 593 l 1,1,2
 127 675 127 675 188 675 c 0,3,4
 213 675 213 675 253.5 658 c 128,-1,5
 294 641 294 641 309 641 c 0,6,7
 339 641 339 641 358 682 c 1,8,-1
 421 647 l 1,9,10
 388 564 388 564 335 564 c 0,11,12
 311 564 311 564 264 586.5 c 128,-1,13
 217 609 217 609 197 609 c 0,14,15
 162 609 162 609 143 563 c 1,0,-1
138 352 m 1,16,17
 241.2 481 241.2 481 325 481 c 0,18,19
 443 481 443 481 443 315 c 2,20,-1
 443 217 l 2,21,22
 443 52 443 52 446 1 c 1,23,-1
 359 -5 l 1,24,25
 363 187 363 187 363 260.5 c 128,-1,26
 363 334 363 334 351 366 c 128,-1,27
 339 398 339 398 302.5 398 c 128,-1,28
 266 398 266 398 217 350 c 128,-1,29
 168 302 168 302 154 248 c 128,-1,30
 140 194 140 194 140 100 c 1,31,-1
 145 1 l 1,32,-1
 56 -5 l 1,33,34
 54 240 54 240 54 297 c 1,35,-1
 49 465 l 1,36,-1
 116 468 l 1,37,-1
 131 353 l 1,38,-1
 138 352 l 1,16,17
EndSplineSet
EndChar

StartChar: ograve
Encoding: 242 242 150
Width: 462
Flags: HMW
HStem: -7 72<187 261 187 285.5> 408 70<197.5 289.5> 673 20G<163 163>
VStem: 33 79<193 279.5> 346 85<180.5 268>
LayerCount: 2
Fore
SplineSet
250 478 m 0,0,1
 431 478 431 478 431 249.5 c 0,2,3
 431 137 431 137 374 65 c 128,-1,4
 317 -7 317 -7 223.5 -7 c 128,-1,5
 130 -7 130 -7 81.5 55.5 c 128,-1,6
 33 118 33 118 33 223 c 0,7,8
 33 283 33 283 56 339.5 c 128,-1,9
 79 396 79 396 130.5 437 c 128,-1,10
 182 478 182 478 250 478 c 0,0,1
142 116 m 128,-1,12
 172 65 172 65 226.5 65 c 128,-1,13
 281 65 281 65 313.5 109.5 c 128,-1,14
 346 154 346 154 346 236 c 0,15,16
 346 408 346 408 243 408 c 0,17,18
 179 408 179 408 145.5 358.5 c 128,-1,19
 112 309 112 309 112 238 c 128,-1,11
 112 167 112 167 142 116 c 128,-1,12
163 693 m 1,20,-1
 264 551 l 1,21,-1
 209 516 l 1,22,-1
 81 658 l 1,23,-1
 163 693 l 1,20,-1
EndSplineSet
EndChar

StartChar: ocircumflex
Encoding: 244 244 151
Width: 462
Flags: HMW
HStem: -7 72<187 261 187 285.5> 408 70<197.5 289.5> 673 20G<229 251 251 251>
VStem: 33 79<193 279.5> 346 85<180.5 268>
LayerCount: 2
Fore
SplineSet
250 478 m 0,0,1
 431 478 431 478 431 249.5 c 0,2,3
 431 137 431 137 374 65 c 128,-1,4
 317 -7 317 -7 223.5 -7 c 128,-1,5
 130 -7 130 -7 81.5 55.5 c 128,-1,6
 33 118 33 118 33 223 c 0,7,8
 33 283 33 283 56 339.5 c 128,-1,9
 79 396 79 396 130.5 437 c 128,-1,10
 182 478 182 478 250 478 c 0,0,1
142 116 m 128,-1,12
 172 65 172 65 226.5 65 c 128,-1,13
 281 65 281 65 313.5 109.5 c 128,-1,14
 346 154 346 154 346 236 c 0,15,16
 346 408 346 408 243 408 c 0,17,18
 179 408 179 408 145.5 358.5 c 128,-1,19
 112 309 112 309 112 238 c 128,-1,11
 112 167 112 167 142 116 c 128,-1,12
299 516 m 1,20,-1
 240 620 l 1,21,-1
 180 516 l 1,22,-1
 98 551 l 1,23,-1
 229 693 l 1,24,-1
 251 693 l 1,25,-1
 381 551 l 1,26,-1
 299 516 l 1,20,-1
EndSplineSet
EndChar

StartChar: oacute
Encoding: 243 243 152
Width: 462
Flags: HMW
HStem: -7 72<187 261 187 285.5> 408 70<197.5 289.5> 673 20G<311 311>
VStem: 33 79<193 279.5> 346 85<180.5 268>
LayerCount: 2
Fore
SplineSet
250 478 m 0,0,1
 431 478 431 478 431 249.5 c 0,2,3
 431 137 431 137 374 65 c 128,-1,4
 317 -7 317 -7 223.5 -7 c 128,-1,5
 130 -7 130 -7 81.5 55.5 c 128,-1,6
 33 118 33 118 33 223 c 0,7,8
 33 283 33 283 56 339.5 c 128,-1,9
 79 396 79 396 130.5 437 c 128,-1,10
 182 478 182 478 250 478 c 0,0,1
142 116 m 128,-1,12
 172 65 172 65 226.5 65 c 128,-1,13
 281 65 281 65 313.5 109.5 c 128,-1,14
 346 154 346 154 346 236 c 0,15,16
 346 408 346 408 243 408 c 0,17,18
 179 408 179 408 145.5 358.5 c 128,-1,19
 112 309 112 309 112 238 c 128,-1,11
 112 167 112 167 142 116 c 128,-1,12
210 551 m 1,20,-1
 311 693 l 1,21,-1
 393 658 l 1,22,-1
 265 516 l 1,23,-1
 210 551 l 1,20,-1
EndSplineSet
EndChar

StartChar: odieresis
Encoding: 246 246 153
Width: 462
Flags: HMW
HStem: -7 72<187 261 187 285.5> 408 70<197.5 289.5> 523 110<149 163 322 336.5>
VStem: 33 79<193 279.5> 107 98<568.5 593.5> 278 98<568.5 593.5> 346 85<180.5 268>
LayerCount: 2
Fore
SplineSet
250 478 m 0,0,1
 431 478 431 478 431 249.5 c 0,2,3
 431 137 431 137 374 65 c 128,-1,4
 317 -7 317 -7 223.5 -7 c 128,-1,5
 130 -7 130 -7 81.5 55.5 c 128,-1,6
 33 118 33 118 33 223 c 0,7,8
 33 283 33 283 56 339.5 c 128,-1,9
 79 396 79 396 130.5 437 c 128,-1,10
 182 478 182 478 250 478 c 0,0,1
142 116 m 128,-1,12
 172 65 172 65 226.5 65 c 128,-1,13
 281 65 281 65 313.5 109.5 c 128,-1,14
 346 154 346 154 346 236 c 0,15,16
 346 408 346 408 243 408 c 0,17,18
 179 408 179 408 145.5 358.5 c 128,-1,19
 112 309 112 309 112 238 c 128,-1,11
 112 167 112 167 142 116 c 128,-1,12
290 538 m 128,-1,21
 278 553 278 553 278 577.5 c 128,-1,22
 278 602 278 602 295.5 617.5 c 128,-1,23
 313 633 313 633 334 633 c 128,-1,24
 355 633 355 633 365.5 620 c 128,-1,25
 376 607 376 607 376 583 c 128,-1,26
 376 559 376 559 360.5 541 c 128,-1,27
 345 523 345 523 323.5 523 c 128,-1,20
 302 523 302 523 290 538 c 128,-1,21
118.5 537.5 m 128,-1,29
 107 552 107 552 107 577.5 c 128,-1,30
 107 603 107 603 123 618 c 128,-1,31
 139 633 139 633 161.5 633 c 0,32,33
 205 633 205 633 205 587 c 0,34,35
 205 560 205 560 188 541.5 c 128,-1,36
 171 523 171 523 150.5 523 c 128,-1,28
 130 523 130 523 118.5 537.5 c 128,-1,29
EndSplineSet
EndChar

StartChar: otilde
Encoding: 245 245 154
Width: 462
Flags: HMW
HStem: -7 72<187 261 187 285.5> 408 70<197.5 289.5> 544 77<296.5 303 277 335.5> 589 32 589 66<171.5 196.5 156 202.5> 642 20G<343 343>
VStem: 33 79<193 279.5> 346 85<180.5 268>
LayerCount: 2
Fore
SplineSet
250 478 m 0,0,1
 431 478 431 478 431 249.5 c 0,2,3
 431 137 431 137 374 65 c 128,-1,4
 317 -7 317 -7 223.5 -7 c 128,-1,5
 130 -7 130 -7 81.5 55.5 c 128,-1,6
 33 118 33 118 33 223 c 0,7,8
 33 283 33 283 56 339.5 c 128,-1,9
 79 396 79 396 130.5 437 c 128,-1,10
 182 478 182 478 250 478 c 0,0,1
142 116 m 128,-1,12
 172 65 172 65 226.5 65 c 128,-1,13
 281 65 281 65 313.5 109.5 c 128,-1,14
 346 154 346 154 346 236 c 0,15,16
 346 408 346 408 243 408 c 0,17,18
 179 408 179 408 145.5 358.5 c 128,-1,19
 112 309 112 309 112 238 c 128,-1,11
 112 167 112 167 142 116 c 128,-1,12
128 543 m 1,20,-1
 62 573 l 1,21,22
 112 655 112 655 173 655 c 0,23,24
 198 655 198 655 238.5 638 c 128,-1,25
 279 621 279 621 294 621 c 0,26,27
 324 621 324 621 343 662 c 1,28,-1
 406 627 l 1,29,30
 373 544 373 544 320 544 c 0,31,32
 296 544 296 544 249 566.5 c 128,-1,33
 202 589 202 589 182 589 c 0,34,35
 147 589 147 589 128 543 c 1,20,-1
EndSplineSet
EndChar

StartChar: oslash
Encoding: 248 248 155
Width: 449
Flags: HMW
HStem: -50 21G<94 94> -7 72<211.5 259 211.5 283.5> 408 70<195.5 249> 504 20G<357 357>
VStem: 31 79<218 279.5> 344 85<180.5 252>
LayerCount: 2
Fore
SplineSet
26 -39 m 1,0,-1
 80 54 l 1,1,2
 31 115 31 115 31 223 c 0,3,4
 31 283 31 283 54 339.5 c 128,-1,5
 77 396 77 396 128.5 437 c 128,-1,6
 180 478 180 478 248 478 c 0,7,8
 288 478 288 478 322 465 c 1,9,-1
 357 524 l 1,10,-1
 427 517 l 1,11,-1
 375 429 l 1,12,13
 429 372 429 372 429 254.5 c 128,-1,14
 429 137 429 137 372 65 c 128,-1,15
 315 -7 315 -7 223 -7 c 0,16,17
 169 -7 169 -7 131 13 c 1,18,-1
 94 -50 l 1,19,-1
 26 -39 l 1,0,-1
221 65 m 0,20,21
 279 65 279 65 311.5 109.5 c 128,-1,22
 344 154 344 154 344 229 c 128,-1,23
 344 304 344 304 327 347 c 1,24,-1
 171 81 l 1,25,26
 191 65 191 65 221 65 c 0,20,21
143.5 358.5 m 128,-1,28
 110 309 110 309 110 243.5 c 128,-1,29
 110 178 110 178 129 136 c 1,30,-1
 283 398 l 1,31,32
 263 408 263 408 241 408 c 0,33,27
 177 408 177 408 143.5 358.5 c 128,-1,28
EndSplineSet
EndChar

StartChar: oe
Encoding: 339 339 156
Width: 765
Flags: HMW
HStem: -7 68 -5 21G<508.5 597> 203 57 408 69 458 20G<177.5 287.5>
VStem: 33 79<193 279.5> 346 87<180.5 202 158 268> 656 78<265 307>
LayerCount: 2
Fore
SplineSet
728 204 m 1,0,-1
 433 202 l 1,1,2
 433 138 433 138 469 99.5 c 128,-1,3
 505 61 505 61 550 61 c 128,-1,4
 595 61 595 61 627.5 75.5 c 128,-1,5
 660 90 660 90 673.5 104.5 c 2,6,-1
 687 119 l 1,7,-1
 728 65 l 1,8,9
 670 -5 670 -5 552 -5 c 128,-1,10
 434 -5 434 -5 382 76 c 1,11,12
 324 -7 324 -7 227 -7 c 128,-1,13
 130 -7 130 -7 81.5 55.5 c 128,-1,14
 33 118 33 118 33 223 c 0,15,16
 33 283 33 283 56 339.5 c 128,-1,17
 79 396 79 396 130.5 437 c 128,-1,18
 182 478 182 478 250 478 c 0,19,20
 361 478 361 478 405 389 c 1,21,22
 473 477 473 477 578 477 c 0,23,24
 659 477 659 477 696.5 421.5 c 128,-1,25
 734 366 734 366 734 277 c 0,26,27
 734 240 734 240 728 204 c 1,0,-1
142 116 m 128,-1,29
 172 65 172 65 226.5 65 c 128,-1,30
 281 65 281 65 313.5 109.5 c 128,-1,31
 346 154 346 154 346 236 c 0,32,33
 346 408 346 408 243 408 c 0,34,35
 179 408 179 408 145.5 358.5 c 128,-1,36
 112 309 112 309 112 238 c 128,-1,28
 112 167 112 167 142 116 c 128,-1,29
634.5 370 m 128,-1,38
 613 407 613 407 558.5 407 c 128,-1,39
 504 407 504 407 468.5 359.5 c 128,-1,40
 433 312 433 312 432 259 c 1,41,-1
 656 261 l 1,42,37
 656 333 656 333 634.5 370 c 128,-1,38
EndSplineSet
EndChar

StartChar: rcaron
Encoding: 345 345 157
Width: 371
Flags: HMW
HStem: -4 21G<64 64> 404 79<262.5 279> 673 20G<126 126 245 245>
VStem: 66 86<122.5 298.5>
LayerCount: 2
Fore
SplineSet
63 469 m 1,0,-1
 135 477 l 1,1,-1
 144 382 l 1,2,-1
 150 383 l 1,3,4
 203 483 203 483 289 483 c 0,5,6
 329 483 329 483 371 458 c 1,7,-1
 336 381 l 1,8,9
 300 404 300 404 266.5 404 c 0,10,11
 233 404 233 404 207 374.5 c 128,-1,12
 181 345 181 345 166.5 294.5 c 0,13,14
 152 244 152 244 152 176 c 0,15,16
 152 108 152 108 157 0 c 1,17,-1
 64 -4 l 1,18,19
 66 158 66 158 66 264 c 1,20,-1
 63 469 l 1,0,-1
126 693 m 1,21,-1
 185 589 l 1,22,-1
 245 693 l 1,23,-1
 327 658 l 1,24,-1
 196 516 l 1,25,-1
 174 516 l 1,26,-1
 44 658 l 1,27,-1
 126 693 l 1,21,-1
EndSplineSet
EndChar

StartChar: rcommaaccent
Encoding: 343 343 158
Width: 371
Flags: HMW
HStem: -251 21G<126 126> -137 104<97 160.5> 404 79<262.5 279>
VStem: 66 86<122.5 298.5> 66 131
LayerCount: 2
Fore
SplineSet
63 469 m 1,0,-1
 135 477 l 1,1,-1
 144 382 l 1,2,-1
 150 383 l 1,3,4
 203 483 203 483 289 483 c 0,5,6
 329 483 329 483 371 458 c 1,7,-1
 336 381 l 1,8,9
 300 404 300 404 266.5 404 c 0,10,11
 233 404 233 404 207 374.5 c 128,-1,12
 181 345 181 345 166.5 294.5 c 0,13,14
 152 244 152 244 152 176 c 0,15,16
 152 108 152 108 157 0 c 1,17,-1
 64 -4 l 1,18,19
 66 158 66 158 66 264 c 1,20,-1
 63 469 l 1,0,-1
142 -33 m 0,21,22
 197 -33 197 -33 197 -90 c 0,23,24
 197 -114 197 -114 179.5 -154 c 128,-1,25
 162 -194 162 -194 144 -222.5 c 2,26,-1
 126 -251 l 1,27,-1
 62 -218 l 1,28,-1
 132 -135 l 1,29,-1
 128 -131 l 1,30,31
 114 -137 114 -137 103 -137 c 0,32,33
 92 -137 92 -137 82 -124 c 128,-1,34
 72 -111 72 -111 72 -90.5 c 0,35,36
 72 -70 72 -70 91.5 -51.5 c 128,-1,37
 111 -33 111 -33 142 -33 c 0,21,22
EndSplineSet
EndChar

StartChar: scaron
Encoding: 353 353 159
Width: 419
Flags: HMW
HStem: -2 67<203 257.5 203 272.5> 410 71<174 226> 673 20G<158 158 277 277>
VStem: 41 71<288.5 357.5 288.5 373> 311 80<115 171>
LayerCount: 2
Fore
SplineSet
67 133 m 1,0,1
 95 104 95 104 141.5 84.5 c 128,-1,2
 188 65 188 65 228 65 c 0,3,4
 268 65 268 65 289.5 85 c 128,-1,5
 311 105 311 105 311 129 c 0,6,7
 311 153 311 153 283 165 c 128,-1,8
 255 177 255 177 215.5 185 c 128,-1,9
 176 193 176 193 136.5 205 c 128,-1,10
 97 217 97 217 69 246.5 c 128,-1,11
 41 276 41 276 41 323 c 0,12,13
 41 395 41 395 90.5 438 c 128,-1,14
 140 481 140 481 209 481 c 0,15,16
 314 481 314 481 387 422 c 1,17,-1
 350 355 l 1,18,19
 326 376 326 376 282 393 c 128,-1,20
 238 410 238 410 199 410 c 0,21,22
 160 410 160 410 136 389.5 c 128,-1,23
 112 369 112 369 112 331 c 0,24,25
 112 308 112 308 140.5 294.5 c 128,-1,26
 169 281 169 281 210 272.5 c 128,-1,27
 251 264 251 264 292.5 252 c 128,-1,28
 334 240 334 240 362.5 212 c 128,-1,29
 391 184 391 184 391 140 c 0,30,31
 391 77 391 77 343.5 37.5 c 128,-1,32
 296 -2 296 -2 231.5 -2 c 0,33,34
 167 -2 167 -2 111.5 18.5 c 128,-1,35
 56 39 56 39 21 72 c 1,36,37
 33 86 33 86 67 133 c 1,0,1
158 693 m 1,38,-1
 217 589 l 1,39,-1
 277 693 l 1,40,-1
 359 658 l 1,41,-1
 228 516 l 1,42,-1
 206 516 l 1,43,-1
 76 658 l 1,44,-1
 158 693 l 1,38,-1
EndSplineSet
EndChar

StartChar: ugrave
Encoding: 249 249 160
Width: 522
Flags: HMW
HStem: -8 21G<394 394> -5 83<195 251.5> 673 20G<241 241>
VStem: 64 85<166.5 372.5>
LayerCount: 2
Fore
SplineSet
62 161 m 2,0,-1
 64 334 l 1,1,-1
 60 475 l 1,2,-1
 153 481 l 1,3,4
 149 289 149 289 149 197 c 0,5,6
 149 78 149 78 228 78 c 0,7,8
 269 78 269 78 308.5 111.5 c 128,-1,9
 348 145 348 145 357 203 c 0,10,11
 370 289 370 289 370 376 c 1,12,-1
 365 475 l 1,13,-1
 452 481 l 1,14,15
 456 236 456 236 456 198.5 c 0,16,17
 456 143 456 143 469.5 33.5 c 2,18,-1
 474 -3 l 1,19,-1
 394 -8 l 1,20,-1
 378 90 l 1,21,-1
 372 92 l 1,22,23
 325.810650888 30.4142011834 325.810650888 30.4142011834 257 5.5 c 0,24,25
 228 -5 228 -5 199 -5 c 0,26,27
 135 -5 135 -5 98.5 43.5 c 128,-1,28
 62 92 62 92 62 161 c 2,0,-1
241 693 m 1,29,-1
 342 551 l 1,30,-1
 287 516 l 1,31,-1
 159 658 l 1,32,-1
 241 693 l 1,29,-1
EndSplineSet
EndChar

StartChar: ucircumflex
Encoding: 251 251 161
Width: 522
Flags: HMW
HStem: -8 21G<394 394> -5 83<195 251.5> 673 20G<250 272 272 272>
VStem: 64 85<166.5 372.5>
LayerCount: 2
Fore
SplineSet
62 161 m 2,0,-1
 64 334 l 1,1,-1
 60 475 l 1,2,-1
 153 481 l 1,3,4
 149 289 149 289 149 197 c 0,5,6
 149 78 149 78 228 78 c 0,7,8
 269 78 269 78 308.5 111.5 c 128,-1,9
 348 145 348 145 357 203 c 0,10,11
 370 289 370 289 370 376 c 1,12,-1
 365 475 l 1,13,-1
 452 481 l 1,14,15
 456 236 456 236 456 198.5 c 0,16,17
 456 143 456 143 469.5 33.5 c 2,18,-1
 474 -3 l 1,19,-1
 394 -8 l 1,20,-1
 378 90 l 1,21,-1
 372 92 l 1,22,23
 325.810650888 30.4142011834 325.810650888 30.4142011834 257 5.5 c 0,24,25
 228 -5 228 -5 199 -5 c 0,26,27
 135 -5 135 -5 98.5 43.5 c 128,-1,28
 62 92 62 92 62 161 c 2,0,-1
320 516 m 1,29,-1
 261 620 l 1,30,-1
 201 516 l 1,31,-1
 119 551 l 1,32,-1
 250 693 l 1,33,-1
 272 693 l 1,34,-1
 402 551 l 1,35,-1
 320 516 l 1,29,-1
EndSplineSet
EndChar

StartChar: uacute
Encoding: 250 250 162
Width: 522
Flags: HMW
HStem: -8 21G<394 394> -5 83<195 251.5> 673 20G<305 305>
VStem: 64 85<166.5 372.5>
LayerCount: 2
Fore
SplineSet
62 161 m 2,0,-1
 64 334 l 1,1,-1
 60 475 l 1,2,-1
 153 481 l 1,3,4
 149 289 149 289 149 197 c 0,5,6
 149 78 149 78 228 78 c 0,7,8
 269 78 269 78 308.5 111.5 c 128,-1,9
 348 145 348 145 357 203 c 0,10,11
 370 289 370 289 370 376 c 1,12,-1
 365 475 l 1,13,-1
 452 481 l 1,14,15
 456 236 456 236 456 198.5 c 0,16,17
 456 143 456 143 469.5 33.5 c 2,18,-1
 474 -3 l 1,19,-1
 394 -8 l 1,20,-1
 378 90 l 1,21,-1
 372 92 l 1,22,23
 325.810650888 30.4142011834 325.810650888 30.4142011834 257 5.5 c 0,24,25
 228 -5 228 -5 199 -5 c 0,26,27
 135 -5 135 -5 98.5 43.5 c 128,-1,28
 62 92 62 92 62 161 c 2,0,-1
204 551 m 1,29,-1
 305 693 l 1,30,-1
 387 658 l 1,31,-1
 259 516 l 1,32,-1
 204 551 l 1,29,-1
EndSplineSet
EndChar

StartChar: udieresis
Encoding: 252 252 163
Width: 522
Flags: HMW
HStem: -8 21G<394 394> -5 83<195 251.5> 533 110<170 184 343 357.5>
VStem: 64 85<166.5 372.5> 128 98<578.5 603.5> 299 98<578.5 603.5>
LayerCount: 2
Fore
SplineSet
62 161 m 2,0,-1
 64 334 l 1,1,-1
 60 475 l 1,2,-1
 153 481 l 1,3,4
 149 289 149 289 149 197 c 0,5,6
 149 78 149 78 228 78 c 0,7,8
 269 78 269 78 308.5 111.5 c 128,-1,9
 348 145 348 145 357 203 c 0,10,11
 370 289 370 289 370 376 c 1,12,-1
 365 475 l 1,13,-1
 452 481 l 1,14,15
 456 236 456 236 456 198.5 c 0,16,17
 456 143 456 143 469.5 33.5 c 2,18,-1
 474 -3 l 1,19,-1
 394 -8 l 1,20,-1
 378 90 l 1,21,-1
 372 92 l 1,22,23
 325.810650888 30.4142011834 325.810650888 30.4142011834 257 5.5 c 0,24,25
 228 -5 228 -5 199 -5 c 0,26,27
 135 -5 135 -5 98.5 43.5 c 128,-1,28
 62 92 62 92 62 161 c 2,0,-1
311 548 m 128,-1,30
 299 563 299 563 299 587.5 c 128,-1,31
 299 612 299 612 316.5 627.5 c 128,-1,32
 334 643 334 643 355 643 c 128,-1,33
 376 643 376 643 386.5 630 c 128,-1,34
 397 617 397 617 397 593 c 128,-1,35
 397 569 397 569 381.5 551 c 128,-1,36
 366 533 366 533 344.5 533 c 128,-1,29
 323 533 323 533 311 548 c 128,-1,30
139.5 547.5 m 128,-1,38
 128 562 128 562 128 587.5 c 128,-1,39
 128 613 128 613 144 628 c 128,-1,40
 160 643 160 643 182.5 643 c 0,41,42
 226 643 226 643 226 597 c 0,43,44
 226 570 226 570 209 551.5 c 128,-1,45
 192 533 192 533 171.5 533 c 128,-1,37
 151 533 151 533 139.5 547.5 c 128,-1,38
EndSplineSet
EndChar

StartChar: yacute
Encoding: 253 253 164
Width: 490
Flags: HMW
HStem: -228 74<100 152.5 100 169.5> 673 20G<318 318>
LayerCount: 2
Fore
SplineSet
379 480 m 1,0,-1
 474 462 l 1,1,2
 331 74 331 74 306.5 -5 c 128,-1,3
 282 -84 282 -84 270.5 -112 c 128,-1,4
 259 -140 259 -140 237.5 -170.5 c 0,5,6
 196.967213115 -228 196.967213115 -228 113.483606557 -228 c 128,-1,7
 30 -228 30 -228 -29 -197 c 1,8,-1
 -4 -119 l 1,9,10
 57 -154 57 -154 122 -154 c 0,11,12
 166 -154 166 -154 193 -121.5 c 128,-1,13
 220 -89 220 -89 220 -44 c 0,14,15
 220 -9.10526315789 220 -9.10526315789 187 76 c 1,16,-1
 29 461 l 1,17,-1
 127 484 l 1,18,-1
 265 90 l 1,19,-1
 379 480 l 1,0,-1
217 551 m 1,20,-1
 318 693 l 1,21,-1
 400 658 l 1,22,-1
 272 516 l 1,23,-1
 217 551 l 1,20,-1
EndSplineSet
EndChar

StartChar: ydieresis
Encoding: 255 255 165
Width: 490
Flags: HMW
HStem: -228 74<100 152.5 100 169.5> 533 110<180 194 353 367.5>
VStem: 138 98<578.5 603.5> 309 98<578.5 603.5>
LayerCount: 2
Fore
SplineSet
379 480 m 1,0,-1
 474 462 l 1,1,2
 331 74 331 74 306.5 -5 c 128,-1,3
 282 -84 282 -84 270.5 -112 c 128,-1,4
 259 -140 259 -140 237.5 -170.5 c 0,5,6
 196.967213115 -228 196.967213115 -228 113.483606557 -228 c 128,-1,7
 30 -228 30 -228 -29 -197 c 1,8,-1
 -4 -119 l 1,9,10
 57 -154 57 -154 122 -154 c 0,11,12
 166 -154 166 -154 193 -121.5 c 128,-1,13
 220 -89 220 -89 220 -44 c 0,14,15
 220 -27 220 -27 213 1 c 1,16,17
 198 48 198 48 187 76 c 2,18,-1
 29 461 l 1,19,-1
 127 484 l 1,20,-1
 265 90 l 1,21,-1
 379 480 l 1,0,-1
321 548 m 128,-1,23
 309 563 309 563 309 587.5 c 128,-1,24
 309 612 309 612 326.5 627.5 c 128,-1,25
 344 643 344 643 365 643 c 128,-1,26
 386 643 386 643 396.5 630 c 128,-1,27
 407 617 407 617 407 593 c 128,-1,28
 407 569 407 569 391.5 551 c 128,-1,29
 376 533 376 533 354.5 533 c 128,-1,22
 333 533 333 533 321 548 c 128,-1,23
149.5 547.5 m 128,-1,31
 138 562 138 562 138 587.5 c 128,-1,32
 138 613 138 613 154 628 c 128,-1,33
 170 643 170 643 192.5 643 c 0,34,35
 236 643 236 643 236 597 c 0,36,37
 236 570 236 570 219 551.5 c 128,-1,38
 202 533 202 533 181.5 533 c 128,-1,30
 161 533 161 533 149.5 547.5 c 128,-1,31
EndSplineSet
EndChar

StartChar: zcaron
Encoding: 382 382 166
Width: 455
Flags: HMW
HStem: -7 21G<49 49> -1 21G<400 414> 1 67 402 78 693 20G<175 175 294 294>
LayerCount: 2
Fore
SplineSet
414 -1 m 1,0,-1
 259 1 l 1,1,2
 125 1 125 1 49 -7 c 1,3,-1
 40 64 l 1,4,-1
 321 409 l 1,5,6
 159 409 159 409 59 402 c 1,7,-1
 55 482 l 1,8,9
 121 480 121 480 230 480 c 128,-1,10
 339 480 339 480 407 482 c 1,11,-1
 410 419 l 1,12,-1
 140 63 l 1,13,-1
 415 74 l 1,14,-1
 414 -1 l 1,0,-1
175 713 m 1,15,-1
 234 609 l 1,16,-1
 294 713 l 1,17,-1
 376 678 l 1,18,-1
 245 536 l 1,19,-1
 223 536 l 1,20,-1
 93 678 l 1,21,-1
 175 713 l 1,15,-1
EndSplineSet
EndChar

StartChar: at
Encoding: 64 64 167
Width: 558
Flags: HMW
HStem: -116 76<247 318.5 247 319.5> 38 63<326 344> 269 61<310.5 348.5 286.5 362.5> 408 71<266.5 353.5>
VStem: 22 84<105.5 239> 172 84<173 212.5 163 224> 452 76<275 320.5 219.5 323.5>
LayerCount: 2
Fore
SplineSet
172 173 m 1,0,1
 172 246 172 246 217.5 288 c 128,-1,2
 263 330 263 330 332 330 c 128,-1,3
 401 330 401 330 449 273 c 1,4,-1
 452 275 l 1,5,6
 452 342 452 342 414 375 c 128,-1,7
 376 408 376 408 322 408 c 0,8,9
 235 408 235 408 170.5 341 c 128,-1,10
 106 274 106 274 106 175 c 128,-1,11
 106 76 106 76 162.5 18 c 128,-1,12
 219 -40 219 -40 300 -40 c 0,13,14
 359 -40 359 -40 414 -8 c 1,15,-1
 425 -89 l 1,16,17
 365 -116 365 -116 298 -116 c 0,18,19
 185 -116 185 -116 103.5 -44 c 128,-1,20
 22 28 22 28 22 157.5 c 128,-1,21
 22 287 22 287 108 383 c 128,-1,22
 194 479 194 479 328 479 c 0,23,24
 434 479 434 479 481 420.5 c 128,-1,25
 528 362 528 362 528 243 c 0,26,27
 528 197 528 197 518 51 c 1,28,-1
 457 46 l 1,29,-1
 455 94 l 1,30,-1
 448 96 l 1,31,32
 402 38 402 38 320 38 c 0,33,34
 261 38 261 38 218 73 c 128,-1,35
 175 108 175 108 172 173 c 1,0,1
414 124 m 128,-1,37
 441 147 441 147 441 183 c 128,-1,38
 441 219 441 219 408.5 244 c 128,-1,39
 376 269 376 269 338 269 c 128,-1,40
 300 269 300 269 278 246.5 c 128,-1,41
 256 224 256 224 256 187 c 128,-1,42
 256 150 256 150 283.5 125.5 c 128,-1,43
 311 101 311 101 349 101 c 128,-1,36
 387 101 387 101 414 124 c 128,-1,37
EndSplineSet
EndChar

StartChar: registered
Encoding: 174 174 168
Width: 726
Flags: HMW
HStem: -11 21G<293 467> 347 172<368 377> 577 84<344 431>
VStem: 50 194 317 156<403 459 403 510 403 510> 552 124
LayerCount: 2
Fore
SplineSet
363 661 m 0,0,1
 676 661 676 661 676 332 c 0,2,3
 676 175 676 175 594 82 c 128,-1,4
 512 -11 512 -11 379.5 -11 c 128,-1,5
 247 -11 247 -11 148.5 79 c 128,-1,6
 50 169 50 169 50 300 c 0,7,8
 50 440.081081081 50 440.081081081 125 546.5 c 0,9,10
 162 599 162 599 223.5 630 c 128,-1,11
 285 661 285 661 363 661 c 0,0,1
363 577 m 0,12,13
 337 577 337 577 240 566 c 1,14,-1
 248 95 l 1,15,-1
 334 105 l 1,16,-1
 329 280 l 1,17,-1
 388 281 l 1,18,-1
 478 87 l 1,19,-1
 566 117 l 1,20,-1
 463 309 l 1,21,22
 546 348 546 348 552 440 c 0,23,24
 552.173076923 442.942307692 552.173076923 442.942307692 552.173076923 445.857988166 c 0,25,26
 552.173076923 493.480769231 552.173076923 493.480769231 504.586538462 535.240384615 c 128,-1,27
 457 577 457 577 363 577 c 0,12,13
317 348 m 1,28,-1
 317 510 l 1,29,30
 341 519 341 519 378 519 c 128,-1,31
 415 519 415 519 444 495 c 128,-1,32
 473 471 473 471 473 431.5 c 128,-1,33
 473 392 473 392 434.5 369.5 c 128,-1,34
 396 347 396 347 359.5 347 c 128,-1,35
 323 347 323 347 317 348 c 1,28,-1
EndSplineSet
EndChar

StartChar: copyright
Encoding: 169 169 169
Width: 665
Flags: HMW
HStem: -12 104<263 380 263 437> 574 86<292 388.5>
VStem: 20 116<256 387.5>
LayerCount: 2
Fore
SplineSet
333 660 m 0,0,1
 646 660 646 660 646 331 c 0,2,3
 646 174 646 174 564 81 c 128,-1,4
 482 -12 482 -12 349.5 -12 c 128,-1,5
 217 -12 217 -12 118.5 78 c 128,-1,6
 20 168 20 168 20 299 c 0,7,8
 20 439.081081081 20 439.081081081 95 545.5 c 0,9,10
 132 598 132 598 193.5 629 c 128,-1,11
 255 660 255 660 333 660 c 0,0,1
461 461 m 1,12,-1
 504 534 l 1,13,14
 427 574 427 574 361 574 c 0,15,16
 260 574 260 574 198 500 c 128,-1,17
 136 426 136 426 136 322 c 128,-1,18
 136 218 136 218 185 155 c 128,-1,19
 234 92 234 92 331 92 c 0,20,21
 397 92 397 92 446 116 c 128,-1,22
 495 140 495 140 521 172 c 1,23,-1
 480 223 l 1,24,25
 474 217 474 217 463 208.5 c 128,-1,26
 452 200 452 200 415.5 185.5 c 128,-1,27
 379 171 379 171 341 171 c 0,28,29
 290 171 290 171 256.5 220.5 c 128,-1,30
 223 270 223 270 223 335.5 c 128,-1,31
 223 401 223 401 254 448 c 128,-1,32
 285 495 285 495 351 495 c 0,33,34
 379 495 379 495 406.5 486.5 c 128,-1,35
 434 478 434 478 447.5 469.5 c 2,36,-1
 461 461 l 1,12,-1
EndSplineSet
EndChar

StartChar: paragraph
Encoding: 182 182 170
Width: 628
Flags: HMW
HStem: -5 21G<243 243> 579 75
VStem: 243 83 393 83 393 135
LayerCount: 2
Fore
SplineSet
243 -5 m 1,0,-1
 243 252 l 1,1,2
 141 252 141 252 86.5 307 c 128,-1,3
 32 362 32 362 32 442 c 0,4,5
 32 522 32 522 91.5 584.5 c 128,-1,6
 151 647 151 647 253 647 c 128,-1,7
 355 647 355 647 528 654 c 1,8,-1
 529 574 l 1,9,10
 497 576 497 576 481 576 c 1,11,-1
 472 3 l 1,12,-1
 396 0 l 1,13,-1
 390 579 l 1,14,15
 374.25 579.75 374.25 579.75 358.5 579.75 c 2,16,-1
 327 579 l 1,17,-1
 325 2 l 1,18,-1
 243 -5 l 1,0,-1
EndSplineSet
EndChar

StartChar: section
Encoding: 167 167 171
Width: 367
Flags: HMW
HStem: -221 93<37 37> 637 20G<268.5 300>
VStem: 15 85<234.5 293.5 234.5 317> 105 87<472 525.5 424.5 555> 181 85<-72.5 -0.5 -75 15.5> 273 83<158 208>
LayerCount: 2
Fore
SplineSet
206 524.5 m 0,0,1
 192 508 192 508 192 480 c 128,-1,2
 192 452 192 452 209 423.5 c 128,-1,3
 226 395 226 395 250 373 c 128,-1,4
 274 351 274 351 298 328.5 c 0,5,6
 356 274.125 356 274.125 356 203 c 0,7,8
 356 86 356 86 259 38 c 1,9,10
 266 13 266 13 266 -9 c 0,11,12
 266 -104 266 -104 200.5 -160 c 128,-1,13
 135 -216 135 -216 37 -221 c 1,14,-1
 19 -128 l 1,15,16
 73.8421052632 -128 73.8421052632 -128 111.421052632 -114 c 0,17,18
 181 -88.0784313725 181 -88.0784313725 181 -37 c 0,19,20
 181 12.0816326531 181 12.0816326531 122.5 67 c 0,21,22
 98 90 98 90 73.5 116.5 c 128,-1,23
 49 143 49 143 32 183.5 c 128,-1,24
 15 224 15 224 15 273 c 0,25,26
 15 379 15 379 114 416 c 1,27,28
 105 446 105 446 105 485.5 c 128,-1,29
 105 525 105 525 119.5 556.5 c 128,-1,30
 134 588 134 588 155.5 606.5 c 128,-1,31
 177 625 177 625 204.5 637 c 0,32,33
 250.333333333 657 250.333333333 657 300 657 c 1,34,-1
 320 566 l 1,35,36
 241.212121212 566 241.212121212 566 206 524.5 c 0,0,1
100 275 m 0,37,38
 100 238 100 238 115.5 211.5 c 128,-1,39
 131 185 131 185 171 148.5 c 128,-1,40
 211 112 211 112 219 103 c 1,41,42
 273 127 273 127 273 174 c 0,43,44
 273 219 273 219 233 259 c 2,45,-1
 193 299 l 2,46,47
 169 323 169 323 154 342 c 1,48,49
 100 322 100 322 100 275 c 0,37,38
EndSplineSet
EndChar

StartChar: asterisk
Encoding: 42 42 172
Width: 454
Flags: HMW
HStem: 366 21G<181 181> 715 20G<263 263>
LayerCount: 2
Fore
SplineSet
360 422 m 1,0,1
 346 433 346 433 245 513 c 1,2,3
 256 414 256 414 263 368 c 1,4,-1
 181 366 l 1,5,6
 187 397 187 397 202 513 c 1,7,8
 108 443 108 443 85 425 c 1,9,-1
 42 495 l 1,10,11
 78 508 78 508 184 551 c 1,12,13
 167 557 167 557 118 576.5 c 128,-1,14
 69 596 69 596 43 605 c 1,15,-1
 80 678 l 1,16,17
 97 665 97 665 138 634.5 c 128,-1,18
 179 604 179 604 202 586 c 1,19,20
 190 681 190 681 181 732 c 1,21,-1
 263 735 l 1,22,23
 259 708 259 708 253.5 658.5 c 128,-1,24
 248 609 248 609 245 586 c 1,25,26
 260 598 260 598 283 616.5 c 128,-1,27
 306 635 306 635 324.5 649.5 c 128,-1,28
 343 664 343 664 359 678 c 1,29,-1
 403 610 l 1,30,31
 395 607 395 607 344.5 585 c 128,-1,32
 294 563 294 563 262 551 c 1,33,-1
 399 495 l 1,34,-1
 360 422 l 1,0,1
EndSplineSet
EndChar

StartChar: dagger
Encoding: 8224 8224 173
Width: 488
Flags: HMW
HStem: -95 21G<194 194> 358 85 633 20G<296 296>
VStem: 194 88<-92 96.5 -92 358>
LayerCount: 2
Fore
SplineSet
192 643 m 1,0,-1
 296 653 l 1,1,2
 293 622 293 622 290.5 541 c 128,-1,3
 288 460 288 460 287 443 c 1,4,-1
 468 443 l 1,5,6
 451 353 451 353 447 353 c 0,7,8
 400 356 400 356 285 358 c 1,9,10
 282 298 282 298 282 -92 c 1,11,-1
 194 -95 l 1,12,-1
 194 358 l 1,13,-1
 32 356 l 1,14,-1
 13 443 l 1,15,16
 91 440 91 440 192 440 c 1,17,-1
 192 643 l 1,0,-1
EndSplineSet
EndChar

StartChar: daggerdbl
Encoding: 8225 8225 174
Width: 488
Flags: HMW
HStem: -104 21G<292 292> 107 84 358 84 633 20G<294 294>
VStem: 187 100<442 442 442 643>
LayerCount: 2
Fore
SplineSet
284 191 m 1,0,-1
 451 193 l 2,1,2
 454.857142857 193 454.857142857 193 464 129 c 2,3,-1
 467 108 l 1,4,5
 341 107 341 107 287 107 c 1,6,7
 288 87 288 87 288.5 6.5 c 128,-1,8
 289 -74 289 -74 292 -104 c 1,9,-1
 192 -94 l 1,10,-1
 192 109 l 1,11,12
 42 109 42 109 16 108 c 1,13,-1
 25 193 l 1,14,-1
 193 194 l 1,15,-1
 193 295 l 2,16,17
 193 334 193 334 194 358 c 1,18,-1
 22 356 l 1,19,-1
 14 442 l 1,20,21
 66 440 66 440 187 440 c 1,22,-1
 187 643 l 1,23,-1
 294 653 l 1,24,25
 291 623 291 623 289.5 542 c 128,-1,26
 288 461 288 461 287 442 c 1,27,-1
 466 442 l 1,28,29
 460 356 460 356 456 356 c 2,30,-1
 284 358 l 1,31,32
 283 335 283 335 283 280 c 128,-1,33
 283 225 283 225 284 191 c 1,0,-1
EndSplineSet
EndChar

StartChar: ordfeminine
Encoding: 170 170 175
Width: 313
Flags: HMW
HStem: 364 46<137.5 146.5> 494 46<137.5 148 111.5 164> 602 59<134 159.5>
VStem: 40 67<441.5 462.5 441.5 477.5> 202 71<515 532 532 548 368 555.5>
LayerCount: 2
Fore
SplineSet
65.5 387.5 m 128,-1,1
 40 411 40 411 40 450.5 c 128,-1,2
 40 490 40 490 68.5 515 c 128,-1,3
 97 540 97 540 135.5 540 c 128,-1,4
 174 540 174 540 202 515 c 1,5,-1
 202 532 l 2,6,7
 202 566 202 566 185.5 584 c 128,-1,8
 169 602 169 602 137.5 602 c 128,-1,9
 106 602 106 602 78 569 c 1,10,-1
 47 617 l 1,11,12
 89 661 89 661 145.5 661 c 128,-1,13
 202 661 202 661 237.5 632 c 128,-1,14
 273 603 273 603 273 548 c 2,15,-1
 273 368 l 1,16,-1
 212 368 l 1,17,-1
 209 395 l 1,18,-1
 208 396 l 1,19,20
 199 384 199 384 176.5 374 c 128,-1,21
 154 364 154 364 122.5 364 c 128,-1,0
 91 364 91 364 65.5 387.5 c 128,-1,1
202 453 m 1,22,23
 201 473 201 473 186.5 483.5 c 128,-1,24
 172 494 172 494 151.5 494 c 128,-1,25
 131 494 131 494 119 481.5 c 128,-1,26
 107 469 107 469 107 452 c 128,-1,27
 107 435 107 435 119 422.5 c 128,-1,28
 131 410 131 410 151.5 410 c 128,-1,29
 172 410 172 410 186.5 421 c 128,-1,30
 201 432 201 432 202 453 c 1,22,23
EndSplineSet
EndChar

StartChar: ordmasculine
Encoding: 186 186 176
Width: 344
Flags: HMW
HStem: 364 55<150 185.5 150 205> 605 56<155.5 200>
VStem: 50 65<488 536 488 539.5> 226 68<481.5 528>
LayerCount: 2
Fore
SplineSet
183 661 m 0,0,1
 294 661 294 661 294 521 c 0,2,3
 294 452 294 452 259 408 c 128,-1,4
 224 364 224 364 167 364 c 128,-1,5
 110 364 110 364 80 402 c 128,-1,6
 50 440 50 440 50 501.5 c 128,-1,7
 50 563 50 563 85.5 612 c 128,-1,8
 121 661 121 661 183 661 c 0,0,1
129 446.5 m 128,-1,10
 143 419 143 419 169 419 c 128,-1,11
 195 419 195 419 210.5 443 c 128,-1,12
 226 467 226 467 226 511 c 0,13,14
 226 605 226 605 178 605 c 0,15,16
 146 605 146 605 130.5 578.5 c 128,-1,17
 115 552 115 552 115 513 c 128,-1,9
 115 474 115 474 129 446.5 c 128,-1,10
EndSplineSet
EndChar

StartChar: trademark
Encoding: 8482 8482 177
Width: 916
Flags: HMW
HStem: 174 133 642 122
VStem: 50 186 307 115 488 196 746 120
LayerCount: 2
Fore
SplineSet
50 482 m 0,0,1
 50 617 50 617 148.5 690.5 c 128,-1,2
 247 764 247 764 428 764 c 0,3,4
 526 764 526 764 604 745 c 128,-1,5
 682 726 682 726 730 696 c 128,-1,6
 778 666 778 666 809.5 624.5 c 0,7,8
 866 550.063492063 866 550.063492063 866 455 c 0,9,10
 866 322 866 322 782.5 248 c 128,-1,11
 699 174 699 174 536 174 c 0,12,13
 393.590909091 174 393.590909091 174 274.5 214 c 0,14,15
 209 236 209 236 160 270 c 128,-1,16
 111 304 111 304 80.5 358.5 c 128,-1,17
 50 413 50 413 50 482 c 0,0,1
689 308 m 1,18,-1
 759 312 l 1,19,-1
 733 638 l 1,20,-1
 672 639 l 1,21,-1
 591 424 l 1,22,-1
 490 639 l 1,23,-1
 433 640 l 1,24,-1
 412 308 l 1,25,-1
 487 306 l 1,26,-1
 490 495 l 1,27,-1
 575 311 l 1,28,-1
 609 311 l 1,29,-1
 679 491 l 1,30,-1
 689 308 l 1,18,-1
398 641 m 1,31,-1
 156 643 l 1,32,-1
 157 584 l 1,33,-1
 241 586 l 1,34,-1
 232 312 l 1,35,-1
 307 312 l 1,36,-1
 308 586 l 1,37,-1
 391 586 l 1,38,-1
 398 641 l 1,31,-1
EndSplineSet
EndChar

StartChar: numbersign
Encoding: 35 35 178
Width: 556
Flags: HMW
HStem: -3 21G<78 78> 191 73 387 73 632 20G<458 458>
LayerCount: 2
Fore
SplineSet
71 387 m 1,0,-1
 71 461 l 1,1,2
 143 459 143 459 179 459 c 1,3,-1
 219 643 l 1,4,-1
 296 648 l 1,5,-1
 253 459 l 1,6,-1
 340 459 l 1,7,-1
 381 647 l 1,8,-1
 458 652 l 1,9,-1
 414 459 l 1,10,-1
 506 461 l 1,11,-1
 506 387 l 1,12,13
 470 387 470 387 398 389 c 1,14,-1
 370 263 l 1,15,-1
 464 265 l 1,16,-1
 464 191 l 1,17,-1
 354 193 l 1,18,-1
 312 3 l 1,19,-1
 240 0 l 1,20,-1
 282 193 l 1,21,-1
 193 193 l 1,22,-1
 150 0 l 1,23,-1
 78 -3 l 1,24,-1
 120 192 l 1,25,-1
 29 191 l 1,26,-1
 29 265 l 1,27,28
 99 263 99 263 136 263 c 1,29,-1
 163 388 l 1,30,-1
 71 387 l 1,0,-1
325 389 m 1,31,-1
 238 389 l 1,32,-1
 209 263 l 1,33,-1
 297 263 l 1,34,-1
 325 389 l 1,31,-1
EndSplineSet
EndChar

StartChar: zero
Encoding: 48 48 179
Width: 482
Flags: HMW
HStem: -9 82<195.5 285 195.5 311> 573 81<202.5 276>
VStem: 26 85<288.5 391.5> 361 91<262.5 388>
LayerCount: 2
Fore
SplineSet
356 38.5 m 128,-1,1
 309 -9 309 -9 242.5 -9 c 128,-1,2
 176 -9 176 -9 124 37.5 c 0,3,4
 26 125.134615385 26 125.134615385 26 306 c 0,5,6
 26 394 26 394 51 472 c 128,-1,7
 76 550 76 550 128 602 c 128,-1,8
 180 654 180 654 247 654 c 128,-1,9
 314 654 314 654 361.5 604 c 0,10,11
 452 508.736842105 452 508.736842105 452 316 c 0,12,13
 452 234 452 234 427.5 160 c 128,-1,0
 403 86 403 86 356 38.5 c 128,-1,1
111 329 m 0,14,15
 111 255.034482759 111 255.034482759 139.5 171.5 c 0,16,17
 154 129 154 129 183 101 c 128,-1,18
 212 73 212 73 250 73 c 0,19,20
 300 73 300 73 330.5 149 c 128,-1,21
 361 225 361 225 361 326.5 c 128,-1,22
 361 428 361 428 327.5 500.5 c 128,-1,23
 294 573 294 573 231 573 c 0,24,25
 185 573 185 573 148 505.5 c 128,-1,26
 111 438 111 438 111 329 c 0,14,15
EndSplineSet
EndChar

StartChar: one
Encoding: 49 49 180
Width: 287
Flags: HMW
HStem: -5 21G<120 120> 631 20G<211 211>
VStem: 126 89
LayerCount: 2
Fore
SplineSet
45 469 m 1,0,-1
 15 523 l 1,1,-1
 149 650 l 1,2,-1
 211 651 l 1,3,-1
 211 469 l 2,4,5
 211 278 211 278 212 249 c 2,6,-1
 219 1 l 1,7,-1
 120 -5 l 1,8,-1
 125 316 l 2,9,10
 126 378 126 378 126 437.5 c 0,11,12
 126 497 126 497 125 529 c 1,13,-1
 45 469 l 1,0,-1
EndSplineSet
EndChar

StartChar: two
Encoding: 50 50 181
Width: 426
Flags: HMW
HStem: 0 83 568 88<183.5 230>
VStem: 305 91<427.5 506.5>
LayerCount: 2
Fore
SplineSet
145 77 m 1,0,-1
 394 89 l 1,1,-1
 390 0 l 1,2,-1
 41 0 l 1,3,-1
 47 63 l 1,4,5
 73 99 73 99 130.5 174.5 c 128,-1,6
 188 250 188 250 219 293 c 128,-1,7
 250 336 250 336 277.5 388.5 c 128,-1,8
 305 441 305 441 305 480.5 c 0,9,10
 305 520 305 520 276 544 c 128,-1,11
 247 568 247 568 206.5 568 c 0,12,13
 166 568 166 568 129 551 c 128,-1,14
 92 534 92 534 69 503 c 1,15,-1
 35 583 l 1,16,17
 121 656 121 656 212 656 c 0,18,19
 303 656 303 656 349.5 609 c 128,-1,20
 396 562 396 562 396 485 c 0,21,22
 396 441 396 441 367 382.5 c 128,-1,23
 338 324 338 324 303.5 279.5 c 128,-1,24
 269 235 269 235 218 171.5 c 128,-1,25
 167 108 167 108 145 77 c 1,0,-1
EndSplineSet
EndChar

StartChar: three
Encoding: 51 51 182
Width: 454
Flags: HMW
HStem: -10 76<184.5 239.5 184.5 255> 327 61<162.5 180 148 221.5> 590 73<186 206 181.5 237>
VStem: 314 93
LayerCount: 2
Fore
SplineSet
56 615 m 1,0,1
 114 663 114 663 204.5 662.5 c 0,2,3
 295 662 295 662 347.5 618 c 128,-1,4
 400 574 400 574 400 512 c 0,5,6
 400 426 400 426 306 370 c 1,7,8
 351 353 351 353 379 307 c 128,-1,9
 407 261 407 261 407 212 c 0,10,11
 407 125 407 125 346 57.5 c 128,-1,12
 285 -10 285 -10 182 -10 c 0,13,14
 102 -10 102 -10 30 36 c 1,15,-1
 82 108 l 1,16,17
 101 92 101 92 138 79 c 128,-1,18
 175 66 175 66 204 66 c 0,19,20
 255 66 255 66 286.5 101.5 c 128,-1,21
 318 137 318 137 318 186 c 0,22,23
 318 327 318 327 167 327 c 0,24,25
 149 327 149 327 140 326 c 1,26,-1
 148 388 l 1,27,28
 208 388 208 388 261 415.5 c 128,-1,29
 314 443 314 443 314 498 c 0,30,31
 314 541 314 541 284 565.5 c 128,-1,32
 254 590 254 590 214 590 c 0,33,34
 174 590 174 590 138.5 578 c 128,-1,35
 103 566 103 566 82 546 c 1,36,-1
 56 615 l 1,0,1
EndSplineSet
EndChar

StartChar: four
Encoding: 52 52 183
Width: 484
Flags: HMW
HStem: 1 239<402 409 118 318> 166 74<219.5 257 257 313 118 314> 644 20G<257 257>
VStem: 313 85
LayerCount: 2
Fore
SplineSet
313 499 m 1,0,-1
 394 496 l 1,1,-1
 402 240 l 1,2,-1
 481 240 l 1,3,-1
 480 164 l 1,4,5
 439 164 439 164 404 165 c 1,6,-1
 409 1 l 1,7,-1
 318 1 l 1,8,-1
 314 166 l 1,9,-1
 257 166 l 2,10,11
 118 166 118 166 39 158 c 1,12,-1
 30 223 l 1,13,-1
 257 664 l 1,14,-1
 332 624 l 1,15,-1
 118 240 l 1,16,-1
 313 240 l 1,17,-1
 313 499 l 1,0,-1
EndSplineSet
EndChar

StartChar: five
Encoding: 53 53 184
Width: 454
Flags: HMW
HStem: -10 80<186.5 244 186.5 244.5> 344 74<188.5 211.5> 573 78 634 20G<386 386>
VStem: 41 76 325 89<170.5 255>
LayerCount: 2
Fore
SplineSet
39 649 m 1,0,-1
 386 654 l 1,1,-1
 378 571 l 1,2,-1
 116 576 l 1,3,-1
 119 402 l 1,4,5
 162 418 162 418 203 418 c 0,6,7
 290 418 290 418 352 363.5 c 128,-1,8
 414 309 414 309 414 212.5 c 0,9,10
 414 116 414 116 346 53 c 128,-1,11
 278 -10 278 -10 190 -10 c 0,12,13
 102 -10 102 -10 30 36 c 1,14,-1
 82 108 l 1,15,16
 101 94 101 94 139 82 c 128,-1,17
 177 70 177 70 206 70 c 0,18,19
 260 70 260 70 292.5 110 c 128,-1,20
 325 150 325 150 325 212.5 c 0,21,22
 325 275 325 275 281 309.5 c 128,-1,23
 237 344 237 344 177.5 344 c 0,24,25
 118 344 118 344 82 316 c 1,26,-1
 44 357 l 1,27,-1
 39 649 l 1,0,-1
EndSplineSet
EndChar

StartChar: six
Encoding: 54 54 185
Width: 503
Flags: HMW
HStem: -4 72<216 289.5 216 313> 348 72<243 301.5> 646 20G<409 409>
VStem: 44 88<175 255 173.5 331.5> 372 85<162 230>
LayerCount: 2
Fore
SplineSet
409 666 m 1,0,-1
 449 596 l 1,1,2
 327 584 327 584 245 513.5 c 128,-1,3
 163 443 163 443 145 364 c 1,4,5
 148 370 148 370 165 382.5 c 128,-1,6
 182 395 182 395 214 407.5 c 128,-1,7
 246 420 246 420 279 420 c 0,8,9
 359 420 359 420 408 362 c 128,-1,10
 457 304 457 304 457 217.5 c 128,-1,11
 457 131 457 131 398.5 63.5 c 128,-1,12
 340 -4 340 -4 254 -4 c 0,13,14
 152 -4 152 -4 98 65.5 c 128,-1,15
 44 135 44 135 44 241 c 0,16,17
 44 310 44 310 68.5 380.5 c 128,-1,18
 93 451 93 451 137.5 512 c 128,-1,19
 182 573 182 573 253 615 c 128,-1,20
 324 657 324 657 409 666 c 1,0,-1
261 68 m 0,21,22
 305 68 305 68 338.5 106 c 128,-1,23
 372 144 372 144 372 200 c 0,24,25
 372 277.807692308 372 277.807692308 325 323 c 0,26,27
 299 348 299 348 263 348 c 0,28,29
 132 348 132 348 132 204 c 0,30,31
 132 152 132 152 165.5 110 c 128,-1,32
 199 68 199 68 261 68 c 0,21,22
EndSplineSet
EndChar

StartChar: seven
Encoding: 55 55 186
Width: 501
Flags: HMW
HStem: -19 21G<185 185> 569 79 630 20G<451 451>
LayerCount: 2
Fore
SplineSet
388 575 m 1,0,-1
 77 564 l 1,1,-1
 74 649 l 1,2,-1
 287 648 l 2,3,4
 385 648 385 648 451 650 c 1,5,-1
 464 595 l 1,6,7
 426 501 426 501 329 299.5 c 0,8,9
 232 98 232 98 185 -19 c 1,10,-1
 102 28 l 1,11,-1
 388 575 l 1,0,-1
EndSplineSet
EndChar

StartChar: eight
Encoding: 56 56 187
Width: 477
Flags: HMW
HStem: -9 75<190 262.5 190 293.5> 589 71<217.5 268>
VStem: 36 80<155.5 214.5> 63 85<474.5 531.5 474.5 542.5> 340 83<489.5 531.5> 359 83<147 223 139.5 226>
LayerCount: 2
Fore
SplineSet
334 365 m 1,0,1
 388 333 388 333 415 287 c 128,-1,2
 442 241 442 241 442 191 c 0,3,4
 442 111 442 111 382 51 c 128,-1,5
 322 -9 322 -9 230 -9 c 128,-1,6
 138 -9 138 -9 87 47 c 128,-1,7
 36 103 36 103 36 178 c 0,8,9
 36 234 36 234 66 281 c 128,-1,10
 96 328 96 328 153 355 c 1,11,12
 63 409 63 409 63 499 c 0,13,14
 63 567 63 567 116 613.5 c 128,-1,15
 169 660 169 660 246.5 660 c 128,-1,16
 324 660 324 660 373.5 623 c 128,-1,17
 423 586 423 586 423 516 c 0,18,19
 423 473 423 473 398.5 428 c 128,-1,20
 374 383 374 383 334 365 c 1,0,1
227 326 m 1,21,22
 177 316 177 316 146.5 275 c 128,-1,23
 116 234 116 234 116 185 c 128,-1,24
 116 136 116 136 145 101 c 128,-1,25
 174 66 174 66 228.5 66 c 128,-1,26
 283 66 283 66 321 98 c 128,-1,27
 359 130 359 130 359 185 c 128,-1,28
 359 240 359 240 324 271.5 c 128,-1,29
 289 303 289 303 227 326 c 1,21,22
175 566.5 m 128,-1,31
 148 544 148 544 148 504 c 128,-1,32
 148 464 148 464 175.5 440 c 128,-1,33
 203 416 203 416 257 395 c 1,34,35
 295 409 295 409 317.5 437 c 128,-1,36
 340 465 340 465 340 504.5 c 128,-1,37
 340 544 340 544 311.5 566.5 c 128,-1,38
 283 589 283 589 242.5 589 c 128,-1,30
 202 589 202 589 175 566.5 c 128,-1,31
EndSplineSet
EndChar

StartChar: nine
Encoding: 57 57 188
Width: 503
Flags: HMW
HStem: -8 21G<136 136> 242 74<199.5 237> 596 70<211.5 285>
VStem: 45 84<434 500> 369 91<409 490.5>
LayerCount: 2
Fore
SplineSet
136 -8 m 1,0,-1
 96 58 l 1,1,2
 195 72 195 72 266.5 132.5 c 128,-1,3
 338 193 338 193 350 290 c 1,4,5
 283 242 283 242 212.5 242 c 128,-1,6
 142 242 142 242 93.5 298 c 128,-1,7
 45 354 45 354 45 442.5 c 128,-1,8
 45 531 45 531 103.5 598.5 c 128,-1,9
 162 666 162 666 248 666 c 0,10,11
 351 666 351 666 405.5 602 c 128,-1,12
 460 538 460 538 460 434 c 0,13,14
 460 284.923076923 460 284.923076923 379 152 c 0,15,16
 340 88 340 88 276.5 44.5 c 128,-1,17
 213 1 213 1 136 -8 c 1,0,-1
240 596 m 0,18,19
 196 596 196 596 162.5 558 c 128,-1,20
 129 520 129 520 129 464 c 0,21,22
 129 386.192307692 129 386.192307692 176 341 c 0,23,24
 202 316 202 316 238 316 c 0,25,26
 369 316 369 316 369 460 c 0,27,28
 369 512 369 512 335.5 554 c 128,-1,29
 302 596 302 596 240 596 c 0,18,19
EndSplineSet
EndChar

StartChar: zerosuperior
Encoding: 8304 8304 189
Width: 498
Flags: HMW
HStem: 266 56<204 265 204 286.5> 598 64<209 259.5>
VStem: 74 72<441.5 504.5> 317 75<426.5 496>
LayerCount: 2
Fore
SplineSet
241 266 m 0,0,1
 160 266 160 266 117 321 c 128,-1,2
 74 376 74 376 74 456 c 128,-1,3
 74 536 74 536 119 599 c 128,-1,4
 164 662 164 662 238 662 c 128,-1,5
 312 662 312 662 352 602 c 128,-1,6
 392 542 392 542 392 462.5 c 128,-1,7
 392 383 392 383 349.5 324.5 c 128,-1,8
 307 266 307 266 241 266 c 0,0,1
184 349.5 m 0,9,10
 207 322 207 322 241 322 c 128,-1,11
 275 322 275 322 296 364 c 128,-1,12
 317 406 317 406 317 462 c 128,-1,13
 317 518 317 518 294.5 558 c 128,-1,14
 272 598 272 598 234.5 598 c 128,-1,15
 197 598 197 598 171.5 561 c 128,-1,16
 146 524 146 524 146 459.467391304 c 128,-1,17
 146 394.934782609 146 394.934782609 184 349.5 c 0,9,10
EndSplineSet
EndChar

StartChar: onesuperior
Encoding: 185 185 190
Width: 252
Flags: HMW
HStem: 266 21G<122 202 122 122> 631 20G<196 196>
VStem: 124 75
LayerCount: 2
Fore
SplineSet
73 511 m 1,0,-1
 50 546 l 1,1,-1
 142 646 l 1,2,-1
 196 651 l 1,3,-1
 196 543 l 2,4,5
 196 430 196 430 197 413 c 2,6,-1
 202 266 l 1,7,-1
 122 266 l 1,8,-1
 127 424 l 2,9,10
 128 455 128 455 128 495 c 2,11,-1
 128 550 l 1,12,-1
 73 511 l 1,0,-1
EndSplineSet
EndChar

StartChar: twosuperior
Encoding: 178 178 191
Width: 335
Flags: HMW
HStem: 266 69 593 67<143 167>
VStem: 206 73<514.5 556>
LayerCount: 2
Fore
SplineSet
141 331 m 1,0,-1
 284 339 l 1,1,-1
 285 266 l 1,2,-1
 56 267 l 1,3,-1
 60 320 l 1,4,5
 206 472 206 472 206 536 c 0,6,7
 206 564 206 564 191 578.5 c 128,-1,8
 176 593 176 593 154 593 c 0,9,10
 132 593 132 593 112 581.5 c 128,-1,11
 92 570 92 570 81 551 c 1,12,-1
 50 619 l 1,13,14
 99 660 99 660 155.5 660 c 0,15,16
 212 660 212 660 245.5 632 c 128,-1,17
 279 604 279 604 279 550 c 0,18,19
 279 525 279 525 263.5 494 c 128,-1,20
 248 463 248 463 231 440.5 c 128,-1,21
 214 418 214 418 183.5 382.5 c 128,-1,22
 153 347 153 347 141 331 c 1,0,-1
EndSplineSet
EndChar

StartChar: threesuperior
Encoding: 179 179 192
Width: 339
Flags: HMW
HStem: 264 56<134 167.5 134 190.5> 456 49<125 146 118 153.5> 600 61<139.5 165.5>
VStem: 202 74<557 575> 202 87
LayerCount: 2
Fore
SplineSet
65 633 m 1,0,1
 99 661 99 661 154 661 c 0,2,3
 209 661 209 661 242.5 634.5 c 128,-1,4
 276 608 276 608 276 572 c 0,5,6
 276 522 276 522 212 488 c 1,7,8
 248 478 248 478 268.5 451 c 128,-1,9
 289 424 289 424 289 394 c 0,10,11
 289 343 289 343 249.5 303.5 c 128,-1,12
 210 264 210 264 142 264 c 0,13,14
 93 264 93 264 50 291 c 1,15,-1
 87 343 l 1,16,17
 108 320 108 320 142.5 320 c 0,18,19
 177 320 177 320 194 337 c 128,-1,20
 211 354 211 354 211 384 c 0,21,22
 211 414 211 414 189 435 c 128,-1,23
 167 456 167 456 127 456 c 0,24,25
 116 456 116 456 110 455 c 1,26,-1
 118 505 l 1,27,28
 158 505 158 505 180 521 c 128,-1,29
 202 537 202 537 202 561 c 0,30,31
 202 600 202 600 154.5 600 c 0,32,33
 107 600 107 600 86 573 c 1,34,-1
 65 633 l 1,0,1
EndSplineSet
EndChar

StartChar: foursuperior
Encoding: 8308 8308 193
Width: 379
Flags: HMW
HStem: 364 62<118 186> 641 20G<166 166>
VStem: 216 64
LayerCount: 2
Fore
SplineSet
118 426 m 1,0,-1
 218 427 l 1,1,-1
 214 563 l 1,2,-1
 278 561 l 1,3,-1
 282 428 l 1,4,-1
 324 429 l 1,5,-1
 329 363 l 1,6,-1
 284 363 l 1,7,-1
 287 266 l 1,8,-1
 217 266 l 1,9,-1
 217 364 l 1,10,-1
 186 364 l 2,11,12
 100 364 100 364 56 359 c 1,13,-1
 50 411 l 1,14,-1
 166 661 l 1,15,-1
 231 638 l 1,16,-1
 118 426 l 1,0,-1
EndSplineSet
EndChar

StartChar: onehalf
Encoding: 189 189 194
Width: 780
Flags: HMW
HStem: -18 21G<179 179> 0 69 327 67<554 578> 646 20G
VStem: 142 75 617 73<248.5 290>
LayerCount: 2
Fore
SplineSet
517 666 m 1,0,-1
 585 630 l 1,1,-1
 179 -18 l 1,2,-1
 116 17 l 1,3,-1
 517 666 l 1,0,-1
552 65 m 1,4,-1
 695 73 l 1,5,-1
 696 0 l 1,6,-1
 467 1 l 1,7,-1
 471 54 l 1,8,9
 617 206 617 206 617 270 c 0,10,11
 617 298 617 298 602 312.5 c 128,-1,12
 587 327 587 327 565 327 c 0,13,14
 543 327 543 327 523 315.5 c 128,-1,15
 503 304 503 304 492 285 c 1,16,-1
 461 353 l 1,17,18
 510 394 510 394 566.5 394 c 0,19,20
 623 394 623 394 656.5 366 c 128,-1,21
 690 338 690 338 690 284 c 0,22,23
 690 259 690 259 674.5 228 c 128,-1,24
 659 197 659 197 642 174.5 c 128,-1,25
 625 152 625 152 594.5 116.5 c 128,-1,26
 564 81 564 81 552 65 c 1,4,-1
91 511 m 1,27,-1
 68 546 l 1,28,-1
 160 646 l 1,29,-1
 214 651 l 1,30,-1
 214 543 l 2,31,32
 214 430 214 430 215 413 c 2,33,-1
 220 266 l 1,34,-1
 140 266 l 1,35,-1
 145 424 l 2,36,37
 146 455 146 455 146 495 c 2,38,-1
 146 550 l 1,39,-1
 91 511 l 1,27,-1
EndSplineSet
EndChar

StartChar: onequarter
Encoding: 188 188 195
Width: 780
Flags: HMW
HStem: -18 21G<190 190> 98 62<485 553> 646 20G
VStem: 153 75 583 64
LayerCount: 2
Fore
SplineSet
528 666 m 1,0,-1
 596 630 l 1,1,-1
 190 -18 l 1,2,-1
 127 17 l 1,3,-1
 528 666 l 1,0,-1
485 160 m 1,4,-1
 585 161 l 1,5,-1
 581 297 l 1,6,-1
 645 295 l 1,7,-1
 649 162 l 1,8,-1
 691 163 l 1,9,-1
 696 97 l 1,10,-1
 651 97 l 1,11,-1
 654 0 l 1,12,-1
 584 0 l 1,13,-1
 584 98 l 1,14,-1
 553 98 l 2,15,16
 467 98 467 98 423 93 c 1,17,-1
 417 145 l 1,18,-1
 533 395 l 1,19,-1
 598 372 l 1,20,-1
 485 160 l 1,4,-1
102 511 m 1,21,-1
 79 546 l 1,22,-1
 171 646 l 1,23,-1
 225 651 l 1,24,-1
 225 543 l 2,25,26
 225 430 225 430 226 413 c 2,27,-1
 231 266 l 1,28,-1
 151 266 l 1,29,-1
 156 424 l 2,30,31
 157 455 157 455 157 495 c 2,32,-1
 157 550 l 1,33,-1
 102 511 l 1,21,-1
EndSplineSet
EndChar

StartChar: threequarters
Encoding: 190 190 196
Width: 780
Flags: HMW
HStem: -18 21G<209 209> 98 62<504 572> 264 56<133 166.5 133 189.5> 456 49<124 145 117 152.5> 600 61<138.5 164.5> 646 20G<547 547>
VStem: 201 74<557 575> 602 64
LayerCount: 2
Fore
SplineSet
547 666 m 1,0,-1
 615 630 l 1,1,-1
 209 -18 l 1,2,-1
 146 17 l 1,3,-1
 547 666 l 1,0,-1
504 160 m 1,4,-1
 604 161 l 1,5,-1
 600 297 l 1,6,-1
 664 295 l 1,7,-1
 668 162 l 1,8,-1
 710 163 l 1,9,-1
 715 97 l 1,10,-1
 670 97 l 1,11,-1
 673 0 l 1,12,-1
 603 0 l 1,13,-1
 603 98 l 1,14,-1
 572 98 l 2,15,16
 486 98 486 98 442 93 c 1,17,-1
 436 145 l 1,18,-1
 552 395 l 1,19,-1
 617 372 l 1,20,-1
 504 160 l 1,4,-1
85 573 m 1,21,-1
 64 633 l 1,22,23
 98 661 98 661 153 661 c 0,24,25
 208 661 208 661 241.5 634.5 c 128,-1,26
 275 608 275 608 275 572 c 0,27,28
 275 522 275 522 211 488 c 1,29,30
 247 478 247 478 267.5 451 c 128,-1,31
 288 424 288 424 288 394 c 0,32,33
 288 343 288 343 248.5 303.5 c 128,-1,34
 209 264 209 264 141 264 c 0,35,36
 92 264 92 264 49 291 c 1,37,-1
 86 343 l 1,38,39
 107 320 107 320 141.5 320 c 0,40,41
 176 320 176 320 193 337 c 128,-1,42
 210 354 210 354 210 384 c 0,43,44
 210 414 210 414 188 435 c 128,-1,45
 166 456 166 456 126 456 c 0,46,47
 115 456 115 456 109 455 c 1,48,-1
 117 505 l 1,49,50
 157 505 157 505 179 521 c 128,-1,51
 201 537 201 537 201 561 c 0,52,53
 201 600 201 600 153.5 600 c 0,54,55
 106 600 106 600 85 573 c 1,21,-1
EndSplineSet
EndChar

StartChar: percent
Encoding: 37 37 197
Width: 741
Flags: HMW
HStem: -18 21G<195 195> 17 68<529 571.5 529 598.5> 229 68<530.5 577> 352 67<171 214 171 238.5> 564 68<170 212> 646 20G<533 533>
VStem: 50 72<474 510.5 474 522> 259 72<469 516> 410 72<139 175.5 139 187> 621 70<137 178>
LayerCount: 2
Fore
SplineSet
533 666 m 1,0,-1
 601 630 l 1,1,-1
 195 -18 l 1,2,-1
 132 17 l 1,3,-1
 533 666 l 1,0,-1
450 253.5 m 128,-1,5
 490 297 490 297 557 297 c 128,-1,6
 624 297 624 297 657.5 256.5 c 128,-1,7
 691 216 691 216 691 159 c 128,-1,8
 691 102 691 102 654.5 59.5 c 128,-1,9
 618 17 618 17 552.5 17 c 128,-1,10
 487 17 487 17 448.5 57 c 128,-1,11
 410 97 410 97 410 153.5 c 128,-1,4
 410 210 410 210 450 253.5 c 128,-1,5
501 107 m 128,-1,13
 520 85 520 85 551 85 c 128,-1,14
 582 85 582 85 601.5 105.5 c 128,-1,15
 621 126 621 126 621 158 c 128,-1,16
 621 190 621 190 604 209.5 c 128,-1,17
 587 229 587 229 554 229 c 128,-1,18
 521 229 521 229 501.5 207.5 c 128,-1,19
 482 186 482 186 482 157.5 c 128,-1,12
 482 129 482 129 501 107 c 128,-1,13
90 588.5 m 128,-1,21
 130 632 130 632 197 632 c 128,-1,22
 264 632 264 632 297.5 595 c 128,-1,23
 331 558 331 558 331 501.5 c 128,-1,24
 331 445 331 445 294.5 398.5 c 128,-1,25
 258 352 258 352 192.5 352 c 128,-1,26
 127 352 127 352 88.5 392 c 128,-1,27
 50 432 50 432 50 488.5 c 128,-1,20
 50 545 50 545 90 588.5 c 128,-1,21
191 419 m 0,28,29
 259 419 259 419 259 492 c 0,30,31
 259 527 259 527 241 545.5 c 128,-1,32
 223 564 223 564 191.5 564 c 128,-1,33
 160 564 160 564 141 542.5 c 128,-1,34
 122 521 122 521 122 492.5 c 128,-1,35
 122 464 122 464 142 441.5 c 128,-1,36
 162 419 162 419 191 419 c 0,28,29
EndSplineSet
EndChar

StartChar: perthousand
Encoding: 8240 8240 198
Width: 1057
Flags: HMW
HStem: -18 21G<195 195> 17 69<527 570 527 598.5 843 886> 229 68<534.5 588 850.5 904> 352 69<167 210 167 238.5> 564 68<174.5 228> 646 20G<533 533>
VStem: 50 72<474 510.5 474 522> 259 72<469 506> 410 72<139 175.5 139 187> 619 72<134 171> 726 72<139 175.5 139 187> 935 72<134 171>
LayerCount: 2
Fore
SplineSet
533 666 m 1,0,-1
 601 630 l 1,1,-1
 195 -18 l 1,2,-1
 132 17 l 1,3,-1
 533 666 l 1,0,-1
450 253.5 m 128,-1,5
 490 297 490 297 557 297 c 128,-1,6
 624 297 624 297 657.5 260 c 128,-1,7
 691 223 691 223 691 166.5 c 128,-1,8
 691 110 691 110 654.5 63.5 c 128,-1,9
 618 17 618 17 552.5 17 c 128,-1,10
 487 17 487 17 448.5 57 c 128,-1,11
 410 97 410 97 410 153.5 c 128,-1,4
 410 210 410 210 450 253.5 c 128,-1,5
547 86 m 0,12,13
 619 86 619 86 619 157.5 c 128,-1,14
 619 229 619 229 561 229 c 0,15,16
 523 229 523 229 502.5 208 c 128,-1,17
 482 187 482 187 482 158 c 128,-1,18
 482 129 482 129 500 107.5 c 128,-1,19
 518 86 518 86 547 86 c 0,12,13
90 588.5 m 128,-1,21
 130 632 130 632 197 632 c 128,-1,22
 264 632 264 632 297.5 595 c 128,-1,23
 331 558 331 558 331 501.5 c 128,-1,24
 331 445 331 445 294.5 398.5 c 128,-1,25
 258 352 258 352 192.5 352 c 128,-1,26
 127 352 127 352 88.5 392 c 128,-1,27
 50 432 50 432 50 488.5 c 128,-1,20
 50 545 50 545 90 588.5 c 128,-1,21
187 421 m 0,28,29
 259 421 259 421 259 492.5 c 128,-1,30
 259 564 259 564 201 564 c 0,31,32
 163 564 163 564 142.5 543 c 128,-1,33
 122 522 122 522 122 493 c 128,-1,34
 122 464 122 464 140 442.5 c 128,-1,35
 158 421 158 421 187 421 c 0,28,29
766 253.5 m 128,-1,37
 806 297 806 297 873 297 c 128,-1,38
 940 297 940 297 973.5 260 c 128,-1,39
 1007 223 1007 223 1007 166.5 c 128,-1,40
 1007 110 1007 110 970.5 63.5 c 128,-1,41
 934 17 934 17 868.5 17 c 128,-1,42
 803 17 803 17 764.5 57 c 128,-1,43
 726 97 726 97 726 153.5 c 128,-1,36
 726 210 726 210 766 253.5 c 128,-1,37
863 86 m 0,44,45
 935 86 935 86 935 157.5 c 128,-1,46
 935 229 935 229 877 229 c 0,47,48
 839 229 839 229 818.5 208 c 128,-1,49
 798 187 798 187 798 158 c 128,-1,50
 798 129 798 129 816 107.5 c 128,-1,51
 834 86 834 86 863 86 c 0,44,45
EndSplineSet
EndChar

StartChar: zero.onum
Encoding: 65554 -1 199
Width: 505
Flags: HMW
HStem: -9 82<204.5 301 204.5 331> 407 81<197.5 289.5>
VStem: 18 86<194 277.5 194 293.5> 387 90<194 277.5>
LayerCount: 2
Fore
SplineSet
419 65.5 m 128,-1,1
 361 -9 361 -9 251.5 -9 c 128,-1,2
 142 -9 142 -9 80 61 c 128,-1,3
 18 131 18 131 18 232 c 128,-1,4
 18 333 18 333 82.5 410.5 c 128,-1,5
 147 488 147 488 254 488 c 128,-1,6
 361 488 361 488 419 415 c 128,-1,7
 477 342 477 342 477 241 c 128,-1,0
 477 140 477 140 419 65.5 c 128,-1,1
348.5 356 m 128,-1,9
 310 407 310 407 244.5 407 c 128,-1,10
 179 407 179 407 141.5 355 c 128,-1,11
 104 303 104 303 104 235 c 128,-1,12
 104 167 104 167 143 120 c 128,-1,13
 182 73 182 73 259 73 c 0,14,15
 319 73 319 73 353 121 c 128,-1,16
 387 169 387 169 387 237 c 128,-1,8
 387 305 387 305 348.5 356 c 128,-1,9
EndSplineSet
EndChar

StartChar: one.onum
Encoding: 65555 -1 200
Width: 287
Flags: HMW
HStem: -3 21G<120 120> 474 20G<211 211>
VStem: 126 89
LayerCount: 2
Fore
SplineSet
45 312 m 1,0,-1
 15 366 l 1,1,-1
 149 493 l 1,2,-1
 211 494 l 1,3,-1
 211 356 l 2,4,5
 211 211 211 211 212 189 c 2,6,-1
 219 3 l 1,7,-1
 120 -3 l 1,8,-1
 125 222 l 2,9,10
 126 265 126 265 126 307 c 0,11,12
 126 349 126 349 125 372 c 1,13,-1
 45 312 l 1,0,-1
EndSplineSet
EndChar

StartChar: two.onum
Encoding: 65556 -1 201
Width: 426
Flags: HMW
HStem: 1 84 412 78<174.5 220.5>
VStem: 294 87<293.5 359>
LayerCount: 2
Fore
SplineSet
172 81 m 1,0,-1
 394 90 l 1,1,-1
 395 1 l 1,2,-1
 49 2 l 1,3,-1
 54 68 l 1,4,5
 71 83 71 83 111.5 116.5 c 128,-1,6
 152 150 152 150 178 173 c 128,-1,7
 204 196 204 196 234 226.5 c 0,8,9
 294 287.5 294 287.5 294 328.75 c 128,-1,10
 294 370 294 370 265 391 c 128,-1,11
 236 412 236 412 196.5 412 c 128,-1,12
 157 412 157 412 121 397.5 c 128,-1,13
 85 383 85 383 67 360 c 1,14,-1
 28 439 l 1,15,16
 104 490 104 490 206 490 c 0,17,18
 280 490 280 490 330.5 450 c 128,-1,19
 381 410 381 410 381 342 c 0,20,21
 381 282.701754386 381 282.701754386 330.5 226 c 0,22,23
 302 194 302 194 286.5 178.5 c 128,-1,24
 271 163 271 163 225.5 125.5 c 128,-1,25
 180 88 180 88 172 81 c 1,0,-1
EndSplineSet
EndChar

StartChar: three.onum
Encoding: 65557 -1 202
Width: 454
Flags: HMW
HStem: -182 76<184.5 239.5 184.5 255> 155 61<162.5 180 148 221.5> 418 73<186 206 181.5 237>
VStem: 314 93
LayerCount: 2
Fore
SplineSet
56 443 m 1,0,1
 115 491 115 491 205 490.5 c 0,2,3
 295 490 295 490 347.5 446 c 128,-1,4
 400 402 400 402 400 340 c 0,5,6
 400 254 400 254 306 198 c 1,7,8
 351 181 351 181 379 135 c 128,-1,9
 407 89 407 89 407 40 c 0,10,11
 407 -47 407 -47 346 -114.5 c 128,-1,12
 285 -182 285 -182 182 -182 c 0,13,14
 102 -182 102 -182 30 -136 c 1,15,-1
 82 -64 l 1,16,17
 101 -80 101 -80 138 -93 c 128,-1,18
 175 -106 175 -106 204 -106 c 0,19,20
 255 -106 255 -106 286.5 -70.5 c 128,-1,21
 318 -35 318 -35 318 14 c 0,22,23
 318 155 318 155 167 155 c 0,24,25
 149 155 149 155 140 154 c 1,26,-1
 148 216 l 1,27,28
 208 216 208 216 261 243.5 c 128,-1,29
 314 271 314 271 314 326 c 0,30,31
 314 369 314 369 284 393.5 c 128,-1,32
 254 418 254 418 214 418 c 0,33,34
 174 418 174 418 138.5 406 c 128,-1,35
 103 394 103 394 82 374 c 1,36,-1
 56 443 l 1,0,1
EndSplineSet
EndChar

StartChar: four.onum
Encoding: 65558 -1 203
Width: 484
Flags: HMW
HStem: -158 239<402 409 118 318> 7 74<219.5 257 257 313 118 314> 485 20G<257 257>
VStem: 313 85
LayerCount: 2
Fore
SplineSet
313 340 m 1,0,-1
 394 337 l 1,1,-1
 402 81 l 1,2,-1
 481 81 l 1,3,-1
 480 5 l 1,4,5
 439 5 439 5 404 6 c 1,6,-1
 409 -158 l 1,7,-1
 318 -158 l 1,8,-1
 314 7 l 1,9,-1
 257 7 l 2,10,11
 118 7 118 7 39 -1 c 1,12,-1
 30 64 l 1,13,-1
 257 505 l 1,14,-1
 332 465 l 1,15,-1
 118 81 l 1,16,-1
 313 81 l 1,17,-1
 313 340 l 1,0,-1
EndSplineSet
EndChar

